G04 #@! TF.GenerationSoftware,KiCad,Pcbnew,(5.1.6)-1*
G04 #@! TF.CreationDate,2020-11-05T16:36:13+07:00*
G04 #@! TF.ProjectId,business card,62757369-6e65-4737-9320-636172642e6b,rev?*
G04 #@! TF.SameCoordinates,Original*
G04 #@! TF.FileFunction,Soldermask,Top*
G04 #@! TF.FilePolarity,Negative*
%FSLAX46Y46*%
G04 Gerber Fmt 4.6, Leading zero omitted, Abs format (unit mm)*
G04 Created by KiCad (PCBNEW (5.1.6)-1) date 2020-11-05 16:36:13*
%MOMM*%
%LPD*%
G01*
G04 APERTURE LIST*
%ADD10C,0.250000*%
%ADD11C,0.010000*%
%ADD12C,1.100000*%
%ADD13C,4.800000*%
G04 APERTURE END LIST*
D10*
X107794020Y-98531140D02*
X107194580Y-99133120D01*
X107794020Y-99930680D02*
X108393460Y-99331240D01*
X107792000Y-101648700D02*
X107792000Y-99932700D01*
X81105000Y-101648700D02*
X107792000Y-101648700D01*
X81103140Y-74947520D02*
X81103140Y-101648700D01*
X107794020Y-98531140D02*
X107794020Y-74947520D01*
X107793000Y-74947520D02*
X81102860Y-74947520D01*
X110791500Y-74614500D02*
X110791500Y-100131340D01*
X110194600Y-99928140D02*
X110194600Y-74614500D01*
X109597700Y-74627200D02*
X109597700Y-99724940D01*
X108393460Y-99331240D02*
X108393460Y-74647800D01*
X108988100Y-99531900D02*
X108988100Y-74627200D01*
X111378240Y-101132100D02*
X111693200Y-101132100D01*
X110794040Y-101716300D02*
G75*
G02*
X111378240Y-101132100I584200J0D01*
G01*
X108988100Y-99531900D02*
X108391200Y-100128800D01*
X109597700Y-99724940D02*
X109000800Y-100321840D01*
X110194600Y-99928140D02*
X109595160Y-100527580D01*
X110791500Y-100131340D02*
X110194600Y-100730780D01*
X108111800Y-73141300D02*
G75*
G02*
X109597700Y-74627200I0J-1485900D01*
G01*
X108111800Y-73750900D02*
G75*
G02*
X108988100Y-74627200I0J-876300D01*
G01*
X108111800Y-74347800D02*
G75*
G02*
X108391200Y-74627200I0J-279400D01*
G01*
X108124500Y-72544400D02*
G75*
G02*
X110194600Y-74614500I0J-2070100D01*
G01*
X108124500Y-71947500D02*
G75*
G02*
X110791500Y-74614500I0J-2667000D01*
G01*
X80781400Y-71947500D02*
X108099100Y-71947500D01*
X80781400Y-72544400D02*
X108124500Y-72544400D01*
X80781400Y-73141300D02*
X108111800Y-73141300D01*
X80781400Y-73750900D02*
X108111800Y-73750900D01*
X80781400Y-74347800D02*
X108111800Y-74347800D01*
X78101700Y-101957600D02*
X78101700Y-74678000D01*
X78698600Y-74627200D02*
X78698600Y-101890000D01*
X79308200Y-101932200D02*
X79308200Y-74678000D01*
X79905100Y-74627200D02*
X79905100Y-101940000D01*
X80502000Y-101932200D02*
X80502000Y-74678000D01*
X80502000Y-74627200D02*
G75*
G02*
X80781400Y-74347800I279400J0D01*
G01*
X79905100Y-74627200D02*
G75*
G02*
X80781400Y-73750900I876300J0D01*
G01*
X79305660Y-74634820D02*
G75*
G02*
X80791560Y-73148920I1485900J0D01*
G01*
X78698600Y-74627200D02*
G75*
G02*
X80781400Y-72544400I2082800J0D01*
G01*
X78101700Y-74627200D02*
G75*
G02*
X80781400Y-71947500I2679700J0D01*
G01*
X80794100Y-104650000D02*
G75*
G02*
X78101700Y-101957600I0J2692400D01*
G01*
X80767401Y-104041530D02*
G75*
G02*
X78710000Y-101960000I26699J2083930D01*
G01*
X80768700Y-103443500D02*
G75*
G02*
X79308200Y-101932200I25400J1485900D01*
G01*
X80768700Y-102846600D02*
G75*
G02*
X79905100Y-101932200I25400J889000D01*
G01*
X80768700Y-102249700D02*
G75*
G02*
X80502000Y-101932200I25400J292100D01*
G01*
X110194520Y-101988080D02*
X110194520Y-100735600D01*
X108124500Y-104644041D02*
X80756000Y-104644041D01*
X108127001Y-104045480D02*
X80756000Y-104045480D01*
X108116826Y-103446094D02*
X80756000Y-103446094D01*
X108119420Y-102844060D02*
X80756000Y-102844060D01*
X108106720Y-102242080D02*
X80756000Y-102242080D01*
X108393318Y-101995228D02*
X108393318Y-100126000D01*
X108995560Y-101983000D02*
X108995560Y-100329200D01*
X109590080Y-101972840D02*
X109590080Y-100532400D01*
X108383318Y-101995228D02*
G75*
G02*
X108106720Y-102242080I-263898J17308D01*
G01*
X108985560Y-101983000D02*
G75*
G02*
X108119420Y-102844060I-863600J2540D01*
G01*
X109590080Y-101972840D02*
G75*
G02*
X108116826Y-103446094I-1473254J0D01*
G01*
X110189520Y-101988080D02*
G75*
G02*
X108132081Y-104045519I-2057439J0D01*
G01*
X110790704Y-101911880D02*
G75*
G02*
X108124500Y-104644041I-2666204J-65161D01*
G01*
X110791500Y-101750000D02*
X110791500Y-101919500D01*
D11*
G36*
X152505814Y-67118931D02*
G01*
X152589635Y-67563555D01*
X152898920Y-67691053D01*
X153208206Y-67818551D01*
X153579246Y-67566246D01*
X153683157Y-67495996D01*
X153777087Y-67433272D01*
X153856652Y-67380938D01*
X153917470Y-67341857D01*
X153955157Y-67318893D01*
X153965421Y-67313942D01*
X153983910Y-67326676D01*
X154023420Y-67361882D01*
X154079522Y-67415062D01*
X154147787Y-67481718D01*
X154223786Y-67557354D01*
X154303092Y-67637472D01*
X154381275Y-67717574D01*
X154453907Y-67793164D01*
X154516559Y-67859745D01*
X154564803Y-67912818D01*
X154594210Y-67947887D01*
X154601241Y-67959623D01*
X154591123Y-67981260D01*
X154562759Y-68028662D01*
X154519129Y-68097193D01*
X154463218Y-68182215D01*
X154398006Y-68279093D01*
X154360219Y-68334350D01*
X154291343Y-68435248D01*
X154230140Y-68526299D01*
X154179578Y-68602970D01*
X154142628Y-68660728D01*
X154122258Y-68695043D01*
X154119197Y-68702254D01*
X154126136Y-68722748D01*
X154145051Y-68770513D01*
X154173087Y-68838832D01*
X154207391Y-68920989D01*
X154245109Y-69010270D01*
X154283387Y-69099958D01*
X154319370Y-69183338D01*
X154350206Y-69253694D01*
X154373039Y-69304310D01*
X154385017Y-69328471D01*
X154385724Y-69329422D01*
X154404531Y-69334036D01*
X154454618Y-69344328D01*
X154530793Y-69359287D01*
X154627865Y-69377901D01*
X154740643Y-69399159D01*
X154806442Y-69411418D01*
X154926950Y-69434362D01*
X155035797Y-69456195D01*
X155127476Y-69475722D01*
X155196481Y-69491748D01*
X155237304Y-69503079D01*
X155245511Y-69506674D01*
X155253548Y-69531006D01*
X155260033Y-69585959D01*
X155264970Y-69665108D01*
X155268364Y-69762026D01*
X155270218Y-69870287D01*
X155270538Y-69983465D01*
X155269327Y-70095135D01*
X155266590Y-70198868D01*
X155262331Y-70288241D01*
X155256555Y-70356826D01*
X155249267Y-70398197D01*
X155244895Y-70406810D01*
X155218764Y-70417133D01*
X155163393Y-70431892D01*
X155086107Y-70449352D01*
X154994230Y-70467780D01*
X154962158Y-70473741D01*
X154807524Y-70502066D01*
X154685375Y-70524876D01*
X154591673Y-70543080D01*
X154522384Y-70557583D01*
X154473471Y-70569292D01*
X154440897Y-70579115D01*
X154420628Y-70587956D01*
X154408626Y-70596724D01*
X154406947Y-70598457D01*
X154390184Y-70626371D01*
X154364614Y-70680695D01*
X154332788Y-70754777D01*
X154297260Y-70841965D01*
X154260583Y-70935608D01*
X154225311Y-71029052D01*
X154193996Y-71115647D01*
X154169193Y-71188740D01*
X154153454Y-71241678D01*
X154149332Y-71267811D01*
X154149676Y-71268726D01*
X154163641Y-71290086D01*
X154195322Y-71337084D01*
X154241391Y-71404827D01*
X154298518Y-71488423D01*
X154363373Y-71582982D01*
X154381843Y-71609854D01*
X154447699Y-71707275D01*
X154505650Y-71796163D01*
X154552538Y-71871412D01*
X154585207Y-71927920D01*
X154600500Y-71960581D01*
X154601241Y-71964593D01*
X154588392Y-71985684D01*
X154552888Y-72027464D01*
X154499293Y-72085445D01*
X154432171Y-72155135D01*
X154356087Y-72232045D01*
X154275604Y-72311683D01*
X154195287Y-72389561D01*
X154119699Y-72461186D01*
X154053405Y-72522070D01*
X154000969Y-72567721D01*
X153966955Y-72593650D01*
X153957545Y-72597883D01*
X153935643Y-72587912D01*
X153890800Y-72561020D01*
X153830321Y-72521736D01*
X153783789Y-72490117D01*
X153699475Y-72432098D01*
X153599626Y-72363784D01*
X153499473Y-72295579D01*
X153445627Y-72259075D01*
X153263371Y-72135800D01*
X153110381Y-72218520D01*
X153040682Y-72254759D01*
X152981414Y-72282926D01*
X152941311Y-72298991D01*
X152931103Y-72301226D01*
X152918829Y-72284722D01*
X152894613Y-72238082D01*
X152860263Y-72165609D01*
X152817588Y-72071606D01*
X152768394Y-71960374D01*
X152714490Y-71836215D01*
X152657684Y-71703432D01*
X152599782Y-71566327D01*
X152542593Y-71429202D01*
X152487924Y-71296358D01*
X152437584Y-71172098D01*
X152393380Y-71060725D01*
X152357119Y-70966539D01*
X152330609Y-70893844D01*
X152315658Y-70846941D01*
X152313254Y-70830833D01*
X152332311Y-70810286D01*
X152374036Y-70776933D01*
X152429706Y-70737702D01*
X152434378Y-70734599D01*
X152578264Y-70619423D01*
X152694283Y-70485053D01*
X152781430Y-70335784D01*
X152838699Y-70175913D01*
X152865086Y-70009737D01*
X152859585Y-69841552D01*
X152821190Y-69675655D01*
X152748895Y-69516342D01*
X152727626Y-69481487D01*
X152616996Y-69340737D01*
X152486302Y-69227714D01*
X152340064Y-69143003D01*
X152182808Y-69087194D01*
X152019057Y-69060874D01*
X151853333Y-69064630D01*
X151690162Y-69099050D01*
X151534065Y-69164723D01*
X151389567Y-69262235D01*
X151344869Y-69301813D01*
X151231112Y-69425703D01*
X151148218Y-69556124D01*
X151091356Y-69702315D01*
X151059687Y-69847088D01*
X151051869Y-70009860D01*
X151077938Y-70173440D01*
X151135245Y-70332298D01*
X151221144Y-70480906D01*
X151332986Y-70613735D01*
X151468123Y-70725256D01*
X151485883Y-70737011D01*
X151542150Y-70775508D01*
X151584923Y-70808863D01*
X151605372Y-70830160D01*
X151605669Y-70830833D01*
X151601279Y-70853871D01*
X151583876Y-70906157D01*
X151555268Y-70983390D01*
X151517265Y-71081268D01*
X151471674Y-71195491D01*
X151420303Y-71321758D01*
X151364962Y-71455767D01*
X151307458Y-71593218D01*
X151249601Y-71729808D01*
X151193198Y-71861237D01*
X151140058Y-71983205D01*
X151091990Y-72091409D01*
X151050801Y-72181549D01*
X151018301Y-72249323D01*
X150996297Y-72290430D01*
X150987436Y-72301226D01*
X150960360Y-72292819D01*
X150909697Y-72270272D01*
X150844183Y-72237613D01*
X150808159Y-72218520D01*
X150655168Y-72135800D01*
X150472912Y-72259075D01*
X150379875Y-72322228D01*
X150278015Y-72391727D01*
X150182562Y-72457165D01*
X150134750Y-72490117D01*
X150067505Y-72535273D01*
X150010564Y-72571057D01*
X149971354Y-72592938D01*
X149958619Y-72597563D01*
X149940083Y-72585085D01*
X149899059Y-72550252D01*
X149839525Y-72496678D01*
X149765458Y-72427983D01*
X149680835Y-72347781D01*
X149627315Y-72296286D01*
X149533681Y-72204286D01*
X149452759Y-72121999D01*
X149387823Y-72052945D01*
X149342142Y-72000644D01*
X149318989Y-71968616D01*
X149316768Y-71962116D01*
X149327076Y-71937394D01*
X149355561Y-71887405D01*
X149399063Y-71817212D01*
X149454423Y-71731875D01*
X149518480Y-71636456D01*
X149536697Y-71609854D01*
X149603073Y-71513167D01*
X149662622Y-71426117D01*
X149712016Y-71353595D01*
X149747925Y-71300493D01*
X149767019Y-71271703D01*
X149768864Y-71268726D01*
X149766105Y-71245782D01*
X149751462Y-71195336D01*
X149727487Y-71124041D01*
X149696734Y-71038547D01*
X149661756Y-70945507D01*
X149625107Y-70851574D01*
X149589339Y-70763399D01*
X149557006Y-70687634D01*
X149530662Y-70630931D01*
X149512858Y-70599943D01*
X149511593Y-70598457D01*
X149500706Y-70589601D01*
X149482318Y-70580843D01*
X149452394Y-70571277D01*
X149406897Y-70559996D01*
X149341791Y-70546093D01*
X149253039Y-70528663D01*
X149136607Y-70506798D01*
X148988458Y-70479591D01*
X148956382Y-70473741D01*
X148861314Y-70455374D01*
X148778435Y-70437405D01*
X148715070Y-70421569D01*
X148678542Y-70409600D01*
X148673644Y-70406810D01*
X148665573Y-70382072D01*
X148659013Y-70326790D01*
X148653967Y-70247389D01*
X148650441Y-70150296D01*
X148648439Y-70041938D01*
X148647964Y-69928740D01*
X148649023Y-69817128D01*
X148651618Y-69713529D01*
X148655754Y-69624368D01*
X148661437Y-69556072D01*
X148668669Y-69515066D01*
X148673029Y-69506674D01*
X148697302Y-69498208D01*
X148752574Y-69484435D01*
X148833338Y-69466550D01*
X148934088Y-69445748D01*
X149049317Y-69423223D01*
X149112098Y-69411418D01*
X149231213Y-69389151D01*
X149337435Y-69368979D01*
X149425573Y-69351915D01*
X149490434Y-69338969D01*
X149526826Y-69331155D01*
X149532816Y-69329422D01*
X149542939Y-69309890D01*
X149564338Y-69262843D01*
X149594161Y-69195003D01*
X149629555Y-69113091D01*
X149667668Y-69023828D01*
X149705647Y-68933935D01*
X149740640Y-68850135D01*
X149769794Y-68779147D01*
X149790257Y-68727694D01*
X149799177Y-68702497D01*
X149799343Y-68701396D01*
X149789231Y-68681519D01*
X149760883Y-68635777D01*
X149717277Y-68568717D01*
X149661394Y-68484884D01*
X149596213Y-68388826D01*
X149558321Y-68333650D01*
X149489275Y-68232481D01*
X149427950Y-68140630D01*
X149377337Y-68062744D01*
X149340429Y-68003469D01*
X149320218Y-67967451D01*
X149317299Y-67959377D01*
X149329847Y-67940584D01*
X149364537Y-67900457D01*
X149416937Y-67843493D01*
X149482616Y-67774185D01*
X149557144Y-67697031D01*
X149636087Y-67616525D01*
X149715017Y-67537163D01*
X149789500Y-67463440D01*
X149855106Y-67399852D01*
X149907404Y-67350894D01*
X149941961Y-67321061D01*
X149953522Y-67313942D01*
X149972346Y-67323953D01*
X150017369Y-67352078D01*
X150084213Y-67395454D01*
X150168501Y-67451218D01*
X150265856Y-67516506D01*
X150339293Y-67566246D01*
X150710333Y-67818551D01*
X151328905Y-67563555D01*
X151412725Y-67118931D01*
X151496546Y-66674307D01*
X152421994Y-66674307D01*
X152505814Y-67118931D01*
G37*
X152505814Y-67118931D02*
X152589635Y-67563555D01*
X152898920Y-67691053D01*
X153208206Y-67818551D01*
X153579246Y-67566246D01*
X153683157Y-67495996D01*
X153777087Y-67433272D01*
X153856652Y-67380938D01*
X153917470Y-67341857D01*
X153955157Y-67318893D01*
X153965421Y-67313942D01*
X153983910Y-67326676D01*
X154023420Y-67361882D01*
X154079522Y-67415062D01*
X154147787Y-67481718D01*
X154223786Y-67557354D01*
X154303092Y-67637472D01*
X154381275Y-67717574D01*
X154453907Y-67793164D01*
X154516559Y-67859745D01*
X154564803Y-67912818D01*
X154594210Y-67947887D01*
X154601241Y-67959623D01*
X154591123Y-67981260D01*
X154562759Y-68028662D01*
X154519129Y-68097193D01*
X154463218Y-68182215D01*
X154398006Y-68279093D01*
X154360219Y-68334350D01*
X154291343Y-68435248D01*
X154230140Y-68526299D01*
X154179578Y-68602970D01*
X154142628Y-68660728D01*
X154122258Y-68695043D01*
X154119197Y-68702254D01*
X154126136Y-68722748D01*
X154145051Y-68770513D01*
X154173087Y-68838832D01*
X154207391Y-68920989D01*
X154245109Y-69010270D01*
X154283387Y-69099958D01*
X154319370Y-69183338D01*
X154350206Y-69253694D01*
X154373039Y-69304310D01*
X154385017Y-69328471D01*
X154385724Y-69329422D01*
X154404531Y-69334036D01*
X154454618Y-69344328D01*
X154530793Y-69359287D01*
X154627865Y-69377901D01*
X154740643Y-69399159D01*
X154806442Y-69411418D01*
X154926950Y-69434362D01*
X155035797Y-69456195D01*
X155127476Y-69475722D01*
X155196481Y-69491748D01*
X155237304Y-69503079D01*
X155245511Y-69506674D01*
X155253548Y-69531006D01*
X155260033Y-69585959D01*
X155264970Y-69665108D01*
X155268364Y-69762026D01*
X155270218Y-69870287D01*
X155270538Y-69983465D01*
X155269327Y-70095135D01*
X155266590Y-70198868D01*
X155262331Y-70288241D01*
X155256555Y-70356826D01*
X155249267Y-70398197D01*
X155244895Y-70406810D01*
X155218764Y-70417133D01*
X155163393Y-70431892D01*
X155086107Y-70449352D01*
X154994230Y-70467780D01*
X154962158Y-70473741D01*
X154807524Y-70502066D01*
X154685375Y-70524876D01*
X154591673Y-70543080D01*
X154522384Y-70557583D01*
X154473471Y-70569292D01*
X154440897Y-70579115D01*
X154420628Y-70587956D01*
X154408626Y-70596724D01*
X154406947Y-70598457D01*
X154390184Y-70626371D01*
X154364614Y-70680695D01*
X154332788Y-70754777D01*
X154297260Y-70841965D01*
X154260583Y-70935608D01*
X154225311Y-71029052D01*
X154193996Y-71115647D01*
X154169193Y-71188740D01*
X154153454Y-71241678D01*
X154149332Y-71267811D01*
X154149676Y-71268726D01*
X154163641Y-71290086D01*
X154195322Y-71337084D01*
X154241391Y-71404827D01*
X154298518Y-71488423D01*
X154363373Y-71582982D01*
X154381843Y-71609854D01*
X154447699Y-71707275D01*
X154505650Y-71796163D01*
X154552538Y-71871412D01*
X154585207Y-71927920D01*
X154600500Y-71960581D01*
X154601241Y-71964593D01*
X154588392Y-71985684D01*
X154552888Y-72027464D01*
X154499293Y-72085445D01*
X154432171Y-72155135D01*
X154356087Y-72232045D01*
X154275604Y-72311683D01*
X154195287Y-72389561D01*
X154119699Y-72461186D01*
X154053405Y-72522070D01*
X154000969Y-72567721D01*
X153966955Y-72593650D01*
X153957545Y-72597883D01*
X153935643Y-72587912D01*
X153890800Y-72561020D01*
X153830321Y-72521736D01*
X153783789Y-72490117D01*
X153699475Y-72432098D01*
X153599626Y-72363784D01*
X153499473Y-72295579D01*
X153445627Y-72259075D01*
X153263371Y-72135800D01*
X153110381Y-72218520D01*
X153040682Y-72254759D01*
X152981414Y-72282926D01*
X152941311Y-72298991D01*
X152931103Y-72301226D01*
X152918829Y-72284722D01*
X152894613Y-72238082D01*
X152860263Y-72165609D01*
X152817588Y-72071606D01*
X152768394Y-71960374D01*
X152714490Y-71836215D01*
X152657684Y-71703432D01*
X152599782Y-71566327D01*
X152542593Y-71429202D01*
X152487924Y-71296358D01*
X152437584Y-71172098D01*
X152393380Y-71060725D01*
X152357119Y-70966539D01*
X152330609Y-70893844D01*
X152315658Y-70846941D01*
X152313254Y-70830833D01*
X152332311Y-70810286D01*
X152374036Y-70776933D01*
X152429706Y-70737702D01*
X152434378Y-70734599D01*
X152578264Y-70619423D01*
X152694283Y-70485053D01*
X152781430Y-70335784D01*
X152838699Y-70175913D01*
X152865086Y-70009737D01*
X152859585Y-69841552D01*
X152821190Y-69675655D01*
X152748895Y-69516342D01*
X152727626Y-69481487D01*
X152616996Y-69340737D01*
X152486302Y-69227714D01*
X152340064Y-69143003D01*
X152182808Y-69087194D01*
X152019057Y-69060874D01*
X151853333Y-69064630D01*
X151690162Y-69099050D01*
X151534065Y-69164723D01*
X151389567Y-69262235D01*
X151344869Y-69301813D01*
X151231112Y-69425703D01*
X151148218Y-69556124D01*
X151091356Y-69702315D01*
X151059687Y-69847088D01*
X151051869Y-70009860D01*
X151077938Y-70173440D01*
X151135245Y-70332298D01*
X151221144Y-70480906D01*
X151332986Y-70613735D01*
X151468123Y-70725256D01*
X151485883Y-70737011D01*
X151542150Y-70775508D01*
X151584923Y-70808863D01*
X151605372Y-70830160D01*
X151605669Y-70830833D01*
X151601279Y-70853871D01*
X151583876Y-70906157D01*
X151555268Y-70983390D01*
X151517265Y-71081268D01*
X151471674Y-71195491D01*
X151420303Y-71321758D01*
X151364962Y-71455767D01*
X151307458Y-71593218D01*
X151249601Y-71729808D01*
X151193198Y-71861237D01*
X151140058Y-71983205D01*
X151091990Y-72091409D01*
X151050801Y-72181549D01*
X151018301Y-72249323D01*
X150996297Y-72290430D01*
X150987436Y-72301226D01*
X150960360Y-72292819D01*
X150909697Y-72270272D01*
X150844183Y-72237613D01*
X150808159Y-72218520D01*
X150655168Y-72135800D01*
X150472912Y-72259075D01*
X150379875Y-72322228D01*
X150278015Y-72391727D01*
X150182562Y-72457165D01*
X150134750Y-72490117D01*
X150067505Y-72535273D01*
X150010564Y-72571057D01*
X149971354Y-72592938D01*
X149958619Y-72597563D01*
X149940083Y-72585085D01*
X149899059Y-72550252D01*
X149839525Y-72496678D01*
X149765458Y-72427983D01*
X149680835Y-72347781D01*
X149627315Y-72296286D01*
X149533681Y-72204286D01*
X149452759Y-72121999D01*
X149387823Y-72052945D01*
X149342142Y-72000644D01*
X149318989Y-71968616D01*
X149316768Y-71962116D01*
X149327076Y-71937394D01*
X149355561Y-71887405D01*
X149399063Y-71817212D01*
X149454423Y-71731875D01*
X149518480Y-71636456D01*
X149536697Y-71609854D01*
X149603073Y-71513167D01*
X149662622Y-71426117D01*
X149712016Y-71353595D01*
X149747925Y-71300493D01*
X149767019Y-71271703D01*
X149768864Y-71268726D01*
X149766105Y-71245782D01*
X149751462Y-71195336D01*
X149727487Y-71124041D01*
X149696734Y-71038547D01*
X149661756Y-70945507D01*
X149625107Y-70851574D01*
X149589339Y-70763399D01*
X149557006Y-70687634D01*
X149530662Y-70630931D01*
X149512858Y-70599943D01*
X149511593Y-70598457D01*
X149500706Y-70589601D01*
X149482318Y-70580843D01*
X149452394Y-70571277D01*
X149406897Y-70559996D01*
X149341791Y-70546093D01*
X149253039Y-70528663D01*
X149136607Y-70506798D01*
X148988458Y-70479591D01*
X148956382Y-70473741D01*
X148861314Y-70455374D01*
X148778435Y-70437405D01*
X148715070Y-70421569D01*
X148678542Y-70409600D01*
X148673644Y-70406810D01*
X148665573Y-70382072D01*
X148659013Y-70326790D01*
X148653967Y-70247389D01*
X148650441Y-70150296D01*
X148648439Y-70041938D01*
X148647964Y-69928740D01*
X148649023Y-69817128D01*
X148651618Y-69713529D01*
X148655754Y-69624368D01*
X148661437Y-69556072D01*
X148668669Y-69515066D01*
X148673029Y-69506674D01*
X148697302Y-69498208D01*
X148752574Y-69484435D01*
X148833338Y-69466550D01*
X148934088Y-69445748D01*
X149049317Y-69423223D01*
X149112098Y-69411418D01*
X149231213Y-69389151D01*
X149337435Y-69368979D01*
X149425573Y-69351915D01*
X149490434Y-69338969D01*
X149526826Y-69331155D01*
X149532816Y-69329422D01*
X149542939Y-69309890D01*
X149564338Y-69262843D01*
X149594161Y-69195003D01*
X149629555Y-69113091D01*
X149667668Y-69023828D01*
X149705647Y-68933935D01*
X149740640Y-68850135D01*
X149769794Y-68779147D01*
X149790257Y-68727694D01*
X149799177Y-68702497D01*
X149799343Y-68701396D01*
X149789231Y-68681519D01*
X149760883Y-68635777D01*
X149717277Y-68568717D01*
X149661394Y-68484884D01*
X149596213Y-68388826D01*
X149558321Y-68333650D01*
X149489275Y-68232481D01*
X149427950Y-68140630D01*
X149377337Y-68062744D01*
X149340429Y-68003469D01*
X149320218Y-67967451D01*
X149317299Y-67959377D01*
X149329847Y-67940584D01*
X149364537Y-67900457D01*
X149416937Y-67843493D01*
X149482616Y-67774185D01*
X149557144Y-67697031D01*
X149636087Y-67616525D01*
X149715017Y-67537163D01*
X149789500Y-67463440D01*
X149855106Y-67399852D01*
X149907404Y-67350894D01*
X149941961Y-67321061D01*
X149953522Y-67313942D01*
X149972346Y-67323953D01*
X150017369Y-67352078D01*
X150084213Y-67395454D01*
X150168501Y-67451218D01*
X150265856Y-67516506D01*
X150339293Y-67566246D01*
X150710333Y-67818551D01*
X151328905Y-67563555D01*
X151412725Y-67118931D01*
X151496546Y-66674307D01*
X152421994Y-66674307D01*
X152505814Y-67118931D01*
G36*
X146003600Y-58539054D02*
G01*
X146014465Y-58652993D01*
X146046082Y-58760616D01*
X146096985Y-58859615D01*
X146165707Y-58947684D01*
X146250781Y-59022516D01*
X146347768Y-59080384D01*
X146454036Y-59120005D01*
X146561050Y-59138573D01*
X146666700Y-59137434D01*
X146768875Y-59117930D01*
X146865466Y-59081406D01*
X146954362Y-59029205D01*
X147033454Y-58962673D01*
X147100631Y-58883152D01*
X147153783Y-58791987D01*
X147190801Y-58690523D01*
X147209573Y-58580102D01*
X147211511Y-58530206D01*
X147211511Y-58442267D01*
X147263440Y-58442267D01*
X147299747Y-58445111D01*
X147326645Y-58456911D01*
X147353751Y-58480649D01*
X147392133Y-58519031D01*
X147392133Y-60710602D01*
X147392124Y-60972739D01*
X147392092Y-61213241D01*
X147392028Y-61433048D01*
X147391924Y-61633101D01*
X147391773Y-61814344D01*
X147391566Y-61977716D01*
X147391294Y-62124160D01*
X147390950Y-62254617D01*
X147390526Y-62370029D01*
X147390013Y-62471338D01*
X147389403Y-62559484D01*
X147388688Y-62635410D01*
X147387860Y-62700057D01*
X147386911Y-62754367D01*
X147385833Y-62799280D01*
X147384617Y-62835740D01*
X147383255Y-62864687D01*
X147381739Y-62887063D01*
X147380062Y-62903809D01*
X147378214Y-62915868D01*
X147376187Y-62924180D01*
X147373975Y-62929687D01*
X147372892Y-62931537D01*
X147368729Y-62938549D01*
X147365195Y-62944996D01*
X147361365Y-62950900D01*
X147356318Y-62956286D01*
X147349129Y-62961178D01*
X147338877Y-62965598D01*
X147324636Y-62969572D01*
X147305486Y-62973121D01*
X147280501Y-62976270D01*
X147248760Y-62979042D01*
X147209338Y-62981461D01*
X147161314Y-62983551D01*
X147103763Y-62985335D01*
X147035763Y-62986837D01*
X146956390Y-62988080D01*
X146864721Y-62989089D01*
X146759834Y-62989885D01*
X146640804Y-62990494D01*
X146506710Y-62990939D01*
X146356627Y-62991243D01*
X146189633Y-62991430D01*
X146004804Y-62991524D01*
X145801217Y-62991548D01*
X145577950Y-62991525D01*
X145334078Y-62991480D01*
X145068679Y-62991437D01*
X145030296Y-62991432D01*
X144763318Y-62991389D01*
X144517998Y-62991318D01*
X144293417Y-62991213D01*
X144088655Y-62991066D01*
X143902794Y-62990869D01*
X143734912Y-62990616D01*
X143584092Y-62990300D01*
X143449413Y-62989913D01*
X143329956Y-62989447D01*
X143224801Y-62988897D01*
X143133029Y-62988253D01*
X143053721Y-62987511D01*
X142985957Y-62986661D01*
X142928818Y-62985697D01*
X142881383Y-62984611D01*
X142842734Y-62983397D01*
X142811951Y-62982047D01*
X142788115Y-62980555D01*
X142770306Y-62978911D01*
X142757605Y-62977111D01*
X142749092Y-62975145D01*
X142744734Y-62973477D01*
X142736272Y-62969906D01*
X142728503Y-62967270D01*
X142721398Y-62964634D01*
X142714927Y-62961062D01*
X142709061Y-62955621D01*
X142703771Y-62947375D01*
X142699026Y-62935390D01*
X142694798Y-62918731D01*
X142691057Y-62896463D01*
X142687773Y-62867652D01*
X142684917Y-62831363D01*
X142682460Y-62786661D01*
X142680371Y-62732611D01*
X142678622Y-62668279D01*
X142677183Y-62592730D01*
X142676024Y-62505030D01*
X142675117Y-62404243D01*
X142674431Y-62289434D01*
X142673937Y-62159670D01*
X142673605Y-62014015D01*
X142673407Y-61851535D01*
X142673313Y-61671295D01*
X142673292Y-61472360D01*
X142673315Y-61253796D01*
X142673354Y-61014668D01*
X142673378Y-60754040D01*
X142673378Y-60711889D01*
X142673364Y-60448992D01*
X142673339Y-60207732D01*
X142673329Y-59987165D01*
X142673358Y-59786352D01*
X142673452Y-59604349D01*
X142673638Y-59440216D01*
X142673941Y-59293011D01*
X142674386Y-59161792D01*
X142674966Y-59051867D01*
X142977803Y-59051867D01*
X143017593Y-59109711D01*
X143028764Y-59125479D01*
X143038834Y-59139441D01*
X143047862Y-59152784D01*
X143055903Y-59166693D01*
X143063014Y-59182356D01*
X143069253Y-59200958D01*
X143074675Y-59223686D01*
X143079338Y-59251727D01*
X143083299Y-59286267D01*
X143086615Y-59328492D01*
X143089341Y-59379589D01*
X143091536Y-59440744D01*
X143093255Y-59513144D01*
X143094556Y-59597975D01*
X143095495Y-59696422D01*
X143096130Y-59809674D01*
X143096516Y-59938916D01*
X143096712Y-60085334D01*
X143096773Y-60250116D01*
X143096757Y-60434447D01*
X143096720Y-60639513D01*
X143096711Y-60762133D01*
X143096735Y-60979082D01*
X143096769Y-61174642D01*
X143096757Y-61349999D01*
X143096642Y-61506341D01*
X143096370Y-61644857D01*
X143095882Y-61766734D01*
X143095124Y-61873160D01*
X143094038Y-61965322D01*
X143092569Y-62044409D01*
X143090660Y-62111608D01*
X143088256Y-62168107D01*
X143085299Y-62215093D01*
X143081734Y-62253755D01*
X143077505Y-62285280D01*
X143072554Y-62310855D01*
X143066827Y-62331670D01*
X143060267Y-62348911D01*
X143052817Y-62363765D01*
X143044421Y-62377422D01*
X143035024Y-62391069D01*
X143024568Y-62405893D01*
X143018477Y-62414783D01*
X142979704Y-62472400D01*
X143511268Y-62472400D01*
X143634517Y-62472365D01*
X143737013Y-62472215D01*
X143820580Y-62471878D01*
X143887044Y-62471286D01*
X143938229Y-62470367D01*
X143975959Y-62469051D01*
X144002060Y-62467269D01*
X144018356Y-62464951D01*
X144026672Y-62462026D01*
X144028832Y-62458424D01*
X144026661Y-62454075D01*
X144025465Y-62452645D01*
X144000315Y-62415573D01*
X143974417Y-62362772D01*
X143950808Y-62300770D01*
X143942539Y-62274357D01*
X143937922Y-62256416D01*
X143934021Y-62235355D01*
X143930752Y-62209089D01*
X143928034Y-62175532D01*
X143925785Y-62132599D01*
X143923923Y-62078204D01*
X143922364Y-62010262D01*
X143921028Y-61926688D01*
X143919831Y-61825395D01*
X143918692Y-61704300D01*
X143918315Y-61659600D01*
X143917298Y-61534449D01*
X143916540Y-61430082D01*
X143916097Y-61344707D01*
X143916030Y-61276533D01*
X143916395Y-61223765D01*
X143917252Y-61184614D01*
X143918659Y-61157285D01*
X143920675Y-61139986D01*
X143923357Y-61130926D01*
X143926764Y-61128312D01*
X143930956Y-61130351D01*
X143935429Y-61134667D01*
X143945784Y-61147602D01*
X143967842Y-61176676D01*
X144000043Y-61219759D01*
X144040826Y-61274718D01*
X144088630Y-61339423D01*
X144141895Y-61411742D01*
X144199060Y-61489544D01*
X144258563Y-61570698D01*
X144318845Y-61653072D01*
X144378345Y-61734536D01*
X144435502Y-61812957D01*
X144488755Y-61886204D01*
X144536543Y-61952147D01*
X144577307Y-62008654D01*
X144609484Y-62053593D01*
X144631515Y-62084834D01*
X144636083Y-62091466D01*
X144659004Y-62128369D01*
X144685812Y-62176359D01*
X144711211Y-62225897D01*
X144714432Y-62232577D01*
X144736110Y-62280772D01*
X144748696Y-62318334D01*
X144754426Y-62354160D01*
X144755544Y-62396200D01*
X144754910Y-62472400D01*
X145909349Y-62472400D01*
X145818185Y-62378669D01*
X145771388Y-62328775D01*
X145721101Y-62272295D01*
X145675056Y-62218026D01*
X145654631Y-62192673D01*
X145624193Y-62153128D01*
X145584138Y-62099916D01*
X145535639Y-62034667D01*
X145479865Y-61959011D01*
X145417989Y-61874577D01*
X145351181Y-61782994D01*
X145280613Y-61685892D01*
X145207455Y-61584901D01*
X145132879Y-61481650D01*
X145058056Y-61377768D01*
X144984157Y-61274885D01*
X144912354Y-61174631D01*
X144843816Y-61078636D01*
X144779716Y-60988527D01*
X144721225Y-60905936D01*
X144669514Y-60832492D01*
X144625753Y-60769824D01*
X144591115Y-60719561D01*
X144566770Y-60683334D01*
X144553889Y-60662771D01*
X144552131Y-60658668D01*
X144560090Y-60647342D01*
X144580885Y-60620162D01*
X144613153Y-60578829D01*
X144655530Y-60525044D01*
X144706653Y-60460506D01*
X144765159Y-60386918D01*
X144829686Y-60305978D01*
X144898869Y-60219388D01*
X144971347Y-60128848D01*
X145045754Y-60036060D01*
X145105483Y-59961702D01*
X146116489Y-59961702D01*
X146122398Y-59974659D01*
X146136728Y-59996908D01*
X146137775Y-59998391D01*
X146156562Y-60028544D01*
X146176209Y-60065375D01*
X146180108Y-60073511D01*
X146183644Y-60081940D01*
X146186770Y-60092059D01*
X146189514Y-60105260D01*
X146191908Y-60122938D01*
X146193981Y-60146484D01*
X146195765Y-60177293D01*
X146197288Y-60216757D01*
X146198581Y-60266269D01*
X146199674Y-60327223D01*
X146200597Y-60401011D01*
X146201381Y-60489028D01*
X146202055Y-60592665D01*
X146202650Y-60713316D01*
X146203195Y-60852374D01*
X146203721Y-61011232D01*
X146204255Y-61190089D01*
X146204794Y-61375207D01*
X146205228Y-61539145D01*
X146205491Y-61683303D01*
X146205516Y-61809079D01*
X146205235Y-61917871D01*
X146204581Y-62011077D01*
X146203486Y-62090097D01*
X146201882Y-62156328D01*
X146199703Y-62211170D01*
X146196881Y-62256021D01*
X146193349Y-62292278D01*
X146189039Y-62321341D01*
X146183883Y-62344609D01*
X146177815Y-62363479D01*
X146170767Y-62379351D01*
X146162671Y-62393622D01*
X146153460Y-62407691D01*
X146144960Y-62420158D01*
X146127824Y-62446452D01*
X146117678Y-62464037D01*
X146116489Y-62467257D01*
X146127396Y-62468334D01*
X146158589Y-62469335D01*
X146207777Y-62470235D01*
X146272667Y-62471010D01*
X146350970Y-62471637D01*
X146440393Y-62472091D01*
X146538644Y-62472349D01*
X146607555Y-62472400D01*
X146712548Y-62472180D01*
X146809390Y-62471548D01*
X146895893Y-62470549D01*
X146969868Y-62469227D01*
X147029126Y-62467626D01*
X147071480Y-62465791D01*
X147094740Y-62463765D01*
X147098622Y-62462493D01*
X147090924Y-62447591D01*
X147082926Y-62439560D01*
X147069754Y-62422434D01*
X147052515Y-62392183D01*
X147040593Y-62367622D01*
X147013955Y-62308711D01*
X147010880Y-61131845D01*
X147007805Y-59954978D01*
X146562147Y-59954978D01*
X146464330Y-59955142D01*
X146373936Y-59955611D01*
X146293370Y-59956347D01*
X146225038Y-59957316D01*
X146171344Y-59958480D01*
X146134695Y-59959803D01*
X146117496Y-59961249D01*
X146116489Y-59961702D01*
X145105483Y-59961702D01*
X145120730Y-59942722D01*
X145194910Y-59850537D01*
X145266931Y-59761204D01*
X145335431Y-59676424D01*
X145399045Y-59597898D01*
X145456412Y-59527326D01*
X145506167Y-59466409D01*
X145546948Y-59416847D01*
X145564112Y-59396178D01*
X145650404Y-59295516D01*
X145727003Y-59212259D01*
X145795817Y-59144438D01*
X145858752Y-59090089D01*
X145868133Y-59082722D01*
X145907644Y-59052117D01*
X144775884Y-59051867D01*
X144781173Y-59099844D01*
X144777870Y-59157188D01*
X144756339Y-59225463D01*
X144716365Y-59305212D01*
X144671057Y-59377495D01*
X144654839Y-59400140D01*
X144626786Y-59437696D01*
X144588570Y-59488021D01*
X144541863Y-59548973D01*
X144488339Y-59618411D01*
X144429669Y-59694194D01*
X144367525Y-59774180D01*
X144303579Y-59856228D01*
X144239505Y-59938196D01*
X144176973Y-60017943D01*
X144117657Y-60093327D01*
X144063229Y-60162207D01*
X144015361Y-60222442D01*
X143975725Y-60271889D01*
X143945994Y-60308408D01*
X143927839Y-60329858D01*
X143924780Y-60333156D01*
X143921921Y-60325149D01*
X143919707Y-60294855D01*
X143918143Y-60242556D01*
X143917233Y-60168531D01*
X143916980Y-60073063D01*
X143917387Y-59956434D01*
X143918296Y-59836445D01*
X143919618Y-59704333D01*
X143921143Y-59592594D01*
X143923119Y-59499025D01*
X143925794Y-59421419D01*
X143929418Y-59357574D01*
X143934239Y-59305283D01*
X143940506Y-59262344D01*
X143948468Y-59226551D01*
X143958373Y-59195700D01*
X143970469Y-59167586D01*
X143985007Y-59140005D01*
X143999689Y-59114966D01*
X144037686Y-59051867D01*
X142977803Y-59051867D01*
X142674966Y-59051867D01*
X142674999Y-59045617D01*
X142675805Y-58943544D01*
X142676830Y-58854633D01*
X142678100Y-58777941D01*
X142679640Y-58712527D01*
X142681476Y-58657449D01*
X142683633Y-58611765D01*
X142686137Y-58574534D01*
X142689013Y-58544813D01*
X142692287Y-58521662D01*
X142695985Y-58504139D01*
X142700131Y-58491301D01*
X142704753Y-58482208D01*
X142709874Y-58475918D01*
X142715522Y-58471488D01*
X142721721Y-58467978D01*
X142728496Y-58464445D01*
X142734492Y-58460876D01*
X142739725Y-58458300D01*
X142747901Y-58455972D01*
X142760114Y-58453878D01*
X142777459Y-58452007D01*
X142801031Y-58450347D01*
X142831923Y-58448884D01*
X142871232Y-58447608D01*
X142920050Y-58446504D01*
X142979473Y-58445561D01*
X143050596Y-58444767D01*
X143134512Y-58444109D01*
X143232317Y-58443575D01*
X143345106Y-58443153D01*
X143473971Y-58442829D01*
X143620009Y-58442592D01*
X143784314Y-58442430D01*
X143967980Y-58442330D01*
X144172103Y-58442280D01*
X144383247Y-58442267D01*
X146003600Y-58442267D01*
X146003600Y-58539054D01*
G37*
X146003600Y-58539054D02*
X146014465Y-58652993D01*
X146046082Y-58760616D01*
X146096985Y-58859615D01*
X146165707Y-58947684D01*
X146250781Y-59022516D01*
X146347768Y-59080384D01*
X146454036Y-59120005D01*
X146561050Y-59138573D01*
X146666700Y-59137434D01*
X146768875Y-59117930D01*
X146865466Y-59081406D01*
X146954362Y-59029205D01*
X147033454Y-58962673D01*
X147100631Y-58883152D01*
X147153783Y-58791987D01*
X147190801Y-58690523D01*
X147209573Y-58580102D01*
X147211511Y-58530206D01*
X147211511Y-58442267D01*
X147263440Y-58442267D01*
X147299747Y-58445111D01*
X147326645Y-58456911D01*
X147353751Y-58480649D01*
X147392133Y-58519031D01*
X147392133Y-60710602D01*
X147392124Y-60972739D01*
X147392092Y-61213241D01*
X147392028Y-61433048D01*
X147391924Y-61633101D01*
X147391773Y-61814344D01*
X147391566Y-61977716D01*
X147391294Y-62124160D01*
X147390950Y-62254617D01*
X147390526Y-62370029D01*
X147390013Y-62471338D01*
X147389403Y-62559484D01*
X147388688Y-62635410D01*
X147387860Y-62700057D01*
X147386911Y-62754367D01*
X147385833Y-62799280D01*
X147384617Y-62835740D01*
X147383255Y-62864687D01*
X147381739Y-62887063D01*
X147380062Y-62903809D01*
X147378214Y-62915868D01*
X147376187Y-62924180D01*
X147373975Y-62929687D01*
X147372892Y-62931537D01*
X147368729Y-62938549D01*
X147365195Y-62944996D01*
X147361365Y-62950900D01*
X147356318Y-62956286D01*
X147349129Y-62961178D01*
X147338877Y-62965598D01*
X147324636Y-62969572D01*
X147305486Y-62973121D01*
X147280501Y-62976270D01*
X147248760Y-62979042D01*
X147209338Y-62981461D01*
X147161314Y-62983551D01*
X147103763Y-62985335D01*
X147035763Y-62986837D01*
X146956390Y-62988080D01*
X146864721Y-62989089D01*
X146759834Y-62989885D01*
X146640804Y-62990494D01*
X146506710Y-62990939D01*
X146356627Y-62991243D01*
X146189633Y-62991430D01*
X146004804Y-62991524D01*
X145801217Y-62991548D01*
X145577950Y-62991525D01*
X145334078Y-62991480D01*
X145068679Y-62991437D01*
X145030296Y-62991432D01*
X144763318Y-62991389D01*
X144517998Y-62991318D01*
X144293417Y-62991213D01*
X144088655Y-62991066D01*
X143902794Y-62990869D01*
X143734912Y-62990616D01*
X143584092Y-62990300D01*
X143449413Y-62989913D01*
X143329956Y-62989447D01*
X143224801Y-62988897D01*
X143133029Y-62988253D01*
X143053721Y-62987511D01*
X142985957Y-62986661D01*
X142928818Y-62985697D01*
X142881383Y-62984611D01*
X142842734Y-62983397D01*
X142811951Y-62982047D01*
X142788115Y-62980555D01*
X142770306Y-62978911D01*
X142757605Y-62977111D01*
X142749092Y-62975145D01*
X142744734Y-62973477D01*
X142736272Y-62969906D01*
X142728503Y-62967270D01*
X142721398Y-62964634D01*
X142714927Y-62961062D01*
X142709061Y-62955621D01*
X142703771Y-62947375D01*
X142699026Y-62935390D01*
X142694798Y-62918731D01*
X142691057Y-62896463D01*
X142687773Y-62867652D01*
X142684917Y-62831363D01*
X142682460Y-62786661D01*
X142680371Y-62732611D01*
X142678622Y-62668279D01*
X142677183Y-62592730D01*
X142676024Y-62505030D01*
X142675117Y-62404243D01*
X142674431Y-62289434D01*
X142673937Y-62159670D01*
X142673605Y-62014015D01*
X142673407Y-61851535D01*
X142673313Y-61671295D01*
X142673292Y-61472360D01*
X142673315Y-61253796D01*
X142673354Y-61014668D01*
X142673378Y-60754040D01*
X142673378Y-60711889D01*
X142673364Y-60448992D01*
X142673339Y-60207732D01*
X142673329Y-59987165D01*
X142673358Y-59786352D01*
X142673452Y-59604349D01*
X142673638Y-59440216D01*
X142673941Y-59293011D01*
X142674386Y-59161792D01*
X142674966Y-59051867D01*
X142977803Y-59051867D01*
X143017593Y-59109711D01*
X143028764Y-59125479D01*
X143038834Y-59139441D01*
X143047862Y-59152784D01*
X143055903Y-59166693D01*
X143063014Y-59182356D01*
X143069253Y-59200958D01*
X143074675Y-59223686D01*
X143079338Y-59251727D01*
X143083299Y-59286267D01*
X143086615Y-59328492D01*
X143089341Y-59379589D01*
X143091536Y-59440744D01*
X143093255Y-59513144D01*
X143094556Y-59597975D01*
X143095495Y-59696422D01*
X143096130Y-59809674D01*
X143096516Y-59938916D01*
X143096712Y-60085334D01*
X143096773Y-60250116D01*
X143096757Y-60434447D01*
X143096720Y-60639513D01*
X143096711Y-60762133D01*
X143096735Y-60979082D01*
X143096769Y-61174642D01*
X143096757Y-61349999D01*
X143096642Y-61506341D01*
X143096370Y-61644857D01*
X143095882Y-61766734D01*
X143095124Y-61873160D01*
X143094038Y-61965322D01*
X143092569Y-62044409D01*
X143090660Y-62111608D01*
X143088256Y-62168107D01*
X143085299Y-62215093D01*
X143081734Y-62253755D01*
X143077505Y-62285280D01*
X143072554Y-62310855D01*
X143066827Y-62331670D01*
X143060267Y-62348911D01*
X143052817Y-62363765D01*
X143044421Y-62377422D01*
X143035024Y-62391069D01*
X143024568Y-62405893D01*
X143018477Y-62414783D01*
X142979704Y-62472400D01*
X143511268Y-62472400D01*
X143634517Y-62472365D01*
X143737013Y-62472215D01*
X143820580Y-62471878D01*
X143887044Y-62471286D01*
X143938229Y-62470367D01*
X143975959Y-62469051D01*
X144002060Y-62467269D01*
X144018356Y-62464951D01*
X144026672Y-62462026D01*
X144028832Y-62458424D01*
X144026661Y-62454075D01*
X144025465Y-62452645D01*
X144000315Y-62415573D01*
X143974417Y-62362772D01*
X143950808Y-62300770D01*
X143942539Y-62274357D01*
X143937922Y-62256416D01*
X143934021Y-62235355D01*
X143930752Y-62209089D01*
X143928034Y-62175532D01*
X143925785Y-62132599D01*
X143923923Y-62078204D01*
X143922364Y-62010262D01*
X143921028Y-61926688D01*
X143919831Y-61825395D01*
X143918692Y-61704300D01*
X143918315Y-61659600D01*
X143917298Y-61534449D01*
X143916540Y-61430082D01*
X143916097Y-61344707D01*
X143916030Y-61276533D01*
X143916395Y-61223765D01*
X143917252Y-61184614D01*
X143918659Y-61157285D01*
X143920675Y-61139986D01*
X143923357Y-61130926D01*
X143926764Y-61128312D01*
X143930956Y-61130351D01*
X143935429Y-61134667D01*
X143945784Y-61147602D01*
X143967842Y-61176676D01*
X144000043Y-61219759D01*
X144040826Y-61274718D01*
X144088630Y-61339423D01*
X144141895Y-61411742D01*
X144199060Y-61489544D01*
X144258563Y-61570698D01*
X144318845Y-61653072D01*
X144378345Y-61734536D01*
X144435502Y-61812957D01*
X144488755Y-61886204D01*
X144536543Y-61952147D01*
X144577307Y-62008654D01*
X144609484Y-62053593D01*
X144631515Y-62084834D01*
X144636083Y-62091466D01*
X144659004Y-62128369D01*
X144685812Y-62176359D01*
X144711211Y-62225897D01*
X144714432Y-62232577D01*
X144736110Y-62280772D01*
X144748696Y-62318334D01*
X144754426Y-62354160D01*
X144755544Y-62396200D01*
X144754910Y-62472400D01*
X145909349Y-62472400D01*
X145818185Y-62378669D01*
X145771388Y-62328775D01*
X145721101Y-62272295D01*
X145675056Y-62218026D01*
X145654631Y-62192673D01*
X145624193Y-62153128D01*
X145584138Y-62099916D01*
X145535639Y-62034667D01*
X145479865Y-61959011D01*
X145417989Y-61874577D01*
X145351181Y-61782994D01*
X145280613Y-61685892D01*
X145207455Y-61584901D01*
X145132879Y-61481650D01*
X145058056Y-61377768D01*
X144984157Y-61274885D01*
X144912354Y-61174631D01*
X144843816Y-61078636D01*
X144779716Y-60988527D01*
X144721225Y-60905936D01*
X144669514Y-60832492D01*
X144625753Y-60769824D01*
X144591115Y-60719561D01*
X144566770Y-60683334D01*
X144553889Y-60662771D01*
X144552131Y-60658668D01*
X144560090Y-60647342D01*
X144580885Y-60620162D01*
X144613153Y-60578829D01*
X144655530Y-60525044D01*
X144706653Y-60460506D01*
X144765159Y-60386918D01*
X144829686Y-60305978D01*
X144898869Y-60219388D01*
X144971347Y-60128848D01*
X145045754Y-60036060D01*
X145105483Y-59961702D01*
X146116489Y-59961702D01*
X146122398Y-59974659D01*
X146136728Y-59996908D01*
X146137775Y-59998391D01*
X146156562Y-60028544D01*
X146176209Y-60065375D01*
X146180108Y-60073511D01*
X146183644Y-60081940D01*
X146186770Y-60092059D01*
X146189514Y-60105260D01*
X146191908Y-60122938D01*
X146193981Y-60146484D01*
X146195765Y-60177293D01*
X146197288Y-60216757D01*
X146198581Y-60266269D01*
X146199674Y-60327223D01*
X146200597Y-60401011D01*
X146201381Y-60489028D01*
X146202055Y-60592665D01*
X146202650Y-60713316D01*
X146203195Y-60852374D01*
X146203721Y-61011232D01*
X146204255Y-61190089D01*
X146204794Y-61375207D01*
X146205228Y-61539145D01*
X146205491Y-61683303D01*
X146205516Y-61809079D01*
X146205235Y-61917871D01*
X146204581Y-62011077D01*
X146203486Y-62090097D01*
X146201882Y-62156328D01*
X146199703Y-62211170D01*
X146196881Y-62256021D01*
X146193349Y-62292278D01*
X146189039Y-62321341D01*
X146183883Y-62344609D01*
X146177815Y-62363479D01*
X146170767Y-62379351D01*
X146162671Y-62393622D01*
X146153460Y-62407691D01*
X146144960Y-62420158D01*
X146127824Y-62446452D01*
X146117678Y-62464037D01*
X146116489Y-62467257D01*
X146127396Y-62468334D01*
X146158589Y-62469335D01*
X146207777Y-62470235D01*
X146272667Y-62471010D01*
X146350970Y-62471637D01*
X146440393Y-62472091D01*
X146538644Y-62472349D01*
X146607555Y-62472400D01*
X146712548Y-62472180D01*
X146809390Y-62471548D01*
X146895893Y-62470549D01*
X146969868Y-62469227D01*
X147029126Y-62467626D01*
X147071480Y-62465791D01*
X147094740Y-62463765D01*
X147098622Y-62462493D01*
X147090924Y-62447591D01*
X147082926Y-62439560D01*
X147069754Y-62422434D01*
X147052515Y-62392183D01*
X147040593Y-62367622D01*
X147013955Y-62308711D01*
X147010880Y-61131845D01*
X147007805Y-59954978D01*
X146562147Y-59954978D01*
X146464330Y-59955142D01*
X146373936Y-59955611D01*
X146293370Y-59956347D01*
X146225038Y-59957316D01*
X146171344Y-59958480D01*
X146134695Y-59959803D01*
X146117496Y-59961249D01*
X146116489Y-59961702D01*
X145105483Y-59961702D01*
X145120730Y-59942722D01*
X145194910Y-59850537D01*
X145266931Y-59761204D01*
X145335431Y-59676424D01*
X145399045Y-59597898D01*
X145456412Y-59527326D01*
X145506167Y-59466409D01*
X145546948Y-59416847D01*
X145564112Y-59396178D01*
X145650404Y-59295516D01*
X145727003Y-59212259D01*
X145795817Y-59144438D01*
X145858752Y-59090089D01*
X145868133Y-59082722D01*
X145907644Y-59052117D01*
X144775884Y-59051867D01*
X144781173Y-59099844D01*
X144777870Y-59157188D01*
X144756339Y-59225463D01*
X144716365Y-59305212D01*
X144671057Y-59377495D01*
X144654839Y-59400140D01*
X144626786Y-59437696D01*
X144588570Y-59488021D01*
X144541863Y-59548973D01*
X144488339Y-59618411D01*
X144429669Y-59694194D01*
X144367525Y-59774180D01*
X144303579Y-59856228D01*
X144239505Y-59938196D01*
X144176973Y-60017943D01*
X144117657Y-60093327D01*
X144063229Y-60162207D01*
X144015361Y-60222442D01*
X143975725Y-60271889D01*
X143945994Y-60308408D01*
X143927839Y-60329858D01*
X143924780Y-60333156D01*
X143921921Y-60325149D01*
X143919707Y-60294855D01*
X143918143Y-60242556D01*
X143917233Y-60168531D01*
X143916980Y-60073063D01*
X143917387Y-59956434D01*
X143918296Y-59836445D01*
X143919618Y-59704333D01*
X143921143Y-59592594D01*
X143923119Y-59499025D01*
X143925794Y-59421419D01*
X143929418Y-59357574D01*
X143934239Y-59305283D01*
X143940506Y-59262344D01*
X143948468Y-59226551D01*
X143958373Y-59195700D01*
X143970469Y-59167586D01*
X143985007Y-59140005D01*
X143999689Y-59114966D01*
X144037686Y-59051867D01*
X142977803Y-59051867D01*
X142674966Y-59051867D01*
X142674999Y-59045617D01*
X142675805Y-58943544D01*
X142676830Y-58854633D01*
X142678100Y-58777941D01*
X142679640Y-58712527D01*
X142681476Y-58657449D01*
X142683633Y-58611765D01*
X142686137Y-58574534D01*
X142689013Y-58544813D01*
X142692287Y-58521662D01*
X142695985Y-58504139D01*
X142700131Y-58491301D01*
X142704753Y-58482208D01*
X142709874Y-58475918D01*
X142715522Y-58471488D01*
X142721721Y-58467978D01*
X142728496Y-58464445D01*
X142734492Y-58460876D01*
X142739725Y-58458300D01*
X142747901Y-58455972D01*
X142760114Y-58453878D01*
X142777459Y-58452007D01*
X142801031Y-58450347D01*
X142831923Y-58448884D01*
X142871232Y-58447608D01*
X142920050Y-58446504D01*
X142979473Y-58445561D01*
X143050596Y-58444767D01*
X143134512Y-58444109D01*
X143232317Y-58443575D01*
X143345106Y-58443153D01*
X143473971Y-58442829D01*
X143620009Y-58442592D01*
X143784314Y-58442430D01*
X143967980Y-58442330D01*
X144172103Y-58442280D01*
X144383247Y-58442267D01*
X146003600Y-58442267D01*
X146003600Y-58539054D01*
G36*
X149278429Y-58999071D02*
G01*
X149438570Y-59020245D01*
X149602510Y-59060385D01*
X149772313Y-59119889D01*
X149950043Y-59199154D01*
X149961310Y-59204699D01*
X150019005Y-59232725D01*
X150070552Y-59256802D01*
X150112191Y-59275249D01*
X150140162Y-59286386D01*
X150149733Y-59288933D01*
X150168950Y-59293941D01*
X150173561Y-59298147D01*
X150168458Y-59308580D01*
X150152418Y-59334868D01*
X150127288Y-59374257D01*
X150094914Y-59423991D01*
X150057143Y-59481315D01*
X150015822Y-59543476D01*
X149972798Y-59607718D01*
X149929917Y-59671285D01*
X149889026Y-59731425D01*
X149851971Y-59785380D01*
X149820600Y-59830397D01*
X149796759Y-59863721D01*
X149782294Y-59882597D01*
X149780309Y-59884787D01*
X149770191Y-59880138D01*
X149747850Y-59862962D01*
X149717280Y-59836440D01*
X149701536Y-59821964D01*
X149605047Y-59746682D01*
X149498336Y-59691241D01*
X149382832Y-59656141D01*
X149259962Y-59641880D01*
X149190561Y-59643051D01*
X149069423Y-59660212D01*
X148960205Y-59696094D01*
X148862582Y-59750959D01*
X148776228Y-59825070D01*
X148700815Y-59918688D01*
X148636018Y-60032076D01*
X148598601Y-60118667D01*
X148554748Y-60254366D01*
X148522428Y-60401850D01*
X148501557Y-60557314D01*
X148492051Y-60716956D01*
X148493827Y-60876973D01*
X148506803Y-61033561D01*
X148530894Y-61182918D01*
X148566018Y-61321240D01*
X148612092Y-61444724D01*
X148628373Y-61478978D01*
X148696620Y-61593064D01*
X148777079Y-61689557D01*
X148868570Y-61767670D01*
X148969911Y-61826617D01*
X149079920Y-61865612D01*
X149197415Y-61883868D01*
X149238883Y-61885211D01*
X149360441Y-61874290D01*
X149480878Y-61841474D01*
X149598666Y-61787439D01*
X149712277Y-61712865D01*
X149803685Y-61634539D01*
X149850215Y-61590008D01*
X150031483Y-61887271D01*
X150076580Y-61961433D01*
X150117819Y-62029646D01*
X150153735Y-62089459D01*
X150182866Y-62138420D01*
X150203750Y-62174079D01*
X150214924Y-62193984D01*
X150216375Y-62197079D01*
X150208146Y-62206718D01*
X150182567Y-62223999D01*
X150142873Y-62247283D01*
X150092297Y-62274934D01*
X150034074Y-62305315D01*
X149971437Y-62336790D01*
X149907621Y-62367722D01*
X149845860Y-62396473D01*
X149789388Y-62421408D01*
X149741438Y-62440889D01*
X149717986Y-62449318D01*
X149584221Y-62487133D01*
X149446327Y-62512136D01*
X149298622Y-62525140D01*
X149171833Y-62527468D01*
X149103878Y-62526373D01*
X149038277Y-62524275D01*
X148980847Y-62521434D01*
X148937403Y-62518106D01*
X148923298Y-62516422D01*
X148784284Y-62487587D01*
X148642757Y-62442468D01*
X148505275Y-62383750D01*
X148378394Y-62314120D01*
X148300889Y-62261441D01*
X148173481Y-62153239D01*
X148055178Y-62026671D01*
X147948172Y-61884866D01*
X147854652Y-61730951D01*
X147776810Y-61568053D01*
X147732956Y-61450756D01*
X147682708Y-61267128D01*
X147649209Y-61072581D01*
X147632449Y-60871325D01*
X147632416Y-60667568D01*
X147649101Y-60465521D01*
X147682493Y-60269392D01*
X147732580Y-60083391D01*
X147736397Y-60071803D01*
X147799281Y-59909750D01*
X147876028Y-59761832D01*
X147969242Y-59623865D01*
X148081527Y-59491661D01*
X148125392Y-59446399D01*
X148261534Y-59322457D01*
X148401491Y-59219915D01*
X148547411Y-59137656D01*
X148701442Y-59074564D01*
X148865732Y-59029523D01*
X148961289Y-59012033D01*
X149120023Y-58996466D01*
X149278429Y-58999071D01*
G37*
X149278429Y-58999071D02*
X149438570Y-59020245D01*
X149602510Y-59060385D01*
X149772313Y-59119889D01*
X149950043Y-59199154D01*
X149961310Y-59204699D01*
X150019005Y-59232725D01*
X150070552Y-59256802D01*
X150112191Y-59275249D01*
X150140162Y-59286386D01*
X150149733Y-59288933D01*
X150168950Y-59293941D01*
X150173561Y-59298147D01*
X150168458Y-59308580D01*
X150152418Y-59334868D01*
X150127288Y-59374257D01*
X150094914Y-59423991D01*
X150057143Y-59481315D01*
X150015822Y-59543476D01*
X149972798Y-59607718D01*
X149929917Y-59671285D01*
X149889026Y-59731425D01*
X149851971Y-59785380D01*
X149820600Y-59830397D01*
X149796759Y-59863721D01*
X149782294Y-59882597D01*
X149780309Y-59884787D01*
X149770191Y-59880138D01*
X149747850Y-59862962D01*
X149717280Y-59836440D01*
X149701536Y-59821964D01*
X149605047Y-59746682D01*
X149498336Y-59691241D01*
X149382832Y-59656141D01*
X149259962Y-59641880D01*
X149190561Y-59643051D01*
X149069423Y-59660212D01*
X148960205Y-59696094D01*
X148862582Y-59750959D01*
X148776228Y-59825070D01*
X148700815Y-59918688D01*
X148636018Y-60032076D01*
X148598601Y-60118667D01*
X148554748Y-60254366D01*
X148522428Y-60401850D01*
X148501557Y-60557314D01*
X148492051Y-60716956D01*
X148493827Y-60876973D01*
X148506803Y-61033561D01*
X148530894Y-61182918D01*
X148566018Y-61321240D01*
X148612092Y-61444724D01*
X148628373Y-61478978D01*
X148696620Y-61593064D01*
X148777079Y-61689557D01*
X148868570Y-61767670D01*
X148969911Y-61826617D01*
X149079920Y-61865612D01*
X149197415Y-61883868D01*
X149238883Y-61885211D01*
X149360441Y-61874290D01*
X149480878Y-61841474D01*
X149598666Y-61787439D01*
X149712277Y-61712865D01*
X149803685Y-61634539D01*
X149850215Y-61590008D01*
X150031483Y-61887271D01*
X150076580Y-61961433D01*
X150117819Y-62029646D01*
X150153735Y-62089459D01*
X150182866Y-62138420D01*
X150203750Y-62174079D01*
X150214924Y-62193984D01*
X150216375Y-62197079D01*
X150208146Y-62206718D01*
X150182567Y-62223999D01*
X150142873Y-62247283D01*
X150092297Y-62274934D01*
X150034074Y-62305315D01*
X149971437Y-62336790D01*
X149907621Y-62367722D01*
X149845860Y-62396473D01*
X149789388Y-62421408D01*
X149741438Y-62440889D01*
X149717986Y-62449318D01*
X149584221Y-62487133D01*
X149446327Y-62512136D01*
X149298622Y-62525140D01*
X149171833Y-62527468D01*
X149103878Y-62526373D01*
X149038277Y-62524275D01*
X148980847Y-62521434D01*
X148937403Y-62518106D01*
X148923298Y-62516422D01*
X148784284Y-62487587D01*
X148642757Y-62442468D01*
X148505275Y-62383750D01*
X148378394Y-62314120D01*
X148300889Y-62261441D01*
X148173481Y-62153239D01*
X148055178Y-62026671D01*
X147948172Y-61884866D01*
X147854652Y-61730951D01*
X147776810Y-61568053D01*
X147732956Y-61450756D01*
X147682708Y-61267128D01*
X147649209Y-61072581D01*
X147632449Y-60871325D01*
X147632416Y-60667568D01*
X147649101Y-60465521D01*
X147682493Y-60269392D01*
X147732580Y-60083391D01*
X147736397Y-60071803D01*
X147799281Y-59909750D01*
X147876028Y-59761832D01*
X147969242Y-59623865D01*
X148081527Y-59491661D01*
X148125392Y-59446399D01*
X148261534Y-59322457D01*
X148401491Y-59219915D01*
X148547411Y-59137656D01*
X148701442Y-59074564D01*
X148865732Y-59029523D01*
X148961289Y-59012033D01*
X149120023Y-58996466D01*
X149278429Y-58999071D01*
G36*
X151623574Y-59916552D02*
G01*
X151775492Y-59936567D01*
X151910756Y-59970202D01*
X152030239Y-60017725D01*
X152134815Y-60079405D01*
X152212424Y-60142965D01*
X152281265Y-60217099D01*
X152335006Y-60296871D01*
X152377910Y-60389091D01*
X152393384Y-60432161D01*
X152406244Y-60471142D01*
X152417446Y-60507289D01*
X152427120Y-60542434D01*
X152435396Y-60578410D01*
X152442403Y-60617050D01*
X152448272Y-60660185D01*
X152453131Y-60709649D01*
X152457110Y-60767273D01*
X152460340Y-60834891D01*
X152462949Y-60914334D01*
X152465067Y-61007436D01*
X152466824Y-61116027D01*
X152468349Y-61241942D01*
X152469772Y-61387012D01*
X152471025Y-61529778D01*
X152472351Y-61685968D01*
X152473556Y-61821239D01*
X152474766Y-61937246D01*
X152476106Y-62035645D01*
X152477700Y-62118093D01*
X152479675Y-62186246D01*
X152482156Y-62241760D01*
X152485269Y-62286292D01*
X152489138Y-62321498D01*
X152493889Y-62349034D01*
X152499648Y-62370556D01*
X152506539Y-62387722D01*
X152514689Y-62402186D01*
X152524223Y-62415606D01*
X152535266Y-62429638D01*
X152539566Y-62435071D01*
X152555386Y-62457910D01*
X152562422Y-62473463D01*
X152562444Y-62473922D01*
X152551567Y-62476121D01*
X152520582Y-62478147D01*
X152471957Y-62479942D01*
X152408163Y-62481451D01*
X152331669Y-62482616D01*
X152244944Y-62483380D01*
X152150457Y-62483686D01*
X152139550Y-62483689D01*
X151716657Y-62483689D01*
X151713395Y-62387622D01*
X151710133Y-62291556D01*
X151648044Y-62342543D01*
X151550714Y-62410057D01*
X151440813Y-62464749D01*
X151354349Y-62494978D01*
X151285278Y-62509666D01*
X151201925Y-62519659D01*
X151112159Y-62524646D01*
X151023845Y-62524313D01*
X150944851Y-62518351D01*
X150908622Y-62512638D01*
X150768603Y-62474776D01*
X150642178Y-62419932D01*
X150530260Y-62348924D01*
X150433762Y-62262568D01*
X150353600Y-62161679D01*
X150290687Y-62047076D01*
X150246312Y-61920984D01*
X150233978Y-61864401D01*
X150226368Y-61802202D01*
X150222739Y-61727363D01*
X150222245Y-61693467D01*
X150222310Y-61690282D01*
X150982248Y-61690282D01*
X150991541Y-61765333D01*
X151019728Y-61829160D01*
X151068197Y-61884798D01*
X151073254Y-61889211D01*
X151121548Y-61924037D01*
X151173257Y-61946620D01*
X151233989Y-61958540D01*
X151309352Y-61961383D01*
X151327459Y-61960978D01*
X151381278Y-61958325D01*
X151421308Y-61952909D01*
X151456324Y-61942745D01*
X151495103Y-61925850D01*
X151505745Y-61920672D01*
X151566396Y-61884844D01*
X151613215Y-61842212D01*
X151625952Y-61826973D01*
X151670622Y-61770462D01*
X151670622Y-61574586D01*
X151670086Y-61495939D01*
X151668396Y-61437988D01*
X151665428Y-61398875D01*
X151661057Y-61376741D01*
X151656972Y-61370274D01*
X151641047Y-61367111D01*
X151607264Y-61364488D01*
X151560340Y-61362655D01*
X151504993Y-61361857D01*
X151496106Y-61361842D01*
X151375330Y-61367096D01*
X151272660Y-61383263D01*
X151186106Y-61410961D01*
X151113681Y-61450808D01*
X151058751Y-61497758D01*
X151014204Y-61555645D01*
X150989480Y-61618693D01*
X150982248Y-61690282D01*
X150222310Y-61690282D01*
X150224178Y-61599712D01*
X150232522Y-61520812D01*
X150248768Y-61449590D01*
X150274405Y-61378864D01*
X150298401Y-61326493D01*
X150357020Y-61231196D01*
X150435117Y-61143170D01*
X150530315Y-61064017D01*
X150640238Y-60995340D01*
X150762510Y-60938741D01*
X150894755Y-60895821D01*
X150959422Y-60880882D01*
X151095604Y-60858777D01*
X151244049Y-60844194D01*
X151395505Y-60837813D01*
X151522064Y-60839445D01*
X151683950Y-60846224D01*
X151676530Y-60787245D01*
X151657238Y-60688092D01*
X151626104Y-60607372D01*
X151582269Y-60544466D01*
X151524871Y-60498756D01*
X151453048Y-60469622D01*
X151365941Y-60456447D01*
X151262686Y-60458611D01*
X151224711Y-60462612D01*
X151083520Y-60487780D01*
X150946707Y-60528814D01*
X150852178Y-60566815D01*
X150807018Y-60586190D01*
X150768585Y-60601760D01*
X150742234Y-60611405D01*
X150734546Y-60613452D01*
X150724802Y-60604374D01*
X150708083Y-60575405D01*
X150684232Y-60526217D01*
X150653093Y-60456484D01*
X150614507Y-60365879D01*
X150607910Y-60350089D01*
X150577853Y-60277772D01*
X150550874Y-60212425D01*
X150528136Y-60156906D01*
X150510806Y-60114072D01*
X150500048Y-60086781D01*
X150496941Y-60077942D01*
X150506940Y-60073187D01*
X150533217Y-60067910D01*
X150561489Y-60064231D01*
X150591646Y-60059474D01*
X150639433Y-60050028D01*
X150700612Y-60036820D01*
X150770946Y-60020776D01*
X150846194Y-60002820D01*
X150874755Y-59995797D01*
X150979816Y-59970209D01*
X151067480Y-59950147D01*
X151142068Y-59934969D01*
X151207903Y-59924035D01*
X151269307Y-59916704D01*
X151330602Y-59912335D01*
X151396110Y-59910287D01*
X151454128Y-59909889D01*
X151623574Y-59916552D01*
G37*
X151623574Y-59916552D02*
X151775492Y-59936567D01*
X151910756Y-59970202D01*
X152030239Y-60017725D01*
X152134815Y-60079405D01*
X152212424Y-60142965D01*
X152281265Y-60217099D01*
X152335006Y-60296871D01*
X152377910Y-60389091D01*
X152393384Y-60432161D01*
X152406244Y-60471142D01*
X152417446Y-60507289D01*
X152427120Y-60542434D01*
X152435396Y-60578410D01*
X152442403Y-60617050D01*
X152448272Y-60660185D01*
X152453131Y-60709649D01*
X152457110Y-60767273D01*
X152460340Y-60834891D01*
X152462949Y-60914334D01*
X152465067Y-61007436D01*
X152466824Y-61116027D01*
X152468349Y-61241942D01*
X152469772Y-61387012D01*
X152471025Y-61529778D01*
X152472351Y-61685968D01*
X152473556Y-61821239D01*
X152474766Y-61937246D01*
X152476106Y-62035645D01*
X152477700Y-62118093D01*
X152479675Y-62186246D01*
X152482156Y-62241760D01*
X152485269Y-62286292D01*
X152489138Y-62321498D01*
X152493889Y-62349034D01*
X152499648Y-62370556D01*
X152506539Y-62387722D01*
X152514689Y-62402186D01*
X152524223Y-62415606D01*
X152535266Y-62429638D01*
X152539566Y-62435071D01*
X152555386Y-62457910D01*
X152562422Y-62473463D01*
X152562444Y-62473922D01*
X152551567Y-62476121D01*
X152520582Y-62478147D01*
X152471957Y-62479942D01*
X152408163Y-62481451D01*
X152331669Y-62482616D01*
X152244944Y-62483380D01*
X152150457Y-62483686D01*
X152139550Y-62483689D01*
X151716657Y-62483689D01*
X151713395Y-62387622D01*
X151710133Y-62291556D01*
X151648044Y-62342543D01*
X151550714Y-62410057D01*
X151440813Y-62464749D01*
X151354349Y-62494978D01*
X151285278Y-62509666D01*
X151201925Y-62519659D01*
X151112159Y-62524646D01*
X151023845Y-62524313D01*
X150944851Y-62518351D01*
X150908622Y-62512638D01*
X150768603Y-62474776D01*
X150642178Y-62419932D01*
X150530260Y-62348924D01*
X150433762Y-62262568D01*
X150353600Y-62161679D01*
X150290687Y-62047076D01*
X150246312Y-61920984D01*
X150233978Y-61864401D01*
X150226368Y-61802202D01*
X150222739Y-61727363D01*
X150222245Y-61693467D01*
X150222310Y-61690282D01*
X150982248Y-61690282D01*
X150991541Y-61765333D01*
X151019728Y-61829160D01*
X151068197Y-61884798D01*
X151073254Y-61889211D01*
X151121548Y-61924037D01*
X151173257Y-61946620D01*
X151233989Y-61958540D01*
X151309352Y-61961383D01*
X151327459Y-61960978D01*
X151381278Y-61958325D01*
X151421308Y-61952909D01*
X151456324Y-61942745D01*
X151495103Y-61925850D01*
X151505745Y-61920672D01*
X151566396Y-61884844D01*
X151613215Y-61842212D01*
X151625952Y-61826973D01*
X151670622Y-61770462D01*
X151670622Y-61574586D01*
X151670086Y-61495939D01*
X151668396Y-61437988D01*
X151665428Y-61398875D01*
X151661057Y-61376741D01*
X151656972Y-61370274D01*
X151641047Y-61367111D01*
X151607264Y-61364488D01*
X151560340Y-61362655D01*
X151504993Y-61361857D01*
X151496106Y-61361842D01*
X151375330Y-61367096D01*
X151272660Y-61383263D01*
X151186106Y-61410961D01*
X151113681Y-61450808D01*
X151058751Y-61497758D01*
X151014204Y-61555645D01*
X150989480Y-61618693D01*
X150982248Y-61690282D01*
X150222310Y-61690282D01*
X150224178Y-61599712D01*
X150232522Y-61520812D01*
X150248768Y-61449590D01*
X150274405Y-61378864D01*
X150298401Y-61326493D01*
X150357020Y-61231196D01*
X150435117Y-61143170D01*
X150530315Y-61064017D01*
X150640238Y-60995340D01*
X150762510Y-60938741D01*
X150894755Y-60895821D01*
X150959422Y-60880882D01*
X151095604Y-60858777D01*
X151244049Y-60844194D01*
X151395505Y-60837813D01*
X151522064Y-60839445D01*
X151683950Y-60846224D01*
X151676530Y-60787245D01*
X151657238Y-60688092D01*
X151626104Y-60607372D01*
X151582269Y-60544466D01*
X151524871Y-60498756D01*
X151453048Y-60469622D01*
X151365941Y-60456447D01*
X151262686Y-60458611D01*
X151224711Y-60462612D01*
X151083520Y-60487780D01*
X150946707Y-60528814D01*
X150852178Y-60566815D01*
X150807018Y-60586190D01*
X150768585Y-60601760D01*
X150742234Y-60611405D01*
X150734546Y-60613452D01*
X150724802Y-60604374D01*
X150708083Y-60575405D01*
X150684232Y-60526217D01*
X150653093Y-60456484D01*
X150614507Y-60365879D01*
X150607910Y-60350089D01*
X150577853Y-60277772D01*
X150550874Y-60212425D01*
X150528136Y-60156906D01*
X150510806Y-60114072D01*
X150500048Y-60086781D01*
X150496941Y-60077942D01*
X150506940Y-60073187D01*
X150533217Y-60067910D01*
X150561489Y-60064231D01*
X150591646Y-60059474D01*
X150639433Y-60050028D01*
X150700612Y-60036820D01*
X150770946Y-60020776D01*
X150846194Y-60002820D01*
X150874755Y-59995797D01*
X150979816Y-59970209D01*
X151067480Y-59950147D01*
X151142068Y-59934969D01*
X151207903Y-59924035D01*
X151269307Y-59916704D01*
X151330602Y-59912335D01*
X151396110Y-59910287D01*
X151454128Y-59909889D01*
X151623574Y-59916552D01*
G36*
X155136507Y-60522245D02*
G01*
X155136526Y-60756662D01*
X155136552Y-60969603D01*
X155136625Y-61162168D01*
X155136782Y-61335459D01*
X155137064Y-61490576D01*
X155137509Y-61628620D01*
X155138156Y-61750692D01*
X155139045Y-61857894D01*
X155140213Y-61951326D01*
X155141701Y-62032090D01*
X155143546Y-62101286D01*
X155145789Y-62160015D01*
X155148469Y-62209379D01*
X155151623Y-62250478D01*
X155155292Y-62284413D01*
X155159513Y-62312286D01*
X155164327Y-62335198D01*
X155169773Y-62354249D01*
X155175888Y-62370540D01*
X155182712Y-62385173D01*
X155190285Y-62399249D01*
X155198645Y-62413868D01*
X155203839Y-62422974D01*
X155238104Y-62483689D01*
X154379955Y-62483689D01*
X154379955Y-62387733D01*
X154379224Y-62344370D01*
X154377272Y-62311205D01*
X154374463Y-62293424D01*
X154373221Y-62291778D01*
X154361799Y-62298662D01*
X154339084Y-62316505D01*
X154316385Y-62335879D01*
X154261800Y-62376614D01*
X154192321Y-62417617D01*
X154115270Y-62455123D01*
X154037965Y-62485364D01*
X154007113Y-62495012D01*
X153938616Y-62509578D01*
X153855764Y-62519539D01*
X153766371Y-62524583D01*
X153678248Y-62524396D01*
X153599207Y-62518666D01*
X153561511Y-62512858D01*
X153423414Y-62474797D01*
X153296113Y-62417073D01*
X153180292Y-62340211D01*
X153076637Y-62244739D01*
X152985833Y-62131179D01*
X152919031Y-62020381D01*
X152864164Y-61903625D01*
X152822163Y-61784276D01*
X152792167Y-61658283D01*
X152773311Y-61521594D01*
X152764732Y-61370158D01*
X152764006Y-61292711D01*
X152766100Y-61235934D01*
X153595217Y-61235934D01*
X153595424Y-61329002D01*
X153598337Y-61416692D01*
X153604000Y-61493772D01*
X153612455Y-61555009D01*
X153615038Y-61567350D01*
X153646840Y-61674633D01*
X153688498Y-61761658D01*
X153740363Y-61828642D01*
X153802781Y-61875805D01*
X153876100Y-61903365D01*
X153960669Y-61911541D01*
X154056835Y-61900551D01*
X154120311Y-61884829D01*
X154169454Y-61866639D01*
X154223583Y-61840791D01*
X154264244Y-61817089D01*
X154334800Y-61770721D01*
X154334800Y-60620530D01*
X154267392Y-60576962D01*
X154188867Y-60536040D01*
X154104681Y-60509389D01*
X154019557Y-60497465D01*
X153938216Y-60500722D01*
X153865380Y-60519615D01*
X153833426Y-60535184D01*
X153775501Y-60578181D01*
X153726544Y-60634953D01*
X153685390Y-60707575D01*
X153650874Y-60798121D01*
X153621833Y-60908666D01*
X153620552Y-60914533D01*
X153610381Y-60976788D01*
X153602739Y-61054594D01*
X153597670Y-61142720D01*
X153595217Y-61235934D01*
X152766100Y-61235934D01*
X152771857Y-61079895D01*
X152793802Y-60884059D01*
X152829786Y-60705332D01*
X152879759Y-60543845D01*
X152943668Y-60399726D01*
X153021462Y-60273106D01*
X153113089Y-60164115D01*
X153218497Y-60072883D01*
X153263662Y-60041932D01*
X153364611Y-59985785D01*
X153467901Y-59946174D01*
X153577989Y-59922014D01*
X153699330Y-59912219D01*
X153791836Y-59913265D01*
X153921490Y-59924231D01*
X154034084Y-59946046D01*
X154132875Y-59979714D01*
X154221121Y-60026236D01*
X154269986Y-60060448D01*
X154299353Y-60082362D01*
X154321043Y-60097333D01*
X154329253Y-60101733D01*
X154330868Y-60090904D01*
X154332159Y-60060251D01*
X154333138Y-60012526D01*
X154333817Y-59950479D01*
X154334210Y-59876862D01*
X154334330Y-59794427D01*
X154334188Y-59705925D01*
X154333797Y-59614107D01*
X154333171Y-59521724D01*
X154332320Y-59431528D01*
X154331260Y-59346271D01*
X154330001Y-59268703D01*
X154328556Y-59201576D01*
X154326938Y-59147641D01*
X154325161Y-59109650D01*
X154324669Y-59102667D01*
X154317092Y-59032251D01*
X154305531Y-58977102D01*
X154287792Y-58929981D01*
X154261682Y-58883647D01*
X154255415Y-58874067D01*
X154230983Y-58837378D01*
X155136311Y-58837378D01*
X155136507Y-60522245D01*
G37*
X155136507Y-60522245D02*
X155136526Y-60756662D01*
X155136552Y-60969603D01*
X155136625Y-61162168D01*
X155136782Y-61335459D01*
X155137064Y-61490576D01*
X155137509Y-61628620D01*
X155138156Y-61750692D01*
X155139045Y-61857894D01*
X155140213Y-61951326D01*
X155141701Y-62032090D01*
X155143546Y-62101286D01*
X155145789Y-62160015D01*
X155148469Y-62209379D01*
X155151623Y-62250478D01*
X155155292Y-62284413D01*
X155159513Y-62312286D01*
X155164327Y-62335198D01*
X155169773Y-62354249D01*
X155175888Y-62370540D01*
X155182712Y-62385173D01*
X155190285Y-62399249D01*
X155198645Y-62413868D01*
X155203839Y-62422974D01*
X155238104Y-62483689D01*
X154379955Y-62483689D01*
X154379955Y-62387733D01*
X154379224Y-62344370D01*
X154377272Y-62311205D01*
X154374463Y-62293424D01*
X154373221Y-62291778D01*
X154361799Y-62298662D01*
X154339084Y-62316505D01*
X154316385Y-62335879D01*
X154261800Y-62376614D01*
X154192321Y-62417617D01*
X154115270Y-62455123D01*
X154037965Y-62485364D01*
X154007113Y-62495012D01*
X153938616Y-62509578D01*
X153855764Y-62519539D01*
X153766371Y-62524583D01*
X153678248Y-62524396D01*
X153599207Y-62518666D01*
X153561511Y-62512858D01*
X153423414Y-62474797D01*
X153296113Y-62417073D01*
X153180292Y-62340211D01*
X153076637Y-62244739D01*
X152985833Y-62131179D01*
X152919031Y-62020381D01*
X152864164Y-61903625D01*
X152822163Y-61784276D01*
X152792167Y-61658283D01*
X152773311Y-61521594D01*
X152764732Y-61370158D01*
X152764006Y-61292711D01*
X152766100Y-61235934D01*
X153595217Y-61235934D01*
X153595424Y-61329002D01*
X153598337Y-61416692D01*
X153604000Y-61493772D01*
X153612455Y-61555009D01*
X153615038Y-61567350D01*
X153646840Y-61674633D01*
X153688498Y-61761658D01*
X153740363Y-61828642D01*
X153802781Y-61875805D01*
X153876100Y-61903365D01*
X153960669Y-61911541D01*
X154056835Y-61900551D01*
X154120311Y-61884829D01*
X154169454Y-61866639D01*
X154223583Y-61840791D01*
X154264244Y-61817089D01*
X154334800Y-61770721D01*
X154334800Y-60620530D01*
X154267392Y-60576962D01*
X154188867Y-60536040D01*
X154104681Y-60509389D01*
X154019557Y-60497465D01*
X153938216Y-60500722D01*
X153865380Y-60519615D01*
X153833426Y-60535184D01*
X153775501Y-60578181D01*
X153726544Y-60634953D01*
X153685390Y-60707575D01*
X153650874Y-60798121D01*
X153621833Y-60908666D01*
X153620552Y-60914533D01*
X153610381Y-60976788D01*
X153602739Y-61054594D01*
X153597670Y-61142720D01*
X153595217Y-61235934D01*
X152766100Y-61235934D01*
X152771857Y-61079895D01*
X152793802Y-60884059D01*
X152829786Y-60705332D01*
X152879759Y-60543845D01*
X152943668Y-60399726D01*
X153021462Y-60273106D01*
X153113089Y-60164115D01*
X153218497Y-60072883D01*
X153263662Y-60041932D01*
X153364611Y-59985785D01*
X153467901Y-59946174D01*
X153577989Y-59922014D01*
X153699330Y-59912219D01*
X153791836Y-59913265D01*
X153921490Y-59924231D01*
X154034084Y-59946046D01*
X154132875Y-59979714D01*
X154221121Y-60026236D01*
X154269986Y-60060448D01*
X154299353Y-60082362D01*
X154321043Y-60097333D01*
X154329253Y-60101733D01*
X154330868Y-60090904D01*
X154332159Y-60060251D01*
X154333138Y-60012526D01*
X154333817Y-59950479D01*
X154334210Y-59876862D01*
X154334330Y-59794427D01*
X154334188Y-59705925D01*
X154333797Y-59614107D01*
X154333171Y-59521724D01*
X154332320Y-59431528D01*
X154331260Y-59346271D01*
X154330001Y-59268703D01*
X154328556Y-59201576D01*
X154326938Y-59147641D01*
X154325161Y-59109650D01*
X154324669Y-59102667D01*
X154317092Y-59032251D01*
X154305531Y-58977102D01*
X154287792Y-58929981D01*
X154261682Y-58883647D01*
X154255415Y-58874067D01*
X154230983Y-58837378D01*
X155136311Y-58837378D01*
X155136507Y-60522245D01*
G36*
X146676957Y-58076571D02*
G01*
X146773232Y-58100809D01*
X146859816Y-58143641D01*
X146934627Y-58203419D01*
X146995582Y-58278494D01*
X147040601Y-58367220D01*
X147066864Y-58463530D01*
X147072714Y-58560795D01*
X147057860Y-58654654D01*
X147024160Y-58742511D01*
X146973472Y-58821770D01*
X146907655Y-58889836D01*
X146828566Y-58944112D01*
X146738066Y-58982002D01*
X146686800Y-58994426D01*
X146642302Y-59001947D01*
X146608001Y-59004919D01*
X146575040Y-59003094D01*
X146534566Y-58996225D01*
X146501469Y-58989250D01*
X146408053Y-58957741D01*
X146324381Y-58906617D01*
X146252335Y-58837429D01*
X146193800Y-58751728D01*
X146179852Y-58724489D01*
X146163414Y-58688122D01*
X146153106Y-58657582D01*
X146147540Y-58625450D01*
X146145331Y-58584307D01*
X146145052Y-58538222D01*
X146149139Y-58453865D01*
X146162554Y-58384586D01*
X146187744Y-58323961D01*
X146227154Y-58265567D01*
X146265702Y-58221302D01*
X146337594Y-58155484D01*
X146412687Y-58110053D01*
X146495438Y-58082850D01*
X146573072Y-58072576D01*
X146676957Y-58076571D01*
G37*
X146676957Y-58076571D02*
X146773232Y-58100809D01*
X146859816Y-58143641D01*
X146934627Y-58203419D01*
X146995582Y-58278494D01*
X147040601Y-58367220D01*
X147066864Y-58463530D01*
X147072714Y-58560795D01*
X147057860Y-58654654D01*
X147024160Y-58742511D01*
X146973472Y-58821770D01*
X146907655Y-58889836D01*
X146828566Y-58944112D01*
X146738066Y-58982002D01*
X146686800Y-58994426D01*
X146642302Y-59001947D01*
X146608001Y-59004919D01*
X146575040Y-59003094D01*
X146534566Y-58996225D01*
X146501469Y-58989250D01*
X146408053Y-58957741D01*
X146324381Y-58906617D01*
X146252335Y-58837429D01*
X146193800Y-58751728D01*
X146179852Y-58724489D01*
X146163414Y-58688122D01*
X146153106Y-58657582D01*
X146147540Y-58625450D01*
X146145331Y-58584307D01*
X146145052Y-58538222D01*
X146149139Y-58453865D01*
X146162554Y-58384586D01*
X146187744Y-58323961D01*
X146227154Y-58265567D01*
X146265702Y-58221302D01*
X146337594Y-58155484D01*
X146412687Y-58110053D01*
X146495438Y-58082850D01*
X146573072Y-58072576D01*
X146676957Y-58076571D01*
G36*
X116704243Y-58193057D02*
G01*
X117390885Y-58204534D01*
X117615745Y-58315296D01*
X117826809Y-58443774D01*
X117990294Y-58603370D01*
X118121631Y-58809978D01*
X118147776Y-58863388D01*
X118194508Y-58975867D01*
X118221485Y-59082572D01*
X118233579Y-59209867D01*
X118235814Y-59339887D01*
X118232824Y-59492909D01*
X118219945Y-59605824D01*
X118191215Y-59706144D01*
X118140669Y-59821381D01*
X118124061Y-59855468D01*
X118003778Y-60057323D01*
X117859556Y-60214724D01*
X117683305Y-60331900D01*
X117466937Y-60413078D01*
X117202363Y-60462486D01*
X116923534Y-60483034D01*
X116491734Y-60498543D01*
X116491734Y-61912934D01*
X116017600Y-61912934D01*
X116017600Y-58729467D01*
X116491734Y-58729467D01*
X116491734Y-59948667D01*
X116857091Y-59948667D01*
X117030760Y-59946613D01*
X117154882Y-59938668D01*
X117247564Y-59922160D01*
X117326917Y-59894415D01*
X117373284Y-59872467D01*
X117531333Y-59758394D01*
X117639448Y-59608618D01*
X117695315Y-59435604D01*
X117696621Y-59251818D01*
X117641053Y-59069724D01*
X117548738Y-58927202D01*
X117468222Y-58846511D01*
X117376262Y-58790307D01*
X117259350Y-58754683D01*
X117103980Y-58735729D01*
X116896645Y-58729538D01*
X116865355Y-58729467D01*
X116491734Y-58729467D01*
X116017600Y-58729467D01*
X116017600Y-58181580D01*
X116704243Y-58193057D01*
G37*
X116704243Y-58193057D02*
X117390885Y-58204534D01*
X117615745Y-58315296D01*
X117826809Y-58443774D01*
X117990294Y-58603370D01*
X118121631Y-58809978D01*
X118147776Y-58863388D01*
X118194508Y-58975867D01*
X118221485Y-59082572D01*
X118233579Y-59209867D01*
X118235814Y-59339887D01*
X118232824Y-59492909D01*
X118219945Y-59605824D01*
X118191215Y-59706144D01*
X118140669Y-59821381D01*
X118124061Y-59855468D01*
X118003778Y-60057323D01*
X117859556Y-60214724D01*
X117683305Y-60331900D01*
X117466937Y-60413078D01*
X117202363Y-60462486D01*
X116923534Y-60483034D01*
X116491734Y-60498543D01*
X116491734Y-61912934D01*
X116017600Y-61912934D01*
X116017600Y-58729467D01*
X116491734Y-58729467D01*
X116491734Y-59948667D01*
X116857091Y-59948667D01*
X117030760Y-59946613D01*
X117154882Y-59938668D01*
X117247564Y-59922160D01*
X117326917Y-59894415D01*
X117373284Y-59872467D01*
X117531333Y-59758394D01*
X117639448Y-59608618D01*
X117695315Y-59435604D01*
X117696621Y-59251818D01*
X117641053Y-59069724D01*
X117548738Y-58927202D01*
X117468222Y-58846511D01*
X117376262Y-58790307D01*
X117259350Y-58754683D01*
X117103980Y-58735729D01*
X116896645Y-58729538D01*
X116865355Y-58729467D01*
X116491734Y-58729467D01*
X116017600Y-58729467D01*
X116017600Y-58181580D01*
X116704243Y-58193057D01*
G36*
X110817292Y-59364888D02*
G01*
X110946067Y-59408643D01*
X110992553Y-59433548D01*
X111020255Y-59466112D01*
X111034025Y-59522551D01*
X111038718Y-59619083D01*
X111039200Y-59719859D01*
X111036279Y-59842901D01*
X111028516Y-59932719D01*
X111017412Y-59974239D01*
X111013800Y-59975104D01*
X110778969Y-59880810D01*
X110560860Y-59850325D01*
X110353527Y-59883632D01*
X110163982Y-59972572D01*
X110006267Y-60070061D01*
X109997256Y-60991498D01*
X109988245Y-61912934D01*
X109515200Y-61912934D01*
X109515200Y-59406801D01*
X109752267Y-59406801D01*
X109879433Y-59409432D01*
X109952316Y-59419363D01*
X109984233Y-59439652D01*
X109989334Y-59461224D01*
X110006152Y-59498341D01*
X110048600Y-59489897D01*
X110336004Y-59388256D01*
X110592273Y-59346583D01*
X110817292Y-59364888D01*
G37*
X110817292Y-59364888D02*
X110946067Y-59408643D01*
X110992553Y-59433548D01*
X111020255Y-59466112D01*
X111034025Y-59522551D01*
X111038718Y-59619083D01*
X111039200Y-59719859D01*
X111036279Y-59842901D01*
X111028516Y-59932719D01*
X111017412Y-59974239D01*
X111013800Y-59975104D01*
X110778969Y-59880810D01*
X110560860Y-59850325D01*
X110353527Y-59883632D01*
X110163982Y-59972572D01*
X110006267Y-60070061D01*
X109997256Y-60991498D01*
X109988245Y-61912934D01*
X109515200Y-61912934D01*
X109515200Y-59406801D01*
X109752267Y-59406801D01*
X109879433Y-59409432D01*
X109952316Y-59419363D01*
X109984233Y-59439652D01*
X109989334Y-59461224D01*
X110006152Y-59498341D01*
X110048600Y-59489897D01*
X110336004Y-59388256D01*
X110592273Y-59346583D01*
X110817292Y-59364888D01*
G36*
X104977067Y-60303326D02*
G01*
X105426254Y-59855063D01*
X105875442Y-59406801D01*
X106171321Y-59406801D01*
X106302685Y-59409479D01*
X106402979Y-59416641D01*
X106457184Y-59426977D01*
X106462562Y-59432201D01*
X106437838Y-59462064D01*
X106371148Y-59531653D01*
X106269525Y-59633926D01*
X106140001Y-59761846D01*
X105989609Y-59908370D01*
X105912811Y-59982534D01*
X105755264Y-60135139D01*
X105615518Y-60272205D01*
X105500537Y-60386763D01*
X105417283Y-60471841D01*
X105372719Y-60520469D01*
X105367115Y-60528818D01*
X105388770Y-60558607D01*
X105450120Y-60631739D01*
X105545263Y-60741468D01*
X105668296Y-60881051D01*
X105813317Y-61043742D01*
X105974423Y-61222797D01*
X105974683Y-61223085D01*
X106582833Y-61896000D01*
X105976701Y-61915810D01*
X105637926Y-61550305D01*
X105501313Y-61403172D01*
X105365759Y-61257630D01*
X105245220Y-61128633D01*
X105153650Y-61031139D01*
X105138839Y-61015467D01*
X104978528Y-60846134D01*
X104977797Y-61379534D01*
X104977067Y-61912934D01*
X104502933Y-61912934D01*
X104502933Y-58187601D01*
X104977067Y-58187601D01*
X104977067Y-60303326D01*
G37*
X104977067Y-60303326D02*
X105426254Y-59855063D01*
X105875442Y-59406801D01*
X106171321Y-59406801D01*
X106302685Y-59409479D01*
X106402979Y-59416641D01*
X106457184Y-59426977D01*
X106462562Y-59432201D01*
X106437838Y-59462064D01*
X106371148Y-59531653D01*
X106269525Y-59633926D01*
X106140001Y-59761846D01*
X105989609Y-59908370D01*
X105912811Y-59982534D01*
X105755264Y-60135139D01*
X105615518Y-60272205D01*
X105500537Y-60386763D01*
X105417283Y-60471841D01*
X105372719Y-60520469D01*
X105367115Y-60528818D01*
X105388770Y-60558607D01*
X105450120Y-60631739D01*
X105545263Y-60741468D01*
X105668296Y-60881051D01*
X105813317Y-61043742D01*
X105974423Y-61222797D01*
X105974683Y-61223085D01*
X106582833Y-61896000D01*
X105976701Y-61915810D01*
X105637926Y-61550305D01*
X105501313Y-61403172D01*
X105365759Y-61257630D01*
X105245220Y-61128633D01*
X105153650Y-61031139D01*
X105138839Y-61015467D01*
X104978528Y-60846134D01*
X104977797Y-61379534D01*
X104977067Y-61912934D01*
X104502933Y-61912934D01*
X104502933Y-58187601D01*
X104977067Y-58187601D01*
X104977067Y-60303326D01*
G36*
X96070134Y-58851624D02*
G01*
X96070496Y-59079172D01*
X96072101Y-59247366D01*
X96075727Y-59364587D01*
X96082153Y-59439213D01*
X96092156Y-59479623D01*
X96106514Y-59494195D01*
X96126005Y-59491309D01*
X96129400Y-59489897D01*
X96334742Y-59408983D01*
X96506393Y-59362531D01*
X96666010Y-59345950D01*
X96788724Y-59350183D01*
X97061996Y-59401272D01*
X97296655Y-59505214D01*
X97489019Y-59659589D01*
X97635406Y-59861977D01*
X97668186Y-59928097D01*
X97691752Y-59983245D01*
X97710204Y-60038151D01*
X97724298Y-60101922D01*
X97734784Y-60183665D01*
X97742418Y-60292487D01*
X97747951Y-60437496D01*
X97752137Y-60627798D01*
X97755729Y-60872500D01*
X97757403Y-61007000D01*
X97768382Y-61912934D01*
X97292699Y-61912934D01*
X97282550Y-61091667D01*
X97278927Y-60831337D01*
X97274771Y-60629390D01*
X97269303Y-60476476D01*
X97261741Y-60363244D01*
X97251305Y-60280346D01*
X97237215Y-60218430D01*
X97218691Y-60168146D01*
X97202704Y-60134934D01*
X97097384Y-59999521D01*
X96950345Y-59906308D01*
X96774537Y-59857506D01*
X96582908Y-59855321D01*
X96388406Y-59901965D01*
X96246123Y-59971743D01*
X96087067Y-60070061D01*
X96078056Y-60991498D01*
X96069045Y-61912934D01*
X95596000Y-61912934D01*
X95596000Y-58187601D01*
X96070134Y-58187601D01*
X96070134Y-58851624D01*
G37*
X96070134Y-58851624D02*
X96070496Y-59079172D01*
X96072101Y-59247366D01*
X96075727Y-59364587D01*
X96082153Y-59439213D01*
X96092156Y-59479623D01*
X96106514Y-59494195D01*
X96126005Y-59491309D01*
X96129400Y-59489897D01*
X96334742Y-59408983D01*
X96506393Y-59362531D01*
X96666010Y-59345950D01*
X96788724Y-59350183D01*
X97061996Y-59401272D01*
X97296655Y-59505214D01*
X97489019Y-59659589D01*
X97635406Y-59861977D01*
X97668186Y-59928097D01*
X97691752Y-59983245D01*
X97710204Y-60038151D01*
X97724298Y-60101922D01*
X97734784Y-60183665D01*
X97742418Y-60292487D01*
X97747951Y-60437496D01*
X97752137Y-60627798D01*
X97755729Y-60872500D01*
X97757403Y-61007000D01*
X97768382Y-61912934D01*
X97292699Y-61912934D01*
X97282550Y-61091667D01*
X97278927Y-60831337D01*
X97274771Y-60629390D01*
X97269303Y-60476476D01*
X97261741Y-60363244D01*
X97251305Y-60280346D01*
X97237215Y-60218430D01*
X97218691Y-60168146D01*
X97202704Y-60134934D01*
X97097384Y-59999521D01*
X96950345Y-59906308D01*
X96774537Y-59857506D01*
X96582908Y-59855321D01*
X96388406Y-59901965D01*
X96246123Y-59971743D01*
X96087067Y-60070061D01*
X96078056Y-60991498D01*
X96069045Y-61912934D01*
X95596000Y-61912934D01*
X95596000Y-58187601D01*
X96070134Y-58187601D01*
X96070134Y-58851624D01*
G36*
X119607467Y-59576134D02*
G01*
X121470134Y-59576134D01*
X121470134Y-58187601D01*
X121944267Y-58187601D01*
X121944267Y-61912934D01*
X121470134Y-61912934D01*
X121470134Y-60118000D01*
X119607467Y-60118000D01*
X119607467Y-61912934D01*
X119133334Y-61912934D01*
X119133334Y-58187601D01*
X119607467Y-58187601D01*
X119607467Y-59576134D01*
G37*
X119607467Y-59576134D02*
X121470134Y-59576134D01*
X121470134Y-58187601D01*
X121944267Y-58187601D01*
X121944267Y-61912934D01*
X121470134Y-61912934D01*
X121470134Y-60118000D01*
X119607467Y-60118000D01*
X119607467Y-61912934D01*
X119133334Y-61912934D01*
X119133334Y-58187601D01*
X119607467Y-58187601D01*
X119607467Y-59576134D01*
G36*
X107788000Y-59406801D02*
G01*
X108668533Y-59406801D01*
X108668533Y-59948667D01*
X107788000Y-59948667D01*
X107788000Y-60475537D01*
X107790456Y-60671164D01*
X107797215Y-60855119D01*
X107807361Y-61011085D01*
X107819979Y-61122743D01*
X107826006Y-61153343D01*
X107893362Y-61311673D01*
X107998751Y-61416196D01*
X108136584Y-61464921D01*
X108301270Y-61455857D01*
X108484994Y-61388142D01*
X108577907Y-61341691D01*
X108642034Y-61310930D01*
X108660067Y-61303476D01*
X108664023Y-61334582D01*
X108666991Y-61417291D01*
X108668460Y-61535475D01*
X108668533Y-61570590D01*
X108668533Y-61837846D01*
X108524600Y-61895900D01*
X108349058Y-61946393D01*
X108159440Y-61968144D01*
X107982836Y-61959525D01*
X107881441Y-61934540D01*
X107710982Y-61855478D01*
X107585904Y-61756854D01*
X107501558Y-61649645D01*
X107436186Y-61532898D01*
X107386814Y-61400219D01*
X107351672Y-61241100D01*
X107328987Y-61045031D01*
X107316990Y-60801504D01*
X107313867Y-60535909D01*
X107313867Y-59952047D01*
X107119133Y-59941891D01*
X106924400Y-59931734D01*
X106914509Y-59669267D01*
X106904618Y-59406801D01*
X107313867Y-59406801D01*
X107313867Y-58763334D01*
X107788000Y-58763334D01*
X107788000Y-59406801D01*
G37*
X107788000Y-59406801D02*
X108668533Y-59406801D01*
X108668533Y-59948667D01*
X107788000Y-59948667D01*
X107788000Y-60475537D01*
X107790456Y-60671164D01*
X107797215Y-60855119D01*
X107807361Y-61011085D01*
X107819979Y-61122743D01*
X107826006Y-61153343D01*
X107893362Y-61311673D01*
X107998751Y-61416196D01*
X108136584Y-61464921D01*
X108301270Y-61455857D01*
X108484994Y-61388142D01*
X108577907Y-61341691D01*
X108642034Y-61310930D01*
X108660067Y-61303476D01*
X108664023Y-61334582D01*
X108666991Y-61417291D01*
X108668460Y-61535475D01*
X108668533Y-61570590D01*
X108668533Y-61837846D01*
X108524600Y-61895900D01*
X108349058Y-61946393D01*
X108159440Y-61968144D01*
X107982836Y-61959525D01*
X107881441Y-61934540D01*
X107710982Y-61855478D01*
X107585904Y-61756854D01*
X107501558Y-61649645D01*
X107436186Y-61532898D01*
X107386814Y-61400219D01*
X107351672Y-61241100D01*
X107328987Y-61045031D01*
X107316990Y-60801504D01*
X107313867Y-60535909D01*
X107313867Y-59952047D01*
X107119133Y-59941891D01*
X106924400Y-59931734D01*
X106914509Y-59669267D01*
X106904618Y-59406801D01*
X107313867Y-59406801D01*
X107313867Y-58763334D01*
X107788000Y-58763334D01*
X107788000Y-59406801D01*
G36*
X84244737Y-64690396D02*
G01*
X84282447Y-64761787D01*
X84284534Y-64791753D01*
X84279213Y-64855734D01*
X84249793Y-64877803D01*
X84176088Y-64871329D01*
X84166656Y-64869813D01*
X84030623Y-64875405D01*
X83963456Y-64906590D01*
X83926072Y-64934220D01*
X83901587Y-64967585D01*
X83887277Y-65020343D01*
X83880417Y-65106153D01*
X83878282Y-65238674D01*
X83878133Y-65334248D01*
X83878133Y-65706001D01*
X83674933Y-65706001D01*
X83674933Y-64684811D01*
X83785000Y-64692437D01*
X83897429Y-64690555D01*
X84016291Y-64675449D01*
X84019122Y-64674882D01*
X84157793Y-64661794D01*
X84244737Y-64690396D01*
G37*
X84244737Y-64690396D02*
X84282447Y-64761787D01*
X84284534Y-64791753D01*
X84279213Y-64855734D01*
X84249793Y-64877803D01*
X84176088Y-64871329D01*
X84166656Y-64869813D01*
X84030623Y-64875405D01*
X83963456Y-64906590D01*
X83926072Y-64934220D01*
X83901587Y-64967585D01*
X83887277Y-65020343D01*
X83880417Y-65106153D01*
X83878282Y-65238674D01*
X83878133Y-65334248D01*
X83878133Y-65706001D01*
X83674933Y-65706001D01*
X83674933Y-64684811D01*
X83785000Y-64692437D01*
X83897429Y-64690555D01*
X84016291Y-64675449D01*
X84019122Y-64674882D01*
X84157793Y-64661794D01*
X84244737Y-64690396D01*
G36*
X108122282Y-64233094D02*
G01*
X108281132Y-64285487D01*
X108386885Y-64374116D01*
X108412284Y-64414717D01*
X108460047Y-64562879D01*
X108442494Y-64701225D01*
X108418378Y-64753435D01*
X108395802Y-64806845D01*
X108405640Y-64851437D01*
X108456171Y-64908682D01*
X108490648Y-64940865D01*
X108587081Y-65070292D01*
X108627364Y-65218699D01*
X108613605Y-65370512D01*
X108547910Y-65510156D01*
X108432387Y-65622057D01*
X108395512Y-65644117D01*
X108308659Y-65678443D01*
X108194993Y-65698071D01*
X108036762Y-65705667D01*
X107983262Y-65706001D01*
X107686400Y-65706001D01*
X107686400Y-64994801D01*
X107889600Y-64994801D01*
X107889600Y-65502801D01*
X108072115Y-65502801D01*
X108219632Y-65490110D01*
X108319381Y-65449524D01*
X108332888Y-65439431D01*
X108393330Y-65361278D01*
X108411147Y-65248801D01*
X108388670Y-65126843D01*
X108318408Y-65046178D01*
X108196116Y-65003626D01*
X108072115Y-64994801D01*
X107889600Y-64994801D01*
X107686400Y-64994801D01*
X107686400Y-64419067D01*
X107889600Y-64419067D01*
X107889600Y-64791601D01*
X108023146Y-64791601D01*
X108129955Y-64778331D01*
X108197411Y-64731987D01*
X108209413Y-64716332D01*
X108249181Y-64644616D01*
X108262133Y-64597798D01*
X108231930Y-64524061D01*
X108155667Y-64460909D01*
X108054864Y-64423483D01*
X108008133Y-64419067D01*
X107889600Y-64419067D01*
X107686400Y-64419067D01*
X107686400Y-64215867D01*
X107907621Y-64215867D01*
X108122282Y-64233094D01*
G37*
X108122282Y-64233094D02*
X108281132Y-64285487D01*
X108386885Y-64374116D01*
X108412284Y-64414717D01*
X108460047Y-64562879D01*
X108442494Y-64701225D01*
X108418378Y-64753435D01*
X108395802Y-64806845D01*
X108405640Y-64851437D01*
X108456171Y-64908682D01*
X108490648Y-64940865D01*
X108587081Y-65070292D01*
X108627364Y-65218699D01*
X108613605Y-65370512D01*
X108547910Y-65510156D01*
X108432387Y-65622057D01*
X108395512Y-65644117D01*
X108308659Y-65678443D01*
X108194993Y-65698071D01*
X108036762Y-65705667D01*
X107983262Y-65706001D01*
X107686400Y-65706001D01*
X107686400Y-64994801D01*
X107889600Y-64994801D01*
X107889600Y-65502801D01*
X108072115Y-65502801D01*
X108219632Y-65490110D01*
X108319381Y-65449524D01*
X108332888Y-65439431D01*
X108393330Y-65361278D01*
X108411147Y-65248801D01*
X108388670Y-65126843D01*
X108318408Y-65046178D01*
X108196116Y-65003626D01*
X108072115Y-64994801D01*
X107889600Y-64994801D01*
X107686400Y-64994801D01*
X107686400Y-64419067D01*
X107889600Y-64419067D01*
X107889600Y-64791601D01*
X108023146Y-64791601D01*
X108129955Y-64778331D01*
X108197411Y-64731987D01*
X108209413Y-64716332D01*
X108249181Y-64644616D01*
X108262133Y-64597798D01*
X108231930Y-64524061D01*
X108155667Y-64460909D01*
X108054864Y-64423483D01*
X108008133Y-64419067D01*
X107889600Y-64419067D01*
X107686400Y-64419067D01*
X107686400Y-64215867D01*
X107907621Y-64215867D01*
X108122282Y-64233094D01*
G36*
X87870319Y-64700283D02*
G01*
X87987663Y-64791759D01*
X88017346Y-64828162D01*
X88062991Y-64911168D01*
X88101985Y-65018100D01*
X88127845Y-65124976D01*
X88134087Y-65207810D01*
X88127059Y-65234036D01*
X88086749Y-65247780D01*
X87994703Y-65258519D01*
X87866900Y-65264759D01*
X87787735Y-65265734D01*
X87621674Y-65269503D01*
X87514106Y-65280498D01*
X87469132Y-65298250D01*
X87468000Y-65302206D01*
X87490153Y-65347286D01*
X87545432Y-65415232D01*
X87566995Y-65437672D01*
X87689237Y-65518283D01*
X87826970Y-65533824D01*
X87975829Y-65483982D01*
X88002219Y-65468807D01*
X88087161Y-65419302D01*
X88129356Y-65408991D01*
X88143763Y-65441601D01*
X88145334Y-65504456D01*
X88136163Y-65573364D01*
X88097472Y-65621321D01*
X88012491Y-65667968D01*
X88001400Y-65673046D01*
X87845686Y-65726731D01*
X87710185Y-65730605D01*
X87584855Y-65692230D01*
X87450520Y-65600889D01*
X87344012Y-65466717D01*
X87284296Y-65314034D01*
X87282576Y-65304590D01*
X87276866Y-65126818D01*
X87284519Y-65096401D01*
X87466261Y-65096401D01*
X87704197Y-65096401D01*
X87847135Y-65091152D01*
X87925105Y-65075187D01*
X87942134Y-65056250D01*
X87920677Y-65005150D01*
X87869027Y-64938282D01*
X87868497Y-64937717D01*
X87767967Y-64869099D01*
X87664779Y-64864517D01*
X87570946Y-64921882D01*
X87516678Y-64998905D01*
X87466261Y-65096401D01*
X87284519Y-65096401D01*
X87316437Y-64969548D01*
X87392054Y-64838767D01*
X87494486Y-64740463D01*
X87614496Y-64680622D01*
X87742852Y-64665233D01*
X87870319Y-64700283D01*
G37*
X87870319Y-64700283D02*
X87987663Y-64791759D01*
X88017346Y-64828162D01*
X88062991Y-64911168D01*
X88101985Y-65018100D01*
X88127845Y-65124976D01*
X88134087Y-65207810D01*
X88127059Y-65234036D01*
X88086749Y-65247780D01*
X87994703Y-65258519D01*
X87866900Y-65264759D01*
X87787735Y-65265734D01*
X87621674Y-65269503D01*
X87514106Y-65280498D01*
X87469132Y-65298250D01*
X87468000Y-65302206D01*
X87490153Y-65347286D01*
X87545432Y-65415232D01*
X87566995Y-65437672D01*
X87689237Y-65518283D01*
X87826970Y-65533824D01*
X87975829Y-65483982D01*
X88002219Y-65468807D01*
X88087161Y-65419302D01*
X88129356Y-65408991D01*
X88143763Y-65441601D01*
X88145334Y-65504456D01*
X88136163Y-65573364D01*
X88097472Y-65621321D01*
X88012491Y-65667968D01*
X88001400Y-65673046D01*
X87845686Y-65726731D01*
X87710185Y-65730605D01*
X87584855Y-65692230D01*
X87450520Y-65600889D01*
X87344012Y-65466717D01*
X87284296Y-65314034D01*
X87282576Y-65304590D01*
X87276866Y-65126818D01*
X87284519Y-65096401D01*
X87466261Y-65096401D01*
X87704197Y-65096401D01*
X87847135Y-65091152D01*
X87925105Y-65075187D01*
X87942134Y-65056250D01*
X87920677Y-65005150D01*
X87869027Y-64938282D01*
X87868497Y-64937717D01*
X87767967Y-64869099D01*
X87664779Y-64864517D01*
X87570946Y-64921882D01*
X87516678Y-64998905D01*
X87466261Y-65096401D01*
X87284519Y-65096401D01*
X87316437Y-64969548D01*
X87392054Y-64838767D01*
X87494486Y-64740463D01*
X87614496Y-64680622D01*
X87742852Y-64665233D01*
X87870319Y-64700283D01*
G36*
X103821519Y-64700283D02*
G01*
X103938863Y-64791759D01*
X103968546Y-64828162D01*
X104014191Y-64911168D01*
X104053185Y-65018100D01*
X104079045Y-65124976D01*
X104085287Y-65207810D01*
X104078259Y-65234036D01*
X104037949Y-65247780D01*
X103945903Y-65258519D01*
X103818100Y-65264759D01*
X103738935Y-65265734D01*
X103572874Y-65269503D01*
X103465306Y-65280498D01*
X103420332Y-65298250D01*
X103419200Y-65302206D01*
X103441353Y-65347286D01*
X103496632Y-65415232D01*
X103518195Y-65437672D01*
X103640437Y-65518283D01*
X103778170Y-65533824D01*
X103927029Y-65483982D01*
X103953419Y-65468807D01*
X104038361Y-65419302D01*
X104080556Y-65408991D01*
X104094963Y-65441601D01*
X104096533Y-65504456D01*
X104087363Y-65573364D01*
X104048672Y-65621321D01*
X103963691Y-65667968D01*
X103952600Y-65673046D01*
X103796886Y-65726731D01*
X103661385Y-65730605D01*
X103536055Y-65692230D01*
X103401720Y-65600889D01*
X103295212Y-65466717D01*
X103235496Y-65314034D01*
X103233776Y-65304590D01*
X103228066Y-65126818D01*
X103235719Y-65096401D01*
X103417461Y-65096401D01*
X103655397Y-65096401D01*
X103798335Y-65091152D01*
X103876305Y-65075187D01*
X103893333Y-65056250D01*
X103871877Y-65005150D01*
X103820227Y-64938282D01*
X103819697Y-64937717D01*
X103719167Y-64869099D01*
X103615979Y-64864517D01*
X103522146Y-64921882D01*
X103467878Y-64998905D01*
X103417461Y-65096401D01*
X103235719Y-65096401D01*
X103267637Y-64969548D01*
X103343254Y-64838767D01*
X103445686Y-64740463D01*
X103565696Y-64680622D01*
X103694052Y-64665233D01*
X103821519Y-64700283D01*
G37*
X103821519Y-64700283D02*
X103938863Y-64791759D01*
X103968546Y-64828162D01*
X104014191Y-64911168D01*
X104053185Y-65018100D01*
X104079045Y-65124976D01*
X104085287Y-65207810D01*
X104078259Y-65234036D01*
X104037949Y-65247780D01*
X103945903Y-65258519D01*
X103818100Y-65264759D01*
X103738935Y-65265734D01*
X103572874Y-65269503D01*
X103465306Y-65280498D01*
X103420332Y-65298250D01*
X103419200Y-65302206D01*
X103441353Y-65347286D01*
X103496632Y-65415232D01*
X103518195Y-65437672D01*
X103640437Y-65518283D01*
X103778170Y-65533824D01*
X103927029Y-65483982D01*
X103953419Y-65468807D01*
X104038361Y-65419302D01*
X104080556Y-65408991D01*
X104094963Y-65441601D01*
X104096533Y-65504456D01*
X104087363Y-65573364D01*
X104048672Y-65621321D01*
X103963691Y-65667968D01*
X103952600Y-65673046D01*
X103796886Y-65726731D01*
X103661385Y-65730605D01*
X103536055Y-65692230D01*
X103401720Y-65600889D01*
X103295212Y-65466717D01*
X103235496Y-65314034D01*
X103233776Y-65304590D01*
X103228066Y-65126818D01*
X103235719Y-65096401D01*
X103417461Y-65096401D01*
X103655397Y-65096401D01*
X103798335Y-65091152D01*
X103876305Y-65075187D01*
X103893333Y-65056250D01*
X103871877Y-65005150D01*
X103820227Y-64938282D01*
X103819697Y-64937717D01*
X103719167Y-64869099D01*
X103615979Y-64864517D01*
X103522146Y-64921882D01*
X103467878Y-64998905D01*
X103417461Y-65096401D01*
X103235719Y-65096401D01*
X103267637Y-64969548D01*
X103343254Y-64838767D01*
X103445686Y-64740463D01*
X103565696Y-64680622D01*
X103694052Y-64665233D01*
X103821519Y-64700283D01*
G36*
X92034700Y-64686935D02*
G01*
X92165059Y-64756737D01*
X92275198Y-64880532D01*
X92302467Y-64928282D01*
X92366504Y-65105044D01*
X92369132Y-65277658D01*
X92324015Y-65434819D01*
X92234757Y-65578904D01*
X92108401Y-65678083D01*
X91959451Y-65726641D01*
X91802411Y-65718866D01*
X91701333Y-65680076D01*
X91594144Y-65590982D01*
X91503756Y-65459880D01*
X91444931Y-65312465D01*
X91430400Y-65208443D01*
X91431880Y-65198001D01*
X91633600Y-65198001D01*
X91658386Y-65327228D01*
X91723521Y-65438162D01*
X91815172Y-65513512D01*
X91904533Y-65536667D01*
X92006477Y-65506253D01*
X92087790Y-65432469D01*
X92160235Y-65305371D01*
X92175467Y-65198001D01*
X92150681Y-65068773D01*
X92085546Y-64957839D01*
X91993895Y-64882489D01*
X91904533Y-64859334D01*
X91801152Y-64890316D01*
X91712404Y-64971735D01*
X91652124Y-65086299D01*
X91633600Y-65198001D01*
X91431880Y-65198001D01*
X91456152Y-65026864D01*
X91526234Y-64878541D01*
X91629888Y-64766930D01*
X91756356Y-64695488D01*
X91894879Y-64667671D01*
X92034700Y-64686935D01*
G37*
X92034700Y-64686935D02*
X92165059Y-64756737D01*
X92275198Y-64880532D01*
X92302467Y-64928282D01*
X92366504Y-65105044D01*
X92369132Y-65277658D01*
X92324015Y-65434819D01*
X92234757Y-65578904D01*
X92108401Y-65678083D01*
X91959451Y-65726641D01*
X91802411Y-65718866D01*
X91701333Y-65680076D01*
X91594144Y-65590982D01*
X91503756Y-65459880D01*
X91444931Y-65312465D01*
X91430400Y-65208443D01*
X91431880Y-65198001D01*
X91633600Y-65198001D01*
X91658386Y-65327228D01*
X91723521Y-65438162D01*
X91815172Y-65513512D01*
X91904533Y-65536667D01*
X92006477Y-65506253D01*
X92087790Y-65432469D01*
X92160235Y-65305371D01*
X92175467Y-65198001D01*
X92150681Y-65068773D01*
X92085546Y-64957839D01*
X91993895Y-64882489D01*
X91904533Y-64859334D01*
X91801152Y-64890316D01*
X91712404Y-64971735D01*
X91652124Y-65086299D01*
X91633600Y-65198001D01*
X91431880Y-65198001D01*
X91456152Y-65026864D01*
X91526234Y-64878541D01*
X91629888Y-64766930D01*
X91756356Y-64695488D01*
X91894879Y-64667671D01*
X92034700Y-64686935D01*
G36*
X112055200Y-65708744D02*
G01*
X111928200Y-65705326D01*
X111804756Y-65708674D01*
X111675432Y-65721423D01*
X111665734Y-65722868D01*
X111531076Y-65724086D01*
X111412578Y-65679014D01*
X111301245Y-65585276D01*
X111209898Y-65449286D01*
X111152799Y-65296287D01*
X111141761Y-65205866D01*
X111345014Y-65205866D01*
X111366668Y-65324284D01*
X111421749Y-65425941D01*
X111502835Y-65499645D01*
X111602503Y-65534199D01*
X111713331Y-65518410D01*
X111776731Y-65483947D01*
X111817430Y-65446651D01*
X111840276Y-65394193D01*
X111850154Y-65308024D01*
X111852000Y-65198001D01*
X111849164Y-65069906D01*
X111837398Y-64990874D01*
X111811822Y-64942354D01*
X111776731Y-64912054D01*
X111656598Y-64861812D01*
X111540254Y-64878244D01*
X111434377Y-64960356D01*
X111431677Y-64963532D01*
X111364209Y-65081884D01*
X111345014Y-65205866D01*
X111141761Y-65205866D01*
X111140800Y-65198001D01*
X111167084Y-65048180D01*
X111236549Y-64899151D01*
X111335120Y-64775774D01*
X111412049Y-64718968D01*
X111554094Y-64664469D01*
X111687408Y-64665870D01*
X111765129Y-64689162D01*
X111852000Y-64722191D01*
X111852000Y-64215867D01*
X112055200Y-64215867D01*
X112055200Y-65708744D01*
G37*
X112055200Y-65708744D02*
X111928200Y-65705326D01*
X111804756Y-65708674D01*
X111675432Y-65721423D01*
X111665734Y-65722868D01*
X111531076Y-65724086D01*
X111412578Y-65679014D01*
X111301245Y-65585276D01*
X111209898Y-65449286D01*
X111152799Y-65296287D01*
X111141761Y-65205866D01*
X111345014Y-65205866D01*
X111366668Y-65324284D01*
X111421749Y-65425941D01*
X111502835Y-65499645D01*
X111602503Y-65534199D01*
X111713331Y-65518410D01*
X111776731Y-65483947D01*
X111817430Y-65446651D01*
X111840276Y-65394193D01*
X111850154Y-65308024D01*
X111852000Y-65198001D01*
X111849164Y-65069906D01*
X111837398Y-64990874D01*
X111811822Y-64942354D01*
X111776731Y-64912054D01*
X111656598Y-64861812D01*
X111540254Y-64878244D01*
X111434377Y-64960356D01*
X111431677Y-64963532D01*
X111364209Y-65081884D01*
X111345014Y-65205866D01*
X111141761Y-65205866D01*
X111140800Y-65198001D01*
X111167084Y-65048180D01*
X111236549Y-64899151D01*
X111335120Y-64775774D01*
X111412049Y-64718968D01*
X111554094Y-64664469D01*
X111687408Y-64665870D01*
X111765129Y-64689162D01*
X111852000Y-64722191D01*
X111852000Y-64215867D01*
X112055200Y-64215867D01*
X112055200Y-65708744D01*
G36*
X98338058Y-64691054D02*
G01*
X98449049Y-64742771D01*
X98528272Y-64838647D01*
X98579130Y-64984286D01*
X98605030Y-65185292D01*
X98610134Y-65366246D01*
X98610134Y-65706001D01*
X98406934Y-65706001D01*
X98406934Y-65350401D01*
X98405413Y-65186576D01*
X98399306Y-65075958D01*
X98386293Y-65004055D01*
X98364058Y-64956378D01*
X98339200Y-64927067D01*
X98238931Y-64870623D01*
X98118903Y-64866195D01*
X98008069Y-64912054D01*
X97974872Y-64940090D01*
X97953172Y-64977585D01*
X97940549Y-65038147D01*
X97934583Y-65135383D01*
X97932854Y-65282904D01*
X97932800Y-65335388D01*
X97932800Y-65706001D01*
X97729600Y-65706001D01*
X97729600Y-64689453D01*
X97873534Y-64685921D01*
X97998806Y-64682801D01*
X98142402Y-64679162D01*
X98191894Y-64677893D01*
X98338058Y-64691054D01*
G37*
X98338058Y-64691054D02*
X98449049Y-64742771D01*
X98528272Y-64838647D01*
X98579130Y-64984286D01*
X98605030Y-65185292D01*
X98610134Y-65366246D01*
X98610134Y-65706001D01*
X98406934Y-65706001D01*
X98406934Y-65350401D01*
X98405413Y-65186576D01*
X98399306Y-65075958D01*
X98386293Y-65004055D01*
X98364058Y-64956378D01*
X98339200Y-64927067D01*
X98238931Y-64870623D01*
X98118903Y-64866195D01*
X98008069Y-64912054D01*
X97974872Y-64940090D01*
X97953172Y-64977585D01*
X97940549Y-65038147D01*
X97934583Y-65135383D01*
X97932854Y-65282904D01*
X97932800Y-65335388D01*
X97932800Y-65706001D01*
X97729600Y-65706001D01*
X97729600Y-64689453D01*
X97873534Y-64685921D01*
X97998806Y-64682801D01*
X98142402Y-64679162D01*
X98191894Y-64677893D01*
X98338058Y-64691054D01*
G36*
X94241334Y-65706001D02*
G01*
X94038134Y-65706001D01*
X94038134Y-64690001D01*
X94241334Y-64690001D01*
X94241334Y-65706001D01*
G37*
X94241334Y-65706001D02*
X94038134Y-65706001D01*
X94038134Y-64690001D01*
X94241334Y-64690001D01*
X94241334Y-65706001D01*
G36*
X86756800Y-64822697D02*
G01*
X86757908Y-65021674D01*
X86760982Y-65199388D01*
X86765650Y-65343833D01*
X86771536Y-65443000D01*
X86777357Y-65483097D01*
X86826413Y-65527723D01*
X86910681Y-65531875D01*
X86996093Y-65501609D01*
X87041875Y-65485242D01*
X87059303Y-65513775D01*
X87061600Y-65568151D01*
X87033161Y-65660730D01*
X86959269Y-65720896D01*
X86857063Y-65742125D01*
X86743679Y-65717894D01*
X86711294Y-65701512D01*
X86658917Y-65659916D01*
X86619077Y-65598203D01*
X86590233Y-65507819D01*
X86570841Y-65380213D01*
X86559362Y-65206830D01*
X86554253Y-64979119D01*
X86553600Y-64826555D01*
X86553600Y-64215867D01*
X86756800Y-64215867D01*
X86756800Y-64822697D01*
G37*
X86756800Y-64822697D02*
X86757908Y-65021674D01*
X86760982Y-65199388D01*
X86765650Y-65343833D01*
X86771536Y-65443000D01*
X86777357Y-65483097D01*
X86826413Y-65527723D01*
X86910681Y-65531875D01*
X86996093Y-65501609D01*
X87041875Y-65485242D01*
X87059303Y-65513775D01*
X87061600Y-65568151D01*
X87033161Y-65660730D01*
X86959269Y-65720896D01*
X86857063Y-65742125D01*
X86743679Y-65717894D01*
X86711294Y-65701512D01*
X86658917Y-65659916D01*
X86619077Y-65598203D01*
X86590233Y-65507819D01*
X86570841Y-65380213D01*
X86559362Y-65206830D01*
X86554253Y-64979119D01*
X86553600Y-64826555D01*
X86553600Y-64215867D01*
X86756800Y-64215867D01*
X86756800Y-64822697D01*
G36*
X79073056Y-58138040D02*
G01*
X79290159Y-58201223D01*
X79489580Y-58312825D01*
X79653405Y-58464429D01*
X79701374Y-58528918D01*
X79795172Y-58670656D01*
X79626853Y-58817899D01*
X79536185Y-58893294D01*
X79463498Y-58946632D01*
X79426095Y-58965837D01*
X79384958Y-58944328D01*
X79316000Y-58888691D01*
X79271766Y-58847511D01*
X79128105Y-58736351D01*
X78987721Y-58689805D01*
X78843381Y-58705577D01*
X78834310Y-58708497D01*
X78732961Y-58772670D01*
X78648936Y-58878521D01*
X78600448Y-59000002D01*
X78595060Y-59050672D01*
X78624521Y-59161171D01*
X78703115Y-59277297D01*
X78816725Y-59380449D01*
X78872211Y-59415837D01*
X78971251Y-59471363D01*
X79104760Y-59546011D01*
X79248020Y-59625966D01*
X79285950Y-59647108D01*
X79432220Y-59735220D01*
X79578203Y-59834069D01*
X79696732Y-59925040D01*
X79716054Y-59941814D01*
X79885105Y-60133443D01*
X80000254Y-60349592D01*
X80064299Y-60581575D01*
X80080036Y-60820709D01*
X80050265Y-61058310D01*
X79977782Y-61285692D01*
X79865386Y-61494172D01*
X79715874Y-61675066D01*
X79532043Y-61819689D01*
X79316691Y-61919357D01*
X79072616Y-61965386D01*
X79063990Y-61965896D01*
X78931921Y-61967813D01*
X78812083Y-61960554D01*
X78747334Y-61949615D01*
X78498603Y-61846825D01*
X78285131Y-61689030D01*
X78115600Y-61483324D01*
X78062432Y-61389999D01*
X77976259Y-61219946D01*
X78157127Y-61057950D01*
X78249194Y-60979669D01*
X78322579Y-60924951D01*
X78362583Y-60904665D01*
X78364075Y-60904911D01*
X78393835Y-60936585D01*
X78445548Y-61010279D01*
X78501012Y-61098580D01*
X78622030Y-61261055D01*
X78756783Y-61361851D01*
X78914410Y-61406867D01*
X78984400Y-61410578D01*
X79163001Y-61381171D01*
X79311529Y-61300585D01*
X79425695Y-61180276D01*
X79501213Y-61031698D01*
X79533792Y-60866308D01*
X79519146Y-60695561D01*
X79452985Y-60530911D01*
X79358927Y-60410118D01*
X79287384Y-60350993D01*
X79172048Y-60269533D01*
X79028410Y-60176165D01*
X78871960Y-60081315D01*
X78860421Y-60074594D01*
X78606182Y-59917864D01*
X78409658Y-59773853D01*
X78264035Y-59634697D01*
X78162498Y-59492533D01*
X78098233Y-59339497D01*
X78064423Y-59167725D01*
X78062981Y-59154406D01*
X78069350Y-58914946D01*
X78133755Y-58690485D01*
X78248675Y-58490720D01*
X78406590Y-58325345D01*
X78599981Y-58204057D01*
X78821327Y-58136551D01*
X78856184Y-58131697D01*
X79073056Y-58138040D01*
G37*
X79073056Y-58138040D02*
X79290159Y-58201223D01*
X79489580Y-58312825D01*
X79653405Y-58464429D01*
X79701374Y-58528918D01*
X79795172Y-58670656D01*
X79626853Y-58817899D01*
X79536185Y-58893294D01*
X79463498Y-58946632D01*
X79426095Y-58965837D01*
X79384958Y-58944328D01*
X79316000Y-58888691D01*
X79271766Y-58847511D01*
X79128105Y-58736351D01*
X78987721Y-58689805D01*
X78843381Y-58705577D01*
X78834310Y-58708497D01*
X78732961Y-58772670D01*
X78648936Y-58878521D01*
X78600448Y-59000002D01*
X78595060Y-59050672D01*
X78624521Y-59161171D01*
X78703115Y-59277297D01*
X78816725Y-59380449D01*
X78872211Y-59415837D01*
X78971251Y-59471363D01*
X79104760Y-59546011D01*
X79248020Y-59625966D01*
X79285950Y-59647108D01*
X79432220Y-59735220D01*
X79578203Y-59834069D01*
X79696732Y-59925040D01*
X79716054Y-59941814D01*
X79885105Y-60133443D01*
X80000254Y-60349592D01*
X80064299Y-60581575D01*
X80080036Y-60820709D01*
X80050265Y-61058310D01*
X79977782Y-61285692D01*
X79865386Y-61494172D01*
X79715874Y-61675066D01*
X79532043Y-61819689D01*
X79316691Y-61919357D01*
X79072616Y-61965386D01*
X79063990Y-61965896D01*
X78931921Y-61967813D01*
X78812083Y-61960554D01*
X78747334Y-61949615D01*
X78498603Y-61846825D01*
X78285131Y-61689030D01*
X78115600Y-61483324D01*
X78062432Y-61389999D01*
X77976259Y-61219946D01*
X78157127Y-61057950D01*
X78249194Y-60979669D01*
X78322579Y-60924951D01*
X78362583Y-60904665D01*
X78364075Y-60904911D01*
X78393835Y-60936585D01*
X78445548Y-61010279D01*
X78501012Y-61098580D01*
X78622030Y-61261055D01*
X78756783Y-61361851D01*
X78914410Y-61406867D01*
X78984400Y-61410578D01*
X79163001Y-61381171D01*
X79311529Y-61300585D01*
X79425695Y-61180276D01*
X79501213Y-61031698D01*
X79533792Y-60866308D01*
X79519146Y-60695561D01*
X79452985Y-60530911D01*
X79358927Y-60410118D01*
X79287384Y-60350993D01*
X79172048Y-60269533D01*
X79028410Y-60176165D01*
X78871960Y-60081315D01*
X78860421Y-60074594D01*
X78606182Y-59917864D01*
X78409658Y-59773853D01*
X78264035Y-59634697D01*
X78162498Y-59492533D01*
X78098233Y-59339497D01*
X78064423Y-59167725D01*
X78062981Y-59154406D01*
X78069350Y-58914946D01*
X78133755Y-58690485D01*
X78248675Y-58490720D01*
X78406590Y-58325345D01*
X78599981Y-58204057D01*
X78821327Y-58136551D01*
X78856184Y-58131697D01*
X79073056Y-58138040D01*
G36*
X78577805Y-64225887D02*
G01*
X78688498Y-64296344D01*
X78736673Y-64370153D01*
X78720298Y-64443081D01*
X78695444Y-64470853D01*
X78641900Y-64510982D01*
X78600842Y-64503240D01*
X78566867Y-64475116D01*
X78477550Y-64426338D01*
X78389981Y-64429499D01*
X78325794Y-64483558D01*
X78324000Y-64486801D01*
X78305601Y-64562782D01*
X78338498Y-64636980D01*
X78427720Y-64716284D01*
X78544388Y-64788801D01*
X78710039Y-64905459D01*
X78813800Y-65036917D01*
X78861191Y-65191372D01*
X78865614Y-65265734D01*
X78838744Y-65431286D01*
X78765599Y-65569964D01*
X78657376Y-65672460D01*
X78525271Y-65729465D01*
X78380481Y-65731670D01*
X78324000Y-65716035D01*
X78250320Y-65672173D01*
X78172759Y-65602010D01*
X78111553Y-65526730D01*
X78086934Y-65467847D01*
X78110499Y-65402431D01*
X78148526Y-65355958D01*
X78192344Y-65323931D01*
X78227660Y-65332715D01*
X78276108Y-65389532D01*
X78285007Y-65401509D01*
X78374868Y-65481544D01*
X78474037Y-65505221D01*
X78566217Y-65471608D01*
X78613547Y-65420323D01*
X78659053Y-65305035D01*
X78639067Y-65195180D01*
X78552680Y-65087880D01*
X78493334Y-65040689D01*
X78381098Y-64957225D01*
X78270819Y-64870715D01*
X78228768Y-64835958D01*
X78137493Y-64723820D01*
X78098877Y-64598917D01*
X78106230Y-64472945D01*
X78152861Y-64357599D01*
X78232078Y-64264573D01*
X78337190Y-64205563D01*
X78461506Y-64192264D01*
X78577805Y-64225887D01*
G37*
X78577805Y-64225887D02*
X78688498Y-64296344D01*
X78736673Y-64370153D01*
X78720298Y-64443081D01*
X78695444Y-64470853D01*
X78641900Y-64510982D01*
X78600842Y-64503240D01*
X78566867Y-64475116D01*
X78477550Y-64426338D01*
X78389981Y-64429499D01*
X78325794Y-64483558D01*
X78324000Y-64486801D01*
X78305601Y-64562782D01*
X78338498Y-64636980D01*
X78427720Y-64716284D01*
X78544388Y-64788801D01*
X78710039Y-64905459D01*
X78813800Y-65036917D01*
X78861191Y-65191372D01*
X78865614Y-65265734D01*
X78838744Y-65431286D01*
X78765599Y-65569964D01*
X78657376Y-65672460D01*
X78525271Y-65729465D01*
X78380481Y-65731670D01*
X78324000Y-65716035D01*
X78250320Y-65672173D01*
X78172759Y-65602010D01*
X78111553Y-65526730D01*
X78086934Y-65467847D01*
X78110499Y-65402431D01*
X78148526Y-65355958D01*
X78192344Y-65323931D01*
X78227660Y-65332715D01*
X78276108Y-65389532D01*
X78285007Y-65401509D01*
X78374868Y-65481544D01*
X78474037Y-65505221D01*
X78566217Y-65471608D01*
X78613547Y-65420323D01*
X78659053Y-65305035D01*
X78639067Y-65195180D01*
X78552680Y-65087880D01*
X78493334Y-65040689D01*
X78381098Y-64957225D01*
X78270819Y-64870715D01*
X78228768Y-64835958D01*
X78137493Y-64723820D01*
X78098877Y-64598917D01*
X78106230Y-64472945D01*
X78152861Y-64357599D01*
X78232078Y-64264573D01*
X78337190Y-64205563D01*
X78461506Y-64192264D01*
X78577805Y-64225887D01*
G36*
X112632798Y-59354957D02*
G01*
X112854180Y-59417268D01*
X113044118Y-59536001D01*
X113197980Y-59709375D01*
X113278147Y-59854258D01*
X113302068Y-59909683D01*
X113320876Y-59963632D01*
X113335302Y-60025022D01*
X113346077Y-60102768D01*
X113353934Y-60205786D01*
X113359602Y-60342993D01*
X113363814Y-60523304D01*
X113367301Y-60755635D01*
X113369923Y-60973134D01*
X113380779Y-61912934D01*
X113141323Y-61912934D01*
X113013110Y-61910278D01*
X112939368Y-61900352D01*
X112906973Y-61880216D01*
X112901867Y-61859312D01*
X112889333Y-61819579D01*
X112876467Y-61818764D01*
X112619465Y-61922442D01*
X112366900Y-61969324D01*
X112129445Y-61957993D01*
X112025244Y-61931877D01*
X111839646Y-61838022D01*
X111694628Y-61696360D01*
X111597110Y-61517862D01*
X111554012Y-61313497D01*
X111556069Y-61211741D01*
X112055200Y-61211741D01*
X112083137Y-61332790D01*
X112162108Y-61417244D01*
X112284858Y-61463003D01*
X112444129Y-61467967D01*
X112632665Y-61430035D01*
X112714330Y-61402501D01*
X112901867Y-61332334D01*
X112901867Y-60761467D01*
X112772547Y-60761467D01*
X112581441Y-60781486D01*
X112403531Y-60836589D01*
X112250651Y-60919352D01*
X112134631Y-61022345D01*
X112067304Y-61138143D01*
X112055200Y-61211741D01*
X111556069Y-61211741D01*
X111556532Y-61188840D01*
X111608754Y-60957925D01*
X111714957Y-60762627D01*
X111876583Y-60601750D01*
X112095073Y-60474099D01*
X112371866Y-60378480D01*
X112590152Y-60331827D01*
X112722943Y-60307973D01*
X112827579Y-60287280D01*
X112888179Y-60272973D01*
X112896775Y-60269556D01*
X112898724Y-60226428D01*
X112872893Y-60149223D01*
X112829372Y-60060024D01*
X112778256Y-59980909D01*
X112750593Y-59949725D01*
X112632068Y-59881648D01*
X112474290Y-59853150D01*
X112292088Y-59863034D01*
X112100293Y-59910103D01*
X111913737Y-59993161D01*
X111867121Y-60021009D01*
X111777667Y-60073290D01*
X111713106Y-60102756D01*
X111692144Y-60104900D01*
X111695700Y-60068013D01*
X111718772Y-59982339D01*
X111757139Y-59862527D01*
X111785384Y-59781353D01*
X111895193Y-59474375D01*
X112114230Y-59406721D01*
X112384605Y-59350847D01*
X112632798Y-59354957D01*
G37*
X112632798Y-59354957D02*
X112854180Y-59417268D01*
X113044118Y-59536001D01*
X113197980Y-59709375D01*
X113278147Y-59854258D01*
X113302068Y-59909683D01*
X113320876Y-59963632D01*
X113335302Y-60025022D01*
X113346077Y-60102768D01*
X113353934Y-60205786D01*
X113359602Y-60342993D01*
X113363814Y-60523304D01*
X113367301Y-60755635D01*
X113369923Y-60973134D01*
X113380779Y-61912934D01*
X113141323Y-61912934D01*
X113013110Y-61910278D01*
X112939368Y-61900352D01*
X112906973Y-61880216D01*
X112901867Y-61859312D01*
X112889333Y-61819579D01*
X112876467Y-61818764D01*
X112619465Y-61922442D01*
X112366900Y-61969324D01*
X112129445Y-61957993D01*
X112025244Y-61931877D01*
X111839646Y-61838022D01*
X111694628Y-61696360D01*
X111597110Y-61517862D01*
X111554012Y-61313497D01*
X111556069Y-61211741D01*
X112055200Y-61211741D01*
X112083137Y-61332790D01*
X112162108Y-61417244D01*
X112284858Y-61463003D01*
X112444129Y-61467967D01*
X112632665Y-61430035D01*
X112714330Y-61402501D01*
X112901867Y-61332334D01*
X112901867Y-60761467D01*
X112772547Y-60761467D01*
X112581441Y-60781486D01*
X112403531Y-60836589D01*
X112250651Y-60919352D01*
X112134631Y-61022345D01*
X112067304Y-61138143D01*
X112055200Y-61211741D01*
X111556069Y-61211741D01*
X111556532Y-61188840D01*
X111608754Y-60957925D01*
X111714957Y-60762627D01*
X111876583Y-60601750D01*
X112095073Y-60474099D01*
X112371866Y-60378480D01*
X112590152Y-60331827D01*
X112722943Y-60307973D01*
X112827579Y-60287280D01*
X112888179Y-60272973D01*
X112896775Y-60269556D01*
X112898724Y-60226428D01*
X112872893Y-60149223D01*
X112829372Y-60060024D01*
X112778256Y-59980909D01*
X112750593Y-59949725D01*
X112632068Y-59881648D01*
X112474290Y-59853150D01*
X112292088Y-59863034D01*
X112100293Y-59910103D01*
X111913737Y-59993161D01*
X111867121Y-60021009D01*
X111777667Y-60073290D01*
X111713106Y-60102756D01*
X111692144Y-60104900D01*
X111695700Y-60068013D01*
X111718772Y-59982339D01*
X111757139Y-59862527D01*
X111785384Y-59781353D01*
X111895193Y-59474375D01*
X112114230Y-59406721D01*
X112384605Y-59350847D01*
X112632798Y-59354957D01*
G36*
X124971047Y-58142161D02*
G01*
X125268473Y-58220000D01*
X125552220Y-58355494D01*
X125815658Y-58547838D01*
X126052154Y-58796223D01*
X126177467Y-58970435D01*
X126307086Y-59201510D01*
X126394932Y-59436253D01*
X126445937Y-59693165D01*
X126465037Y-59990745D01*
X126465467Y-60050267D01*
X126462001Y-60253648D01*
X126449808Y-60412110D01*
X126426193Y-60548195D01*
X126390437Y-60678207D01*
X126259895Y-60992446D01*
X126081114Y-61271138D01*
X125861372Y-61509861D01*
X125607949Y-61704190D01*
X125328121Y-61849700D01*
X125029167Y-61941969D01*
X124718366Y-61976572D01*
X124402996Y-61949085D01*
X124326715Y-61932583D01*
X124049891Y-61838922D01*
X123795296Y-61694589D01*
X123549689Y-61491816D01*
X123510879Y-61453965D01*
X123281699Y-61180665D01*
X123109670Y-60879060D01*
X122994794Y-60557196D01*
X122937070Y-60223121D01*
X122936882Y-60111387D01*
X123478013Y-60111387D01*
X123517245Y-60386520D01*
X123606691Y-60646398D01*
X123740560Y-60882181D01*
X123913065Y-61085031D01*
X124118417Y-61246109D01*
X124350828Y-61356577D01*
X124522016Y-61398376D01*
X124738176Y-61415846D01*
X124933062Y-61392479D01*
X125136661Y-61323946D01*
X125184942Y-61302677D01*
X125420962Y-61160310D01*
X125614529Y-60973188D01*
X125764161Y-60750490D01*
X125868375Y-60501398D01*
X125925690Y-60235094D01*
X125934623Y-59960758D01*
X125893692Y-59687572D01*
X125801414Y-59424717D01*
X125656307Y-59181373D01*
X125548066Y-59053532D01*
X125335964Y-58874749D01*
X125106811Y-58756424D01*
X124867888Y-58695805D01*
X124626476Y-58690139D01*
X124389857Y-58736672D01*
X124165313Y-58832652D01*
X123960124Y-58975325D01*
X123781573Y-59161940D01*
X123636941Y-59389742D01*
X123533509Y-59655978D01*
X123494781Y-59829836D01*
X123478013Y-60111387D01*
X122936882Y-60111387D01*
X122936498Y-59884880D01*
X122993078Y-59550520D01*
X123106811Y-59228087D01*
X123277696Y-58925628D01*
X123505733Y-58651190D01*
X123510879Y-58646040D01*
X123777211Y-58423498D01*
X124063026Y-58262646D01*
X124361692Y-58162677D01*
X124666577Y-58122785D01*
X124971047Y-58142161D01*
G37*
X124971047Y-58142161D02*
X125268473Y-58220000D01*
X125552220Y-58355494D01*
X125815658Y-58547838D01*
X126052154Y-58796223D01*
X126177467Y-58970435D01*
X126307086Y-59201510D01*
X126394932Y-59436253D01*
X126445937Y-59693165D01*
X126465037Y-59990745D01*
X126465467Y-60050267D01*
X126462001Y-60253648D01*
X126449808Y-60412110D01*
X126426193Y-60548195D01*
X126390437Y-60678207D01*
X126259895Y-60992446D01*
X126081114Y-61271138D01*
X125861372Y-61509861D01*
X125607949Y-61704190D01*
X125328121Y-61849700D01*
X125029167Y-61941969D01*
X124718366Y-61976572D01*
X124402996Y-61949085D01*
X124326715Y-61932583D01*
X124049891Y-61838922D01*
X123795296Y-61694589D01*
X123549689Y-61491816D01*
X123510879Y-61453965D01*
X123281699Y-61180665D01*
X123109670Y-60879060D01*
X122994794Y-60557196D01*
X122937070Y-60223121D01*
X122936882Y-60111387D01*
X123478013Y-60111387D01*
X123517245Y-60386520D01*
X123606691Y-60646398D01*
X123740560Y-60882181D01*
X123913065Y-61085031D01*
X124118417Y-61246109D01*
X124350828Y-61356577D01*
X124522016Y-61398376D01*
X124738176Y-61415846D01*
X124933062Y-61392479D01*
X125136661Y-61323946D01*
X125184942Y-61302677D01*
X125420962Y-61160310D01*
X125614529Y-60973188D01*
X125764161Y-60750490D01*
X125868375Y-60501398D01*
X125925690Y-60235094D01*
X125934623Y-59960758D01*
X125893692Y-59687572D01*
X125801414Y-59424717D01*
X125656307Y-59181373D01*
X125548066Y-59053532D01*
X125335964Y-58874749D01*
X125106811Y-58756424D01*
X124867888Y-58695805D01*
X124626476Y-58690139D01*
X124389857Y-58736672D01*
X124165313Y-58832652D01*
X123960124Y-58975325D01*
X123781573Y-59161940D01*
X123636941Y-59389742D01*
X123533509Y-59655978D01*
X123494781Y-59829836D01*
X123478013Y-60111387D01*
X122936882Y-60111387D01*
X122936498Y-59884880D01*
X122993078Y-59550520D01*
X123106811Y-59228087D01*
X123277696Y-58925628D01*
X123505733Y-58651190D01*
X123510879Y-58646040D01*
X123777211Y-58423498D01*
X124063026Y-58262646D01*
X124361692Y-58162677D01*
X124666577Y-58122785D01*
X124971047Y-58142161D01*
G36*
X89039530Y-64670487D02*
G01*
X89145488Y-64705206D01*
X89224607Y-64747208D01*
X89257267Y-64800822D01*
X89262933Y-64874041D01*
X89262933Y-64993805D01*
X89152867Y-64926696D01*
X89011034Y-64867176D01*
X88884075Y-64872845D01*
X88767182Y-64944085D01*
X88752328Y-64958329D01*
X88681117Y-65049832D01*
X88654878Y-65152226D01*
X88653333Y-65198001D01*
X88667613Y-65313475D01*
X88721203Y-65404353D01*
X88752328Y-65437672D01*
X88868257Y-65517550D01*
X88993620Y-65531807D01*
X89133225Y-65480824D01*
X89152867Y-65469305D01*
X89262933Y-65402196D01*
X89262933Y-65521960D01*
X89254162Y-65606305D01*
X89214969Y-65655986D01*
X89145488Y-65690795D01*
X88975339Y-65735637D01*
X88816606Y-65718278D01*
X88720538Y-65678095D01*
X88611835Y-65588936D01*
X88521823Y-65456453D01*
X88464089Y-65304864D01*
X88450134Y-65196151D01*
X88476454Y-65047499D01*
X88545925Y-64899089D01*
X88644312Y-64775964D01*
X88721383Y-64718968D01*
X88879204Y-64663523D01*
X89039530Y-64670487D01*
G37*
X89039530Y-64670487D02*
X89145488Y-64705206D01*
X89224607Y-64747208D01*
X89257267Y-64800822D01*
X89262933Y-64874041D01*
X89262933Y-64993805D01*
X89152867Y-64926696D01*
X89011034Y-64867176D01*
X88884075Y-64872845D01*
X88767182Y-64944085D01*
X88752328Y-64958329D01*
X88681117Y-65049832D01*
X88654878Y-65152226D01*
X88653333Y-65198001D01*
X88667613Y-65313475D01*
X88721203Y-65404353D01*
X88752328Y-65437672D01*
X88868257Y-65517550D01*
X88993620Y-65531807D01*
X89133225Y-65480824D01*
X89152867Y-65469305D01*
X89262933Y-65402196D01*
X89262933Y-65521960D01*
X89254162Y-65606305D01*
X89214969Y-65655986D01*
X89145488Y-65690795D01*
X88975339Y-65735637D01*
X88816606Y-65718278D01*
X88720538Y-65678095D01*
X88611835Y-65588936D01*
X88521823Y-65456453D01*
X88464089Y-65304864D01*
X88450134Y-65196151D01*
X88476454Y-65047499D01*
X88545925Y-64899089D01*
X88644312Y-64775964D01*
X88721383Y-64718968D01*
X88879204Y-64663523D01*
X89039530Y-64670487D01*
G36*
X91119670Y-64690396D02*
G01*
X91157381Y-64761787D01*
X91159467Y-64791753D01*
X91154146Y-64855734D01*
X91124726Y-64877803D01*
X91051022Y-64871329D01*
X91041589Y-64869813D01*
X90905556Y-64875405D01*
X90838389Y-64906590D01*
X90801005Y-64934220D01*
X90776520Y-64967585D01*
X90762211Y-65020343D01*
X90755351Y-65106153D01*
X90753215Y-65238674D01*
X90753067Y-65334248D01*
X90753067Y-65706001D01*
X90549867Y-65706001D01*
X90549867Y-64684811D01*
X90659933Y-64692437D01*
X90772362Y-64690555D01*
X90891225Y-64675449D01*
X90894056Y-64674882D01*
X91032727Y-64661794D01*
X91119670Y-64690396D01*
G37*
X91119670Y-64690396D02*
X91157381Y-64761787D01*
X91159467Y-64791753D01*
X91154146Y-64855734D01*
X91124726Y-64877803D01*
X91051022Y-64871329D01*
X91041589Y-64869813D01*
X90905556Y-64875405D01*
X90838389Y-64906590D01*
X90801005Y-64934220D01*
X90776520Y-64967585D01*
X90762211Y-65020343D01*
X90755351Y-65106153D01*
X90753215Y-65238674D01*
X90753067Y-65334248D01*
X90753067Y-65706001D01*
X90549867Y-65706001D01*
X90549867Y-64684811D01*
X90659933Y-64692437D01*
X90772362Y-64690555D01*
X90891225Y-64675449D01*
X90894056Y-64674882D01*
X91032727Y-64661794D01*
X91119670Y-64690396D01*
G36*
X89839195Y-64459542D02*
G01*
X89867192Y-64493058D01*
X89872533Y-64571467D01*
X89872533Y-64690001D01*
X90041867Y-64690001D01*
X90142108Y-64692220D01*
X90192095Y-64705868D01*
X90209299Y-64741428D01*
X90211200Y-64791601D01*
X90207550Y-64851576D01*
X90184994Y-64881592D01*
X90126128Y-64892011D01*
X90040548Y-64893201D01*
X89869896Y-64893201D01*
X89879682Y-65185955D01*
X89890704Y-65356144D01*
X89913742Y-65466482D01*
X89954076Y-65524517D01*
X90016982Y-65537797D01*
X90107740Y-65513869D01*
X90108739Y-65513492D01*
X90178945Y-65491146D01*
X90206426Y-65506193D01*
X90211198Y-65570518D01*
X90211200Y-65574314D01*
X90193941Y-65657302D01*
X90131229Y-65704123D01*
X90124329Y-65706839D01*
X89993673Y-65735924D01*
X89875229Y-65711260D01*
X89853947Y-65701573D01*
X89781684Y-65650743D01*
X89731484Y-65572678D01*
X89699087Y-65455544D01*
X89680231Y-65287511D01*
X89675666Y-65206467D01*
X89668072Y-65059736D01*
X89659112Y-64967868D01*
X89644897Y-64918041D01*
X89621537Y-64897430D01*
X89585141Y-64893214D01*
X89580627Y-64893201D01*
X89522793Y-64881391D01*
X89501727Y-64832591D01*
X89500000Y-64791601D01*
X89509113Y-64718990D01*
X89547849Y-64692427D01*
X89584667Y-64690001D01*
X89641923Y-64681144D01*
X89665363Y-64641292D01*
X89669333Y-64571467D01*
X89674997Y-64491829D01*
X89703725Y-64459165D01*
X89770933Y-64452934D01*
X89839195Y-64459542D01*
G37*
X89839195Y-64459542D02*
X89867192Y-64493058D01*
X89872533Y-64571467D01*
X89872533Y-64690001D01*
X90041867Y-64690001D01*
X90142108Y-64692220D01*
X90192095Y-64705868D01*
X90209299Y-64741428D01*
X90211200Y-64791601D01*
X90207550Y-64851576D01*
X90184994Y-64881592D01*
X90126128Y-64892011D01*
X90040548Y-64893201D01*
X89869896Y-64893201D01*
X89879682Y-65185955D01*
X89890704Y-65356144D01*
X89913742Y-65466482D01*
X89954076Y-65524517D01*
X90016982Y-65537797D01*
X90107740Y-65513869D01*
X90108739Y-65513492D01*
X90178945Y-65491146D01*
X90206426Y-65506193D01*
X90211198Y-65570518D01*
X90211200Y-65574314D01*
X90193941Y-65657302D01*
X90131229Y-65704123D01*
X90124329Y-65706839D01*
X89993673Y-65735924D01*
X89875229Y-65711260D01*
X89853947Y-65701573D01*
X89781684Y-65650743D01*
X89731484Y-65572678D01*
X89699087Y-65455544D01*
X89680231Y-65287511D01*
X89675666Y-65206467D01*
X89668072Y-65059736D01*
X89659112Y-64967868D01*
X89644897Y-64918041D01*
X89621537Y-64897430D01*
X89585141Y-64893214D01*
X89580627Y-64893201D01*
X89522793Y-64881391D01*
X89501727Y-64832591D01*
X89500000Y-64791601D01*
X89509113Y-64718990D01*
X89547849Y-64692427D01*
X89584667Y-64690001D01*
X89641923Y-64681144D01*
X89665363Y-64641292D01*
X89669333Y-64571467D01*
X89674997Y-64491829D01*
X89703725Y-64459165D01*
X89770933Y-64452934D01*
X89839195Y-64459542D01*
G36*
X101386058Y-64691054D02*
G01*
X101497049Y-64742771D01*
X101576272Y-64838647D01*
X101627130Y-64984286D01*
X101653030Y-65185292D01*
X101658133Y-65366246D01*
X101658133Y-65706001D01*
X101454934Y-65706001D01*
X101454934Y-65350401D01*
X101453413Y-65186576D01*
X101447306Y-65075958D01*
X101434293Y-65004055D01*
X101412058Y-64956378D01*
X101387200Y-64927067D01*
X101286931Y-64870623D01*
X101166903Y-64866195D01*
X101056069Y-64912054D01*
X101022872Y-64940090D01*
X101001172Y-64977585D01*
X100988549Y-65038147D01*
X100982583Y-65135383D01*
X100980854Y-65282904D01*
X100980800Y-65335388D01*
X100980800Y-65706001D01*
X100777600Y-65706001D01*
X100777600Y-64689453D01*
X100921534Y-64685921D01*
X101046806Y-64682801D01*
X101190402Y-64679162D01*
X101239894Y-64677893D01*
X101386058Y-64691054D01*
G37*
X101386058Y-64691054D02*
X101497049Y-64742771D01*
X101576272Y-64838647D01*
X101627130Y-64984286D01*
X101653030Y-65185292D01*
X101658133Y-65366246D01*
X101658133Y-65706001D01*
X101454934Y-65706001D01*
X101454934Y-65350401D01*
X101453413Y-65186576D01*
X101447306Y-65075958D01*
X101434293Y-65004055D01*
X101412058Y-64956378D01*
X101387200Y-64927067D01*
X101286931Y-64870623D01*
X101166903Y-64866195D01*
X101056069Y-64912054D01*
X101022872Y-64940090D01*
X101001172Y-64977585D01*
X100988549Y-65038147D01*
X100982583Y-65135383D01*
X100980854Y-65282904D01*
X100980800Y-65335388D01*
X100980800Y-65706001D01*
X100777600Y-65706001D01*
X100777600Y-64689453D01*
X100921534Y-64685921D01*
X101046806Y-64682801D01*
X101190402Y-64679162D01*
X101239894Y-64677893D01*
X101386058Y-64691054D01*
G36*
X84182934Y-60303326D02*
G01*
X84632121Y-59855063D01*
X85081308Y-59406801D01*
X85377188Y-59406801D01*
X85508552Y-59409479D01*
X85608845Y-59416641D01*
X85663050Y-59426977D01*
X85668429Y-59432201D01*
X85643705Y-59462064D01*
X85577014Y-59531653D01*
X85475391Y-59633926D01*
X85345868Y-59761846D01*
X85195476Y-59908370D01*
X85118678Y-59982534D01*
X84961131Y-60135139D01*
X84821385Y-60272205D01*
X84706404Y-60386763D01*
X84623150Y-60471841D01*
X84578586Y-60520469D01*
X84572982Y-60528818D01*
X84594637Y-60558607D01*
X84655987Y-60631739D01*
X84751129Y-60741468D01*
X84874162Y-60881051D01*
X85019183Y-61043742D01*
X85180290Y-61222797D01*
X85180550Y-61223085D01*
X85788700Y-61896000D01*
X85485633Y-61905905D01*
X85182567Y-61915810D01*
X84843792Y-61550305D01*
X84707180Y-61403172D01*
X84571626Y-61257630D01*
X84451086Y-61128633D01*
X84359517Y-61031139D01*
X84344706Y-61015467D01*
X84184395Y-60846134D01*
X84183664Y-61379534D01*
X84182934Y-61912934D01*
X83708800Y-61912934D01*
X83708800Y-58187601D01*
X84182934Y-58187601D01*
X84182934Y-60303326D01*
G37*
X84182934Y-60303326D02*
X84632121Y-59855063D01*
X85081308Y-59406801D01*
X85377188Y-59406801D01*
X85508552Y-59409479D01*
X85608845Y-59416641D01*
X85663050Y-59426977D01*
X85668429Y-59432201D01*
X85643705Y-59462064D01*
X85577014Y-59531653D01*
X85475391Y-59633926D01*
X85345868Y-59761846D01*
X85195476Y-59908370D01*
X85118678Y-59982534D01*
X84961131Y-60135139D01*
X84821385Y-60272205D01*
X84706404Y-60386763D01*
X84623150Y-60471841D01*
X84578586Y-60520469D01*
X84572982Y-60528818D01*
X84594637Y-60558607D01*
X84655987Y-60631739D01*
X84751129Y-60741468D01*
X84874162Y-60881051D01*
X85019183Y-61043742D01*
X85180290Y-61222797D01*
X85180550Y-61223085D01*
X85788700Y-61896000D01*
X85485633Y-61905905D01*
X85182567Y-61915810D01*
X84843792Y-61550305D01*
X84707180Y-61403172D01*
X84571626Y-61257630D01*
X84451086Y-61128633D01*
X84359517Y-61031139D01*
X84344706Y-61015467D01*
X84184395Y-60846134D01*
X84183664Y-61379534D01*
X84182934Y-61912934D01*
X83708800Y-61912934D01*
X83708800Y-58187601D01*
X84182934Y-58187601D01*
X84182934Y-60303326D01*
G36*
X86113334Y-64419067D02*
G01*
X85469867Y-64419067D01*
X85469867Y-64791601D01*
X85944000Y-64791601D01*
X85944000Y-64994801D01*
X85469867Y-64994801D01*
X85469867Y-65502801D01*
X86147200Y-65502801D01*
X86147200Y-65706001D01*
X85266667Y-65706001D01*
X85266667Y-64215867D01*
X86113334Y-64215867D01*
X86113334Y-64419067D01*
G37*
X86113334Y-64419067D02*
X85469867Y-64419067D01*
X85469867Y-64791601D01*
X85944000Y-64791601D01*
X85944000Y-64994801D01*
X85469867Y-64994801D01*
X85469867Y-65502801D01*
X86147200Y-65502801D01*
X86147200Y-65706001D01*
X85266667Y-65706001D01*
X85266667Y-64215867D01*
X86113334Y-64215867D01*
X86113334Y-64419067D01*
G36*
X99537992Y-64678175D02*
G01*
X99668065Y-64690152D01*
X99744740Y-64703112D01*
X99782128Y-64723542D01*
X99794341Y-64757931D01*
X99795467Y-64796570D01*
X99780240Y-64872455D01*
X99746796Y-64893201D01*
X99714908Y-64912095D01*
X99712353Y-64977464D01*
X99716248Y-65004879D01*
X99712028Y-65158353D01*
X99654993Y-65290811D01*
X99556524Y-65390601D01*
X99428001Y-65446069D01*
X99285037Y-65446435D01*
X99205041Y-65437715D01*
X99180220Y-65451489D01*
X99204259Y-65481848D01*
X99270842Y-65522878D01*
X99373657Y-65568670D01*
X99441868Y-65593246D01*
X99634249Y-65675245D01*
X99760924Y-65771188D01*
X99822597Y-65881702D01*
X99829334Y-65937420D01*
X99799023Y-66064250D01*
X99716277Y-66166099D01*
X99593374Y-66237990D01*
X99442590Y-66274942D01*
X99276204Y-66271976D01*
X99114293Y-66227412D01*
X98992988Y-66148091D01*
X98929394Y-66041846D01*
X98928080Y-65986877D01*
X99125743Y-65986877D01*
X99158774Y-66037894D01*
X99221988Y-66065463D01*
X99323278Y-66077742D01*
X99436280Y-66075249D01*
X99534632Y-66058505D01*
X99590917Y-66029361D01*
X99623238Y-65951810D01*
X99588360Y-65878823D01*
X99486706Y-65811100D01*
X99448336Y-65794002D01*
X99288005Y-65727555D01*
X99203069Y-65807348D01*
X99131755Y-65901486D01*
X99125743Y-65986877D01*
X98928080Y-65986877D01*
X98926490Y-65920371D01*
X98987252Y-65795358D01*
X99000187Y-65779213D01*
X99053961Y-65705722D01*
X99065387Y-65649525D01*
X99045551Y-65590348D01*
X99023042Y-65493990D01*
X99043165Y-65420489D01*
X99062082Y-65345598D01*
X99046782Y-65256736D01*
X99026802Y-65201048D01*
X98995469Y-65108639D01*
X98991926Y-65037239D01*
X98993512Y-65031633D01*
X99189201Y-65031633D01*
X99201249Y-65130556D01*
X99246572Y-65209551D01*
X99314675Y-65256559D01*
X99395063Y-65259522D01*
X99471314Y-65212515D01*
X99510446Y-65136820D01*
X99523208Y-65035395D01*
X99508277Y-64941096D01*
X99483893Y-64899974D01*
X99408847Y-64863414D01*
X99317389Y-64864299D01*
X99241197Y-64899632D01*
X99220925Y-64924841D01*
X99189201Y-65031633D01*
X98993512Y-65031633D01*
X99016407Y-64950750D01*
X99028617Y-64918118D01*
X99089966Y-64796804D01*
X99171453Y-64719344D01*
X99285612Y-64679837D01*
X99444973Y-64672378D01*
X99537992Y-64678175D01*
G37*
X99537992Y-64678175D02*
X99668065Y-64690152D01*
X99744740Y-64703112D01*
X99782128Y-64723542D01*
X99794341Y-64757931D01*
X99795467Y-64796570D01*
X99780240Y-64872455D01*
X99746796Y-64893201D01*
X99714908Y-64912095D01*
X99712353Y-64977464D01*
X99716248Y-65004879D01*
X99712028Y-65158353D01*
X99654993Y-65290811D01*
X99556524Y-65390601D01*
X99428001Y-65446069D01*
X99285037Y-65446435D01*
X99205041Y-65437715D01*
X99180220Y-65451489D01*
X99204259Y-65481848D01*
X99270842Y-65522878D01*
X99373657Y-65568670D01*
X99441868Y-65593246D01*
X99634249Y-65675245D01*
X99760924Y-65771188D01*
X99822597Y-65881702D01*
X99829334Y-65937420D01*
X99799023Y-66064250D01*
X99716277Y-66166099D01*
X99593374Y-66237990D01*
X99442590Y-66274942D01*
X99276204Y-66271976D01*
X99114293Y-66227412D01*
X98992988Y-66148091D01*
X98929394Y-66041846D01*
X98928080Y-65986877D01*
X99125743Y-65986877D01*
X99158774Y-66037894D01*
X99221988Y-66065463D01*
X99323278Y-66077742D01*
X99436280Y-66075249D01*
X99534632Y-66058505D01*
X99590917Y-66029361D01*
X99623238Y-65951810D01*
X99588360Y-65878823D01*
X99486706Y-65811100D01*
X99448336Y-65794002D01*
X99288005Y-65727555D01*
X99203069Y-65807348D01*
X99131755Y-65901486D01*
X99125743Y-65986877D01*
X98928080Y-65986877D01*
X98926490Y-65920371D01*
X98987252Y-65795358D01*
X99000187Y-65779213D01*
X99053961Y-65705722D01*
X99065387Y-65649525D01*
X99045551Y-65590348D01*
X99023042Y-65493990D01*
X99043165Y-65420489D01*
X99062082Y-65345598D01*
X99046782Y-65256736D01*
X99026802Y-65201048D01*
X98995469Y-65108639D01*
X98991926Y-65037239D01*
X98993512Y-65031633D01*
X99189201Y-65031633D01*
X99201249Y-65130556D01*
X99246572Y-65209551D01*
X99314675Y-65256559D01*
X99395063Y-65259522D01*
X99471314Y-65212515D01*
X99510446Y-65136820D01*
X99523208Y-65035395D01*
X99508277Y-64941096D01*
X99483893Y-64899974D01*
X99408847Y-64863414D01*
X99317389Y-64864299D01*
X99241197Y-64899632D01*
X99220925Y-64924841D01*
X99189201Y-65031633D01*
X98993512Y-65031633D01*
X99016407Y-64950750D01*
X99028617Y-64918118D01*
X99089966Y-64796804D01*
X99171453Y-64719344D01*
X99285612Y-64679837D01*
X99444973Y-64672378D01*
X99537992Y-64678175D01*
G36*
X79843919Y-64700283D02*
G01*
X79961263Y-64791759D01*
X79990946Y-64828162D01*
X80036591Y-64911168D01*
X80075585Y-65018100D01*
X80101445Y-65124976D01*
X80107687Y-65207810D01*
X80100659Y-65234036D01*
X80060349Y-65247780D01*
X79968303Y-65258519D01*
X79840500Y-65264759D01*
X79761335Y-65265734D01*
X79595274Y-65269503D01*
X79487706Y-65280498D01*
X79442732Y-65298250D01*
X79441600Y-65302206D01*
X79463753Y-65347286D01*
X79519032Y-65415232D01*
X79540595Y-65437672D01*
X79662837Y-65518283D01*
X79800570Y-65533824D01*
X79949429Y-65483982D01*
X79975819Y-65468807D01*
X80060761Y-65419302D01*
X80102956Y-65408991D01*
X80117363Y-65441601D01*
X80118934Y-65504456D01*
X80109763Y-65573364D01*
X80071072Y-65621321D01*
X79986091Y-65667968D01*
X79975000Y-65673046D01*
X79819286Y-65726731D01*
X79683785Y-65730605D01*
X79558455Y-65692230D01*
X79424120Y-65600889D01*
X79317612Y-65466717D01*
X79257896Y-65314034D01*
X79256176Y-65304590D01*
X79250466Y-65126818D01*
X79258119Y-65096401D01*
X79439861Y-65096401D01*
X79677797Y-65096401D01*
X79820735Y-65091152D01*
X79898705Y-65075187D01*
X79915734Y-65056250D01*
X79894277Y-65005150D01*
X79842627Y-64938282D01*
X79842097Y-64937717D01*
X79741567Y-64869099D01*
X79638379Y-64864517D01*
X79544546Y-64921882D01*
X79490278Y-64998905D01*
X79439861Y-65096401D01*
X79258119Y-65096401D01*
X79290037Y-64969548D01*
X79365654Y-64838767D01*
X79468086Y-64740463D01*
X79588096Y-64680622D01*
X79716452Y-64665233D01*
X79843919Y-64700283D01*
G37*
X79843919Y-64700283D02*
X79961263Y-64791759D01*
X79990946Y-64828162D01*
X80036591Y-64911168D01*
X80075585Y-65018100D01*
X80101445Y-65124976D01*
X80107687Y-65207810D01*
X80100659Y-65234036D01*
X80060349Y-65247780D01*
X79968303Y-65258519D01*
X79840500Y-65264759D01*
X79761335Y-65265734D01*
X79595274Y-65269503D01*
X79487706Y-65280498D01*
X79442732Y-65298250D01*
X79441600Y-65302206D01*
X79463753Y-65347286D01*
X79519032Y-65415232D01*
X79540595Y-65437672D01*
X79662837Y-65518283D01*
X79800570Y-65533824D01*
X79949429Y-65483982D01*
X79975819Y-65468807D01*
X80060761Y-65419302D01*
X80102956Y-65408991D01*
X80117363Y-65441601D01*
X80118934Y-65504456D01*
X80109763Y-65573364D01*
X80071072Y-65621321D01*
X79986091Y-65667968D01*
X79975000Y-65673046D01*
X79819286Y-65726731D01*
X79683785Y-65730605D01*
X79558455Y-65692230D01*
X79424120Y-65600889D01*
X79317612Y-65466717D01*
X79257896Y-65314034D01*
X79256176Y-65304590D01*
X79250466Y-65126818D01*
X79258119Y-65096401D01*
X79439861Y-65096401D01*
X79677797Y-65096401D01*
X79820735Y-65091152D01*
X79898705Y-65075187D01*
X79915734Y-65056250D01*
X79894277Y-65005150D01*
X79842627Y-64938282D01*
X79842097Y-64937717D01*
X79741567Y-64869099D01*
X79638379Y-64864517D01*
X79544546Y-64921882D01*
X79490278Y-64998905D01*
X79439861Y-65096401D01*
X79258119Y-65096401D01*
X79290037Y-64969548D01*
X79365654Y-64838767D01*
X79468086Y-64740463D01*
X79588096Y-64680622D01*
X79716452Y-64665233D01*
X79843919Y-64700283D01*
G36*
X99989530Y-59356908D02*
G01*
X100174902Y-59396122D01*
X100252667Y-59429688D01*
X100445672Y-59568820D01*
X100612648Y-59758809D01*
X100728577Y-59959459D01*
X100786008Y-60111829D01*
X100832248Y-60284508D01*
X100863374Y-60456325D01*
X100875461Y-60606112D01*
X100866743Y-60704892D01*
X100844043Y-60795334D01*
X99211267Y-60795334D01*
X99232503Y-60901516D01*
X99303012Y-61091120D01*
X99426297Y-61250201D01*
X99591392Y-61371143D01*
X99787332Y-61446328D01*
X100003149Y-61468142D01*
X100044795Y-61465684D01*
X100207176Y-61434485D01*
X100385113Y-61372855D01*
X100554204Y-61291514D01*
X100690048Y-61201183D01*
X100729794Y-61164742D01*
X100796103Y-61102382D01*
X100845027Y-61068379D01*
X100852988Y-61066267D01*
X100864815Y-61097534D01*
X100871962Y-61181140D01*
X100873445Y-61301791D01*
X100872052Y-61362600D01*
X100862267Y-61658934D01*
X100574400Y-61804976D01*
X100420907Y-61878935D01*
X100299630Y-61925138D01*
X100185004Y-61951172D01*
X100051464Y-61964623D01*
X100032534Y-61965777D01*
X99824743Y-61965845D01*
X99660208Y-61940977D01*
X99635821Y-61933735D01*
X99370551Y-61812929D01*
X99143802Y-61641506D01*
X98960443Y-61427636D01*
X98825346Y-61179486D01*
X98743383Y-60905225D01*
X98719425Y-60613021D01*
X98736055Y-60425016D01*
X98751682Y-60361913D01*
X99240898Y-60361913D01*
X99278999Y-60370896D01*
X99373242Y-60377607D01*
X99512062Y-60381661D01*
X99683894Y-60382674D01*
X99823365Y-60381275D01*
X100388134Y-60372000D01*
X100376570Y-60287334D01*
X100325485Y-60142913D01*
X100223742Y-60013131D01*
X100088416Y-59912477D01*
X99936584Y-59855440D01*
X99858589Y-59847811D01*
X99715283Y-59872711D01*
X99562261Y-59936008D01*
X99431979Y-60023096D01*
X99399783Y-60054266D01*
X99329517Y-60144011D01*
X99273189Y-60238961D01*
X99241059Y-60319249D01*
X99240898Y-60361913D01*
X98751682Y-60361913D01*
X98810248Y-60125432D01*
X98932169Y-59867018D01*
X99098799Y-59654317D01*
X99307120Y-59491871D01*
X99383471Y-59450570D01*
X99571352Y-59384671D01*
X99780859Y-59353271D01*
X99989530Y-59356908D01*
G37*
X99989530Y-59356908D02*
X100174902Y-59396122D01*
X100252667Y-59429688D01*
X100445672Y-59568820D01*
X100612648Y-59758809D01*
X100728577Y-59959459D01*
X100786008Y-60111829D01*
X100832248Y-60284508D01*
X100863374Y-60456325D01*
X100875461Y-60606112D01*
X100866743Y-60704892D01*
X100844043Y-60795334D01*
X99211267Y-60795334D01*
X99232503Y-60901516D01*
X99303012Y-61091120D01*
X99426297Y-61250201D01*
X99591392Y-61371143D01*
X99787332Y-61446328D01*
X100003149Y-61468142D01*
X100044795Y-61465684D01*
X100207176Y-61434485D01*
X100385113Y-61372855D01*
X100554204Y-61291514D01*
X100690048Y-61201183D01*
X100729794Y-61164742D01*
X100796103Y-61102382D01*
X100845027Y-61068379D01*
X100852988Y-61066267D01*
X100864815Y-61097534D01*
X100871962Y-61181140D01*
X100873445Y-61301791D01*
X100872052Y-61362600D01*
X100862267Y-61658934D01*
X100574400Y-61804976D01*
X100420907Y-61878935D01*
X100299630Y-61925138D01*
X100185004Y-61951172D01*
X100051464Y-61964623D01*
X100032534Y-61965777D01*
X99824743Y-61965845D01*
X99660208Y-61940977D01*
X99635821Y-61933735D01*
X99370551Y-61812929D01*
X99143802Y-61641506D01*
X98960443Y-61427636D01*
X98825346Y-61179486D01*
X98743383Y-60905225D01*
X98719425Y-60613021D01*
X98736055Y-60425016D01*
X98751682Y-60361913D01*
X99240898Y-60361913D01*
X99278999Y-60370896D01*
X99373242Y-60377607D01*
X99512062Y-60381661D01*
X99683894Y-60382674D01*
X99823365Y-60381275D01*
X100388134Y-60372000D01*
X100376570Y-60287334D01*
X100325485Y-60142913D01*
X100223742Y-60013131D01*
X100088416Y-59912477D01*
X99936584Y-59855440D01*
X99858589Y-59847811D01*
X99715283Y-59872711D01*
X99562261Y-59936008D01*
X99431979Y-60023096D01*
X99399783Y-60054266D01*
X99329517Y-60144011D01*
X99273189Y-60238961D01*
X99241059Y-60319249D01*
X99240898Y-60361913D01*
X98751682Y-60361913D01*
X98810248Y-60125432D01*
X98932169Y-59867018D01*
X99098799Y-59654317D01*
X99307120Y-59491871D01*
X99383471Y-59450570D01*
X99571352Y-59384671D01*
X99780859Y-59353271D01*
X99989530Y-59356908D01*
G36*
X106946768Y-64229663D02*
G01*
X107114733Y-64273827D01*
X107232127Y-64352523D01*
X107304895Y-64469916D01*
X107338980Y-64630168D01*
X107340506Y-64648936D01*
X107344112Y-64770877D01*
X107329482Y-64853069D01*
X107290813Y-64922347D01*
X107277622Y-64939638D01*
X107146857Y-65051912D01*
X106973429Y-65115944D01*
X106823888Y-65130267D01*
X106670400Y-65130267D01*
X106670400Y-65706001D01*
X106467200Y-65706001D01*
X106467200Y-64419067D01*
X106670400Y-64419067D01*
X106670400Y-64927067D01*
X106818233Y-64927067D01*
X106976024Y-64901179D01*
X107055300Y-64856876D01*
X107129977Y-64764877D01*
X107147471Y-64663477D01*
X107114568Y-64565541D01*
X107038053Y-64483931D01*
X106924712Y-64431512D01*
X106824340Y-64419067D01*
X106670400Y-64419067D01*
X106467200Y-64419067D01*
X106467200Y-64215867D01*
X106722288Y-64215867D01*
X106946768Y-64229663D01*
G37*
X106946768Y-64229663D02*
X107114733Y-64273827D01*
X107232127Y-64352523D01*
X107304895Y-64469916D01*
X107338980Y-64630168D01*
X107340506Y-64648936D01*
X107344112Y-64770877D01*
X107329482Y-64853069D01*
X107290813Y-64922347D01*
X107277622Y-64939638D01*
X107146857Y-65051912D01*
X106973429Y-65115944D01*
X106823888Y-65130267D01*
X106670400Y-65130267D01*
X106670400Y-65706001D01*
X106467200Y-65706001D01*
X106467200Y-64419067D01*
X106670400Y-64419067D01*
X106670400Y-64927067D01*
X106818233Y-64927067D01*
X106976024Y-64901179D01*
X107055300Y-64856876D01*
X107129977Y-64764877D01*
X107147471Y-64663477D01*
X107114568Y-64565541D01*
X107038053Y-64483931D01*
X106924712Y-64431512D01*
X106824340Y-64419067D01*
X106670400Y-64419067D01*
X106467200Y-64419067D01*
X106467200Y-64215867D01*
X106722288Y-64215867D01*
X106946768Y-64229663D01*
G36*
X95237130Y-64670487D02*
G01*
X95343088Y-64705206D01*
X95422207Y-64747208D01*
X95454867Y-64800822D01*
X95460534Y-64874041D01*
X95460534Y-64993805D01*
X95350467Y-64926696D01*
X95208634Y-64867176D01*
X95081675Y-64872845D01*
X94964782Y-64944085D01*
X94949928Y-64958329D01*
X94878717Y-65049832D01*
X94852478Y-65152226D01*
X94850934Y-65198001D01*
X94865213Y-65313475D01*
X94918803Y-65404353D01*
X94949928Y-65437672D01*
X95065857Y-65517550D01*
X95191220Y-65531807D01*
X95330825Y-65480824D01*
X95350467Y-65469305D01*
X95460534Y-65402196D01*
X95460534Y-65521960D01*
X95451762Y-65606305D01*
X95412569Y-65655986D01*
X95343088Y-65690795D01*
X95172939Y-65735637D01*
X95014206Y-65718278D01*
X94918138Y-65678095D01*
X94809435Y-65588936D01*
X94719423Y-65456453D01*
X94661689Y-65304864D01*
X94647734Y-65196151D01*
X94674054Y-65047499D01*
X94743525Y-64899089D01*
X94841912Y-64775964D01*
X94918983Y-64718968D01*
X95076804Y-64663523D01*
X95237130Y-64670487D01*
G37*
X95237130Y-64670487D02*
X95343088Y-64705206D01*
X95422207Y-64747208D01*
X95454867Y-64800822D01*
X95460534Y-64874041D01*
X95460534Y-64993805D01*
X95350467Y-64926696D01*
X95208634Y-64867176D01*
X95081675Y-64872845D01*
X94964782Y-64944085D01*
X94949928Y-64958329D01*
X94878717Y-65049832D01*
X94852478Y-65152226D01*
X94850934Y-65198001D01*
X94865213Y-65313475D01*
X94918803Y-65404353D01*
X94949928Y-65437672D01*
X95065857Y-65517550D01*
X95191220Y-65531807D01*
X95330825Y-65480824D01*
X95350467Y-65469305D01*
X95460534Y-65402196D01*
X95460534Y-65521960D01*
X95451762Y-65606305D01*
X95412569Y-65655986D01*
X95343088Y-65690795D01*
X95172939Y-65735637D01*
X95014206Y-65718278D01*
X94918138Y-65678095D01*
X94809435Y-65588936D01*
X94719423Y-65456453D01*
X94661689Y-65304864D01*
X94647734Y-65196151D01*
X94674054Y-65047499D01*
X94743525Y-64899089D01*
X94841912Y-64775964D01*
X94918983Y-64718968D01*
X95076804Y-64663523D01*
X95237130Y-64670487D01*
G36*
X109706859Y-64191299D02*
G01*
X109717802Y-64192550D01*
X109841301Y-64215852D01*
X109954778Y-64251098D01*
X109987513Y-64265726D01*
X110056246Y-64311553D01*
X110085469Y-64371199D01*
X110090934Y-64454817D01*
X110090934Y-64590428D01*
X109989428Y-64515382D01*
X109866700Y-64456019D01*
X109694333Y-64426368D01*
X109684709Y-64425637D01*
X109569475Y-64419726D01*
X109494942Y-64429153D01*
X109434339Y-64463302D01*
X109360896Y-64531555D01*
X109349202Y-64543230D01*
X109223731Y-64708180D01*
X109164004Y-64885171D01*
X109170793Y-65071670D01*
X109178483Y-65103639D01*
X109238269Y-65236453D01*
X109337578Y-65366720D01*
X109349202Y-65378637D01*
X109426220Y-65451931D01*
X109486972Y-65489921D01*
X109558229Y-65501988D01*
X109666761Y-65497516D01*
X109684709Y-65496231D01*
X109859739Y-65467899D01*
X109984544Y-65410028D01*
X109989428Y-65406485D01*
X110090934Y-65331439D01*
X110090934Y-65467050D01*
X110083159Y-65561065D01*
X110049178Y-65616953D01*
X109985523Y-65657171D01*
X109887339Y-65693200D01*
X109761329Y-65721107D01*
X109706123Y-65728315D01*
X109581853Y-65731540D01*
X109474705Y-65708417D01*
X109358162Y-65656620D01*
X109183689Y-65533869D01*
X109057060Y-65374782D01*
X108978192Y-65190875D01*
X108947000Y-64993663D01*
X108963400Y-64794662D01*
X109027308Y-64605388D01*
X109138638Y-64437357D01*
X109297307Y-64302084D01*
X109368380Y-64262454D01*
X109492507Y-64209011D01*
X109594244Y-64187511D01*
X109706859Y-64191299D01*
G37*
X109706859Y-64191299D02*
X109717802Y-64192550D01*
X109841301Y-64215852D01*
X109954778Y-64251098D01*
X109987513Y-64265726D01*
X110056246Y-64311553D01*
X110085469Y-64371199D01*
X110090934Y-64454817D01*
X110090934Y-64590428D01*
X109989428Y-64515382D01*
X109866700Y-64456019D01*
X109694333Y-64426368D01*
X109684709Y-64425637D01*
X109569475Y-64419726D01*
X109494942Y-64429153D01*
X109434339Y-64463302D01*
X109360896Y-64531555D01*
X109349202Y-64543230D01*
X109223731Y-64708180D01*
X109164004Y-64885171D01*
X109170793Y-65071670D01*
X109178483Y-65103639D01*
X109238269Y-65236453D01*
X109337578Y-65366720D01*
X109349202Y-65378637D01*
X109426220Y-65451931D01*
X109486972Y-65489921D01*
X109558229Y-65501988D01*
X109666761Y-65497516D01*
X109684709Y-65496231D01*
X109859739Y-65467899D01*
X109984544Y-65410028D01*
X109989428Y-65406485D01*
X110090934Y-65331439D01*
X110090934Y-65467050D01*
X110083159Y-65561065D01*
X110049178Y-65616953D01*
X109985523Y-65657171D01*
X109887339Y-65693200D01*
X109761329Y-65721107D01*
X109706123Y-65728315D01*
X109581853Y-65731540D01*
X109474705Y-65708417D01*
X109358162Y-65656620D01*
X109183689Y-65533869D01*
X109057060Y-65374782D01*
X108978192Y-65190875D01*
X108947000Y-64993663D01*
X108963400Y-64794662D01*
X109027308Y-64605388D01*
X109138638Y-64437357D01*
X109297307Y-64302084D01*
X109368380Y-64262454D01*
X109492507Y-64209011D01*
X109594244Y-64187511D01*
X109706859Y-64191299D01*
G36*
X118316452Y-64700283D02*
G01*
X118433796Y-64791759D01*
X118463479Y-64828162D01*
X118509124Y-64911168D01*
X118548118Y-65018100D01*
X118573978Y-65124976D01*
X118580221Y-65207810D01*
X118573193Y-65234036D01*
X118532883Y-65247780D01*
X118440836Y-65258519D01*
X118313033Y-65264759D01*
X118233868Y-65265734D01*
X118067808Y-65269503D01*
X117960239Y-65280498D01*
X117915265Y-65298250D01*
X117914134Y-65302206D01*
X117936286Y-65347286D01*
X117991566Y-65415232D01*
X118013128Y-65437672D01*
X118135370Y-65518283D01*
X118273103Y-65533824D01*
X118421962Y-65483982D01*
X118448352Y-65468807D01*
X118533294Y-65419302D01*
X118575489Y-65408991D01*
X118589897Y-65441601D01*
X118591467Y-65504456D01*
X118582296Y-65573364D01*
X118543605Y-65621321D01*
X118458625Y-65667968D01*
X118447534Y-65673046D01*
X118291820Y-65726731D01*
X118156318Y-65730605D01*
X118030988Y-65692230D01*
X117896653Y-65600889D01*
X117790145Y-65466717D01*
X117730429Y-65314034D01*
X117728710Y-65304590D01*
X117722999Y-65126818D01*
X117730652Y-65096401D01*
X117912394Y-65096401D01*
X118150330Y-65096401D01*
X118293268Y-65091152D01*
X118371239Y-65075187D01*
X118388267Y-65056250D01*
X118366811Y-65005150D01*
X118315160Y-64938282D01*
X118314630Y-64937717D01*
X118214100Y-64869099D01*
X118110912Y-64864517D01*
X118017080Y-64921882D01*
X117962811Y-64998905D01*
X117912394Y-65096401D01*
X117730652Y-65096401D01*
X117762570Y-64969548D01*
X117838188Y-64838767D01*
X117940619Y-64740463D01*
X118060629Y-64680622D01*
X118188985Y-64665233D01*
X118316452Y-64700283D01*
G37*
X118316452Y-64700283D02*
X118433796Y-64791759D01*
X118463479Y-64828162D01*
X118509124Y-64911168D01*
X118548118Y-65018100D01*
X118573978Y-65124976D01*
X118580221Y-65207810D01*
X118573193Y-65234036D01*
X118532883Y-65247780D01*
X118440836Y-65258519D01*
X118313033Y-65264759D01*
X118233868Y-65265734D01*
X118067808Y-65269503D01*
X117960239Y-65280498D01*
X117915265Y-65298250D01*
X117914134Y-65302206D01*
X117936286Y-65347286D01*
X117991566Y-65415232D01*
X118013128Y-65437672D01*
X118135370Y-65518283D01*
X118273103Y-65533824D01*
X118421962Y-65483982D01*
X118448352Y-65468807D01*
X118533294Y-65419302D01*
X118575489Y-65408991D01*
X118589897Y-65441601D01*
X118591467Y-65504456D01*
X118582296Y-65573364D01*
X118543605Y-65621321D01*
X118458625Y-65667968D01*
X118447534Y-65673046D01*
X118291820Y-65726731D01*
X118156318Y-65730605D01*
X118030988Y-65692230D01*
X117896653Y-65600889D01*
X117790145Y-65466717D01*
X117730429Y-65314034D01*
X117728710Y-65304590D01*
X117722999Y-65126818D01*
X117730652Y-65096401D01*
X117912394Y-65096401D01*
X118150330Y-65096401D01*
X118293268Y-65091152D01*
X118371239Y-65075187D01*
X118388267Y-65056250D01*
X118366811Y-65005150D01*
X118315160Y-64938282D01*
X118314630Y-64937717D01*
X118214100Y-64869099D01*
X118110912Y-64864517D01*
X118017080Y-64921882D01*
X117962811Y-64998905D01*
X117912394Y-65096401D01*
X117730652Y-65096401D01*
X117762570Y-64969548D01*
X117838188Y-64838767D01*
X117940619Y-64740463D01*
X118060629Y-64680622D01*
X118188985Y-64665233D01*
X118316452Y-64700283D01*
G36*
X97323200Y-64419067D02*
G01*
X96679734Y-64419067D01*
X96679734Y-64791601D01*
X97153867Y-64791601D01*
X97153867Y-64994801D01*
X96679734Y-64994801D01*
X96679734Y-65502801D01*
X97357067Y-65502801D01*
X97357067Y-65706001D01*
X96476534Y-65706001D01*
X96476534Y-64215867D01*
X97323200Y-64215867D01*
X97323200Y-64419067D01*
G37*
X97323200Y-64419067D02*
X96679734Y-64419067D01*
X96679734Y-64791601D01*
X97153867Y-64791601D01*
X97153867Y-64994801D01*
X96679734Y-64994801D01*
X96679734Y-65502801D01*
X97357067Y-65502801D01*
X97357067Y-65706001D01*
X96476534Y-65706001D01*
X96476534Y-64215867D01*
X97323200Y-64215867D01*
X97323200Y-64419067D01*
G36*
X119499937Y-64690396D02*
G01*
X119537647Y-64761787D01*
X119539734Y-64791753D01*
X119534413Y-64855734D01*
X119504993Y-64877803D01*
X119431288Y-64871329D01*
X119421856Y-64869813D01*
X119285823Y-64875405D01*
X119218656Y-64906590D01*
X119181272Y-64934220D01*
X119156787Y-64967585D01*
X119142477Y-65020343D01*
X119135617Y-65106153D01*
X119133482Y-65238674D01*
X119133334Y-65334248D01*
X119133334Y-65706001D01*
X118930134Y-65706001D01*
X118930134Y-64684811D01*
X119040200Y-64692437D01*
X119152629Y-64690555D01*
X119271491Y-64675449D01*
X119274322Y-64674882D01*
X119412993Y-64661794D01*
X119499937Y-64690396D01*
G37*
X119499937Y-64690396D02*
X119537647Y-64761787D01*
X119539734Y-64791753D01*
X119534413Y-64855734D01*
X119504993Y-64877803D01*
X119431288Y-64871329D01*
X119421856Y-64869813D01*
X119285823Y-64875405D01*
X119218656Y-64906590D01*
X119181272Y-64934220D01*
X119156787Y-64967585D01*
X119142477Y-65020343D01*
X119135617Y-65106153D01*
X119133482Y-65238674D01*
X119133334Y-65334248D01*
X119133334Y-65706001D01*
X118930134Y-65706001D01*
X118930134Y-64684811D01*
X119040200Y-64692437D01*
X119152629Y-64690555D01*
X119271491Y-64675449D01*
X119274322Y-64674882D01*
X119412993Y-64661794D01*
X119499937Y-64690396D01*
G36*
X100337334Y-65706001D02*
G01*
X100134134Y-65706001D01*
X100134134Y-64690001D01*
X100337334Y-64690001D01*
X100337334Y-65706001D01*
G37*
X100337334Y-65706001D02*
X100134134Y-65706001D01*
X100134134Y-64690001D01*
X100337334Y-64690001D01*
X100337334Y-65706001D01*
G36*
X94218787Y-64387492D02*
G01*
X94221795Y-64391758D01*
X94255250Y-64452078D01*
X94243222Y-64497393D01*
X94218466Y-64527224D01*
X94158227Y-64579936D01*
X94110824Y-64575711D01*
X94071042Y-64536446D01*
X94045309Y-64484080D01*
X94063092Y-64419537D01*
X94072618Y-64400979D01*
X94120244Y-64332300D01*
X94164242Y-64328097D01*
X94218787Y-64387492D01*
G37*
X94218787Y-64387492D02*
X94221795Y-64391758D01*
X94255250Y-64452078D01*
X94243222Y-64497393D01*
X94218466Y-64527224D01*
X94158227Y-64579936D01*
X94110824Y-64575711D01*
X94071042Y-64536446D01*
X94045309Y-64484080D01*
X94063092Y-64419537D01*
X94072618Y-64400979D01*
X94120244Y-64332300D01*
X94164242Y-64328097D01*
X94218787Y-64387492D01*
G36*
X117066325Y-64691054D02*
G01*
X117177316Y-64742771D01*
X117256538Y-64838647D01*
X117307397Y-64984286D01*
X117333296Y-65185292D01*
X117338400Y-65366246D01*
X117338400Y-65706001D01*
X117135200Y-65706001D01*
X117135200Y-65350401D01*
X117133680Y-65186576D01*
X117127572Y-65075958D01*
X117114560Y-65004055D01*
X117092324Y-64956378D01*
X117067467Y-64927067D01*
X116967198Y-64870623D01*
X116847170Y-64866195D01*
X116736336Y-64912054D01*
X116703139Y-64940090D01*
X116681439Y-64977585D01*
X116668815Y-65038147D01*
X116662849Y-65135383D01*
X116661121Y-65282904D01*
X116661067Y-65335388D01*
X116661067Y-65706001D01*
X116457867Y-65706001D01*
X116457867Y-64689453D01*
X116601800Y-64685921D01*
X116727073Y-64682801D01*
X116870668Y-64679162D01*
X116920160Y-64677893D01*
X117066325Y-64691054D01*
G37*
X117066325Y-64691054D02*
X117177316Y-64742771D01*
X117256538Y-64838647D01*
X117307397Y-64984286D01*
X117333296Y-65185292D01*
X117338400Y-65366246D01*
X117338400Y-65706001D01*
X117135200Y-65706001D01*
X117135200Y-65350401D01*
X117133680Y-65186576D01*
X117127572Y-65075958D01*
X117114560Y-65004055D01*
X117092324Y-64956378D01*
X117067467Y-64927067D01*
X116967198Y-64870623D01*
X116847170Y-64866195D01*
X116736336Y-64912054D01*
X116703139Y-64940090D01*
X116681439Y-64977585D01*
X116668815Y-65038147D01*
X116662849Y-65135383D01*
X116661121Y-65282904D01*
X116661067Y-65335388D01*
X116661067Y-65706001D01*
X116457867Y-65706001D01*
X116457867Y-64689453D01*
X116601800Y-64685921D01*
X116727073Y-64682801D01*
X116870668Y-64679162D01*
X116920160Y-64677893D01*
X117066325Y-64691054D01*
G36*
X105005003Y-64690396D02*
G01*
X105042714Y-64761787D01*
X105044800Y-64791753D01*
X105039479Y-64855734D01*
X105010059Y-64877803D01*
X104936355Y-64871329D01*
X104926923Y-64869813D01*
X104790889Y-64875405D01*
X104723723Y-64906590D01*
X104686338Y-64934220D01*
X104661854Y-64967585D01*
X104647544Y-65020343D01*
X104640684Y-65106153D01*
X104638548Y-65238674D01*
X104638400Y-65334248D01*
X104638400Y-65706001D01*
X104435200Y-65706001D01*
X104435200Y-64684811D01*
X104545267Y-64692437D01*
X104657696Y-64690555D01*
X104776558Y-64675449D01*
X104779389Y-64674882D01*
X104918060Y-64661794D01*
X105005003Y-64690396D01*
G37*
X105005003Y-64690396D02*
X105042714Y-64761787D01*
X105044800Y-64791753D01*
X105039479Y-64855734D01*
X105010059Y-64877803D01*
X104936355Y-64871329D01*
X104926923Y-64869813D01*
X104790889Y-64875405D01*
X104723723Y-64906590D01*
X104686338Y-64934220D01*
X104661854Y-64967585D01*
X104647544Y-65020343D01*
X104640684Y-65106153D01*
X104638548Y-65238674D01*
X104638400Y-65334248D01*
X104638400Y-65706001D01*
X104435200Y-65706001D01*
X104435200Y-64684811D01*
X104545267Y-64692437D01*
X104657696Y-64690555D01*
X104776558Y-64675449D01*
X104779389Y-64674882D01*
X104918060Y-64661794D01*
X105005003Y-64690396D01*
G36*
X105313794Y-65508395D02*
G01*
X105342575Y-65538283D01*
X105349503Y-65612117D01*
X105349600Y-65634515D01*
X105332761Y-65748978D01*
X105290333Y-65834772D01*
X105228832Y-65887235D01*
X105159026Y-65922983D01*
X105101958Y-65934190D01*
X105078667Y-65913481D01*
X105103395Y-65865320D01*
X105112533Y-65858401D01*
X105132184Y-65814999D01*
X105144404Y-65727839D01*
X105146400Y-65670135D01*
X105148693Y-65570649D01*
X105162683Y-65521315D01*
X105199043Y-65504559D01*
X105248000Y-65502801D01*
X105313794Y-65508395D01*
G37*
X105313794Y-65508395D02*
X105342575Y-65538283D01*
X105349503Y-65612117D01*
X105349600Y-65634515D01*
X105332761Y-65748978D01*
X105290333Y-65834772D01*
X105228832Y-65887235D01*
X105159026Y-65922983D01*
X105101958Y-65934190D01*
X105078667Y-65913481D01*
X105103395Y-65865320D01*
X105112533Y-65858401D01*
X105132184Y-65814999D01*
X105144404Y-65727839D01*
X105146400Y-65670135D01*
X105148693Y-65570649D01*
X105162683Y-65521315D01*
X105199043Y-65504559D01*
X105248000Y-65502801D01*
X105313794Y-65508395D01*
G36*
X114900000Y-65706001D02*
G01*
X114696800Y-65706001D01*
X114696800Y-64690001D01*
X114900000Y-64690001D01*
X114900000Y-65706001D01*
G37*
X114900000Y-65706001D02*
X114696800Y-65706001D01*
X114696800Y-64690001D01*
X114900000Y-64690001D01*
X114900000Y-65706001D01*
G36*
X100314787Y-64387492D02*
G01*
X100317795Y-64391758D01*
X100351250Y-64452078D01*
X100339222Y-64497393D01*
X100314466Y-64527224D01*
X100254227Y-64579936D01*
X100206824Y-64575711D01*
X100167042Y-64536446D01*
X100141309Y-64484080D01*
X100159092Y-64419537D01*
X100168618Y-64400979D01*
X100216244Y-64332300D01*
X100260242Y-64328097D01*
X100314787Y-64387492D01*
G37*
X100314787Y-64387492D02*
X100317795Y-64391758D01*
X100351250Y-64452078D01*
X100339222Y-64497393D01*
X100314466Y-64527224D01*
X100254227Y-64579936D01*
X100206824Y-64575711D01*
X100167042Y-64536446D01*
X100141309Y-64484080D01*
X100159092Y-64419537D01*
X100168618Y-64400979D01*
X100216244Y-64332300D01*
X100260242Y-64328097D01*
X100314787Y-64387492D01*
G36*
X82958433Y-64686935D02*
G01*
X83088792Y-64756737D01*
X83198932Y-64880532D01*
X83226200Y-64928282D01*
X83290237Y-65105044D01*
X83292865Y-65277658D01*
X83247748Y-65434819D01*
X83158490Y-65578904D01*
X83032134Y-65678083D01*
X82883184Y-65726641D01*
X82726145Y-65718866D01*
X82625067Y-65680076D01*
X82517877Y-65590982D01*
X82427489Y-65459880D01*
X82368665Y-65312465D01*
X82354133Y-65208443D01*
X82355613Y-65198001D01*
X82557333Y-65198001D01*
X82582119Y-65327228D01*
X82647255Y-65438162D01*
X82738906Y-65513512D01*
X82828267Y-65536667D01*
X82930210Y-65506253D01*
X83011523Y-65432469D01*
X83086238Y-65296471D01*
X83097510Y-65150892D01*
X83045338Y-65009870D01*
X83011523Y-64963532D01*
X82913585Y-64880295D01*
X82828267Y-64859334D01*
X82724885Y-64890316D01*
X82636137Y-64971735D01*
X82575858Y-65086299D01*
X82557333Y-65198001D01*
X82355613Y-65198001D01*
X82379885Y-65026864D01*
X82449967Y-64878541D01*
X82553621Y-64766930D01*
X82680089Y-64695488D01*
X82818612Y-64667671D01*
X82958433Y-64686935D01*
G37*
X82958433Y-64686935D02*
X83088792Y-64756737D01*
X83198932Y-64880532D01*
X83226200Y-64928282D01*
X83290237Y-65105044D01*
X83292865Y-65277658D01*
X83247748Y-65434819D01*
X83158490Y-65578904D01*
X83032134Y-65678083D01*
X82883184Y-65726641D01*
X82726145Y-65718866D01*
X82625067Y-65680076D01*
X82517877Y-65590982D01*
X82427489Y-65459880D01*
X82368665Y-65312465D01*
X82354133Y-65208443D01*
X82355613Y-65198001D01*
X82557333Y-65198001D01*
X82582119Y-65327228D01*
X82647255Y-65438162D01*
X82738906Y-65513512D01*
X82828267Y-65536667D01*
X82930210Y-65506253D01*
X83011523Y-65432469D01*
X83086238Y-65296471D01*
X83097510Y-65150892D01*
X83045338Y-65009870D01*
X83011523Y-64963532D01*
X82913585Y-64880295D01*
X82828267Y-64859334D01*
X82724885Y-64890316D01*
X82636137Y-64971735D01*
X82575858Y-65086299D01*
X82557333Y-65198001D01*
X82355613Y-65198001D01*
X82379885Y-65026864D01*
X82449967Y-64878541D01*
X82553621Y-64766930D01*
X82680089Y-64695488D01*
X82818612Y-64667671D01*
X82958433Y-64686935D01*
G36*
X81066058Y-64691054D02*
G01*
X81177049Y-64742771D01*
X81256272Y-64838647D01*
X81307130Y-64984286D01*
X81333030Y-65185292D01*
X81338134Y-65366246D01*
X81338134Y-65706001D01*
X81134934Y-65706001D01*
X81134934Y-65350401D01*
X81133413Y-65186576D01*
X81127306Y-65075958D01*
X81114293Y-65004055D01*
X81092058Y-64956378D01*
X81067200Y-64927067D01*
X80966931Y-64870623D01*
X80846903Y-64866195D01*
X80736069Y-64912054D01*
X80702872Y-64940090D01*
X80681172Y-64977585D01*
X80668549Y-65038147D01*
X80662583Y-65135383D01*
X80660854Y-65282904D01*
X80660800Y-65335388D01*
X80660800Y-65706001D01*
X80457600Y-65706001D01*
X80457600Y-64689453D01*
X80601534Y-64685921D01*
X80726806Y-64682801D01*
X80870402Y-64679162D01*
X80919894Y-64677893D01*
X81066058Y-64691054D01*
G37*
X81066058Y-64691054D02*
X81177049Y-64742771D01*
X81256272Y-64838647D01*
X81307130Y-64984286D01*
X81333030Y-65185292D01*
X81338134Y-65366246D01*
X81338134Y-65706001D01*
X81134934Y-65706001D01*
X81134934Y-65350401D01*
X81133413Y-65186576D01*
X81127306Y-65075958D01*
X81114293Y-65004055D01*
X81092058Y-64956378D01*
X81067200Y-64927067D01*
X80966931Y-64870623D01*
X80846903Y-64866195D01*
X80736069Y-64912054D01*
X80702872Y-64940090D01*
X80681172Y-64977585D01*
X80668549Y-65038147D01*
X80662583Y-65135383D01*
X80660854Y-65282904D01*
X80660800Y-65335388D01*
X80660800Y-65706001D01*
X80457600Y-65706001D01*
X80457600Y-64689453D01*
X80601534Y-64685921D01*
X80726806Y-64682801D01*
X80870402Y-64679162D01*
X80919894Y-64677893D01*
X81066058Y-64691054D01*
G36*
X114078067Y-64682064D02*
G01*
X114101926Y-64689272D01*
X114182553Y-64723618D01*
X114216258Y-64770586D01*
X114222667Y-64845897D01*
X114222667Y-64962673D01*
X114118818Y-64908971D01*
X114005234Y-64869447D01*
X113907112Y-64869232D01*
X113840919Y-64906173D01*
X113823010Y-64947645D01*
X113834831Y-65007827D01*
X113899709Y-65051222D01*
X113916143Y-65057711D01*
X114028415Y-65099746D01*
X114122416Y-65134935D01*
X114244939Y-65210343D01*
X114310664Y-65318885D01*
X114316421Y-65452328D01*
X114283807Y-65554547D01*
X114203004Y-65655959D01*
X114080261Y-65717781D01*
X113931104Y-65736281D01*
X113771058Y-65707724D01*
X113723134Y-65689376D01*
X113645492Y-65643414D01*
X113615826Y-65582033D01*
X113613067Y-65538302D01*
X113619254Y-65463678D01*
X113647192Y-65441084D01*
X113710948Y-65465074D01*
X113748534Y-65485867D01*
X113855744Y-65526756D01*
X113964297Y-65536269D01*
X114055821Y-65516885D01*
X114111944Y-65471084D01*
X114121067Y-65435591D01*
X114105098Y-65375215D01*
X114049286Y-65327917D01*
X113941768Y-65285083D01*
X113894284Y-65270848D01*
X113753560Y-65204689D01*
X113659665Y-65107120D01*
X113617852Y-64990293D01*
X113633376Y-64866363D01*
X113682268Y-64780494D01*
X113786070Y-64700039D01*
X113924205Y-64665881D01*
X114078067Y-64682064D01*
G37*
X114078067Y-64682064D02*
X114101926Y-64689272D01*
X114182553Y-64723618D01*
X114216258Y-64770586D01*
X114222667Y-64845897D01*
X114222667Y-64962673D01*
X114118818Y-64908971D01*
X114005234Y-64869447D01*
X113907112Y-64869232D01*
X113840919Y-64906173D01*
X113823010Y-64947645D01*
X113834831Y-65007827D01*
X113899709Y-65051222D01*
X113916143Y-65057711D01*
X114028415Y-65099746D01*
X114122416Y-65134935D01*
X114244939Y-65210343D01*
X114310664Y-65318885D01*
X114316421Y-65452328D01*
X114283807Y-65554547D01*
X114203004Y-65655959D01*
X114080261Y-65717781D01*
X113931104Y-65736281D01*
X113771058Y-65707724D01*
X113723134Y-65689376D01*
X113645492Y-65643414D01*
X113615826Y-65582033D01*
X113613067Y-65538302D01*
X113619254Y-65463678D01*
X113647192Y-65441084D01*
X113710948Y-65465074D01*
X113748534Y-65485867D01*
X113855744Y-65526756D01*
X113964297Y-65536269D01*
X114055821Y-65516885D01*
X114111944Y-65471084D01*
X114121067Y-65435591D01*
X114105098Y-65375215D01*
X114049286Y-65327917D01*
X113941768Y-65285083D01*
X113894284Y-65270848D01*
X113753560Y-65204689D01*
X113659665Y-65107120D01*
X113617852Y-64990293D01*
X113633376Y-64866363D01*
X113682268Y-64780494D01*
X113786070Y-64700039D01*
X113924205Y-64665881D01*
X114078067Y-64682064D01*
G36*
X114877453Y-64387492D02*
G01*
X114880461Y-64391758D01*
X114913917Y-64452078D01*
X114901888Y-64497393D01*
X114877133Y-64527224D01*
X114816894Y-64579936D01*
X114769490Y-64575711D01*
X114729709Y-64536446D01*
X114703975Y-64484080D01*
X114721759Y-64419537D01*
X114731285Y-64400979D01*
X114778911Y-64332300D01*
X114822909Y-64328097D01*
X114877453Y-64387492D01*
G37*
X114877453Y-64387492D02*
X114880461Y-64391758D01*
X114913917Y-64452078D01*
X114901888Y-64497393D01*
X114877133Y-64527224D01*
X114816894Y-64579936D01*
X114769490Y-64575711D01*
X114729709Y-64536446D01*
X114703975Y-64484080D01*
X114721759Y-64419537D01*
X114731285Y-64400979D01*
X114778911Y-64332300D01*
X114822909Y-64328097D01*
X114877453Y-64387492D01*
G36*
X93359658Y-64691054D02*
G01*
X93470649Y-64742771D01*
X93549872Y-64838647D01*
X93600730Y-64984286D01*
X93626630Y-65185292D01*
X93631734Y-65366246D01*
X93631734Y-65706001D01*
X93428534Y-65706001D01*
X93428534Y-65350401D01*
X93427013Y-65186576D01*
X93420906Y-65075958D01*
X93407893Y-65004055D01*
X93385658Y-64956378D01*
X93360800Y-64927067D01*
X93260531Y-64870623D01*
X93140503Y-64866195D01*
X93029669Y-64912054D01*
X92996472Y-64940090D01*
X92974772Y-64977585D01*
X92962149Y-65038147D01*
X92956183Y-65135383D01*
X92954454Y-65282904D01*
X92954400Y-65335388D01*
X92954400Y-65706001D01*
X92751200Y-65706001D01*
X92751200Y-64689453D01*
X92895134Y-64685921D01*
X93020406Y-64682801D01*
X93164002Y-64679162D01*
X93213494Y-64677893D01*
X93359658Y-64691054D01*
G37*
X93359658Y-64691054D02*
X93470649Y-64742771D01*
X93549872Y-64838647D01*
X93600730Y-64984286D01*
X93626630Y-65185292D01*
X93631734Y-65366246D01*
X93631734Y-65706001D01*
X93428534Y-65706001D01*
X93428534Y-65350401D01*
X93427013Y-65186576D01*
X93420906Y-65075958D01*
X93407893Y-65004055D01*
X93385658Y-64956378D01*
X93360800Y-64927067D01*
X93260531Y-64870623D01*
X93140503Y-64866195D01*
X93029669Y-64912054D01*
X92996472Y-64940090D01*
X92974772Y-64977585D01*
X92962149Y-65038147D01*
X92956183Y-65135383D01*
X92954454Y-65282904D01*
X92954400Y-65335388D01*
X92954400Y-65706001D01*
X92751200Y-65706001D01*
X92751200Y-64689453D01*
X92895134Y-64685921D01*
X93020406Y-64682801D01*
X93164002Y-64679162D01*
X93213494Y-64677893D01*
X93359658Y-64691054D01*
G36*
X93563014Y-59359876D02*
G01*
X93676202Y-59374977D01*
X93781904Y-59408574D01*
X93910146Y-59467353D01*
X93910424Y-59467490D01*
X94140316Y-59615282D01*
X94324027Y-59803590D01*
X94461685Y-60023500D01*
X94553420Y-60266100D01*
X94599361Y-60522478D01*
X94599639Y-60783722D01*
X94554382Y-61040918D01*
X94463721Y-61285156D01*
X94327784Y-61507522D01*
X94146702Y-61699104D01*
X93920603Y-61850991D01*
X93875455Y-61873277D01*
X93680912Y-61938275D01*
X93465871Y-61967362D01*
X93252890Y-61960185D01*
X93064525Y-61916393D01*
X92998083Y-61886948D01*
X92910728Y-61842488D01*
X92850536Y-61815304D01*
X92837216Y-61811334D01*
X92831592Y-61843489D01*
X92826670Y-61933108D01*
X92822732Y-62069925D01*
X92820064Y-62243671D01*
X92818949Y-62444080D01*
X92818934Y-62471734D01*
X92818934Y-63132134D01*
X92344800Y-63132134D01*
X92344800Y-60122932D01*
X92818934Y-60122932D01*
X92818934Y-61226389D01*
X92945934Y-61313959D01*
X93044627Y-61376436D01*
X93135965Y-61425500D01*
X93157600Y-61434952D01*
X93300581Y-61465658D01*
X93468222Y-61464379D01*
X93626031Y-61432130D01*
X93657759Y-61420251D01*
X93826071Y-61322245D01*
X93957466Y-61179150D01*
X94015623Y-61083200D01*
X94054629Y-60994120D01*
X94077135Y-60893625D01*
X94086865Y-60759972D01*
X94088121Y-60659867D01*
X94084042Y-60497365D01*
X94069324Y-60380498D01*
X94040243Y-60287525D01*
X94015623Y-60236534D01*
X93885434Y-60056734D01*
X93722570Y-59931239D01*
X93537414Y-59862105D01*
X93340353Y-59851384D01*
X93141771Y-59901131D01*
X92952054Y-60013401D01*
X92939372Y-60023656D01*
X92818934Y-60122932D01*
X92344800Y-60122932D01*
X92344800Y-59406801D01*
X92581867Y-59406801D01*
X92710669Y-59409788D01*
X92784387Y-59420530D01*
X92815477Y-59441697D01*
X92818934Y-59457601D01*
X92823162Y-59494173D01*
X92845054Y-59503593D01*
X92898419Y-59483948D01*
X92997067Y-59433325D01*
X92998083Y-59432787D01*
X93094954Y-59390573D01*
X93201800Y-59366916D01*
X93342561Y-59357410D01*
X93412312Y-59356587D01*
X93563014Y-59359876D01*
G37*
X93563014Y-59359876D02*
X93676202Y-59374977D01*
X93781904Y-59408574D01*
X93910146Y-59467353D01*
X93910424Y-59467490D01*
X94140316Y-59615282D01*
X94324027Y-59803590D01*
X94461685Y-60023500D01*
X94553420Y-60266100D01*
X94599361Y-60522478D01*
X94599639Y-60783722D01*
X94554382Y-61040918D01*
X94463721Y-61285156D01*
X94327784Y-61507522D01*
X94146702Y-61699104D01*
X93920603Y-61850991D01*
X93875455Y-61873277D01*
X93680912Y-61938275D01*
X93465871Y-61967362D01*
X93252890Y-61960185D01*
X93064525Y-61916393D01*
X92998083Y-61886948D01*
X92910728Y-61842488D01*
X92850536Y-61815304D01*
X92837216Y-61811334D01*
X92831592Y-61843489D01*
X92826670Y-61933108D01*
X92822732Y-62069925D01*
X92820064Y-62243671D01*
X92818949Y-62444080D01*
X92818934Y-62471734D01*
X92818934Y-63132134D01*
X92344800Y-63132134D01*
X92344800Y-60122932D01*
X92818934Y-60122932D01*
X92818934Y-61226389D01*
X92945934Y-61313959D01*
X93044627Y-61376436D01*
X93135965Y-61425500D01*
X93157600Y-61434952D01*
X93300581Y-61465658D01*
X93468222Y-61464379D01*
X93626031Y-61432130D01*
X93657759Y-61420251D01*
X93826071Y-61322245D01*
X93957466Y-61179150D01*
X94015623Y-61083200D01*
X94054629Y-60994120D01*
X94077135Y-60893625D01*
X94086865Y-60759972D01*
X94088121Y-60659867D01*
X94084042Y-60497365D01*
X94069324Y-60380498D01*
X94040243Y-60287525D01*
X94015623Y-60236534D01*
X93885434Y-60056734D01*
X93722570Y-59931239D01*
X93537414Y-59862105D01*
X93340353Y-59851384D01*
X93141771Y-59901131D01*
X92952054Y-60013401D01*
X92939372Y-60023656D01*
X92818934Y-60122932D01*
X92344800Y-60122932D01*
X92344800Y-59406801D01*
X92581867Y-59406801D01*
X92710669Y-59409788D01*
X92784387Y-59420530D01*
X92815477Y-59441697D01*
X92818934Y-59457601D01*
X92823162Y-59494173D01*
X92845054Y-59503593D01*
X92898419Y-59483948D01*
X92997067Y-59433325D01*
X92998083Y-59432787D01*
X93094954Y-59390573D01*
X93201800Y-59366916D01*
X93342561Y-59357410D01*
X93412312Y-59356587D01*
X93563014Y-59359876D01*
G36*
X102636185Y-64700283D02*
G01*
X102753530Y-64791759D01*
X102783213Y-64828162D01*
X102828858Y-64911168D01*
X102867852Y-65018100D01*
X102893711Y-65124976D01*
X102899954Y-65207810D01*
X102892926Y-65234036D01*
X102852616Y-65247780D01*
X102760569Y-65258519D01*
X102632766Y-65264759D01*
X102553601Y-65265734D01*
X102387541Y-65269503D01*
X102279973Y-65280498D01*
X102234999Y-65298250D01*
X102233867Y-65302206D01*
X102256019Y-65347286D01*
X102311299Y-65415232D01*
X102332862Y-65437672D01*
X102455104Y-65518283D01*
X102592837Y-65533824D01*
X102741696Y-65483982D01*
X102768085Y-65468807D01*
X102853027Y-65419302D01*
X102895223Y-65408991D01*
X102909630Y-65441601D01*
X102911200Y-65504456D01*
X102902030Y-65573364D01*
X102863339Y-65621321D01*
X102778358Y-65667968D01*
X102767267Y-65673046D01*
X102611553Y-65726731D01*
X102476052Y-65730605D01*
X102350721Y-65692230D01*
X102216387Y-65600889D01*
X102109879Y-65466717D01*
X102050162Y-65314034D01*
X102048443Y-65304590D01*
X102042733Y-65126818D01*
X102050386Y-65096401D01*
X102232127Y-65096401D01*
X102470064Y-65096401D01*
X102613002Y-65091152D01*
X102690972Y-65075187D01*
X102708000Y-65056250D01*
X102686544Y-65005150D01*
X102634894Y-64938282D01*
X102634363Y-64937717D01*
X102533833Y-64869099D01*
X102430645Y-64864517D01*
X102336813Y-64921882D01*
X102282545Y-64998905D01*
X102232127Y-65096401D01*
X102050386Y-65096401D01*
X102082303Y-64969548D01*
X102157921Y-64838767D01*
X102260352Y-64740463D01*
X102380363Y-64680622D01*
X102508718Y-64665233D01*
X102636185Y-64700283D01*
G37*
X102636185Y-64700283D02*
X102753530Y-64791759D01*
X102783213Y-64828162D01*
X102828858Y-64911168D01*
X102867852Y-65018100D01*
X102893711Y-65124976D01*
X102899954Y-65207810D01*
X102892926Y-65234036D01*
X102852616Y-65247780D01*
X102760569Y-65258519D01*
X102632766Y-65264759D01*
X102553601Y-65265734D01*
X102387541Y-65269503D01*
X102279973Y-65280498D01*
X102234999Y-65298250D01*
X102233867Y-65302206D01*
X102256019Y-65347286D01*
X102311299Y-65415232D01*
X102332862Y-65437672D01*
X102455104Y-65518283D01*
X102592837Y-65533824D01*
X102741696Y-65483982D01*
X102768085Y-65468807D01*
X102853027Y-65419302D01*
X102895223Y-65408991D01*
X102909630Y-65441601D01*
X102911200Y-65504456D01*
X102902030Y-65573364D01*
X102863339Y-65621321D01*
X102778358Y-65667968D01*
X102767267Y-65673046D01*
X102611553Y-65726731D01*
X102476052Y-65730605D01*
X102350721Y-65692230D01*
X102216387Y-65600889D01*
X102109879Y-65466717D01*
X102050162Y-65314034D01*
X102048443Y-65304590D01*
X102042733Y-65126818D01*
X102050386Y-65096401D01*
X102232127Y-65096401D01*
X102470064Y-65096401D01*
X102613002Y-65091152D01*
X102690972Y-65075187D01*
X102708000Y-65056250D01*
X102686544Y-65005150D01*
X102634894Y-64938282D01*
X102634363Y-64937717D01*
X102533833Y-64869099D01*
X102430645Y-64864517D01*
X102336813Y-64921882D01*
X102282545Y-64998905D01*
X102232127Y-65096401D01*
X102050386Y-65096401D01*
X102082303Y-64969548D01*
X102157921Y-64838767D01*
X102260352Y-64740463D01*
X102380363Y-64680622D01*
X102508718Y-64665233D01*
X102636185Y-64700283D01*
G36*
X81915732Y-59354957D02*
G01*
X82137113Y-59417268D01*
X82327051Y-59536001D01*
X82480914Y-59709375D01*
X82561081Y-59854258D01*
X82585002Y-59909683D01*
X82603809Y-59963632D01*
X82618235Y-60025022D01*
X82629011Y-60102768D01*
X82636867Y-60205786D01*
X82642535Y-60342993D01*
X82646747Y-60523304D01*
X82650234Y-60755635D01*
X82652856Y-60973134D01*
X82663713Y-61912934D01*
X82424256Y-61912934D01*
X82296043Y-61910278D01*
X82222301Y-61900352D01*
X82189907Y-61880216D01*
X82184800Y-61859312D01*
X82172267Y-61819579D01*
X82159400Y-61818764D01*
X81902399Y-61922442D01*
X81649834Y-61969324D01*
X81412378Y-61957993D01*
X81308178Y-61931877D01*
X81122579Y-61838022D01*
X80977561Y-61696360D01*
X80880043Y-61517862D01*
X80836945Y-61313497D01*
X80839002Y-61211741D01*
X81338134Y-61211741D01*
X81366070Y-61332790D01*
X81445041Y-61417244D01*
X81567791Y-61463003D01*
X81727062Y-61467967D01*
X81915598Y-61430035D01*
X81997263Y-61402501D01*
X82184800Y-61332334D01*
X82184800Y-60761467D01*
X82055480Y-60761467D01*
X81864374Y-60781486D01*
X81686465Y-60836589D01*
X81533584Y-60919352D01*
X81417564Y-61022345D01*
X81350237Y-61138143D01*
X81338134Y-61211741D01*
X80839002Y-61211741D01*
X80839465Y-61188840D01*
X80891687Y-60957925D01*
X80997891Y-60762627D01*
X81159517Y-60601750D01*
X81378006Y-60474099D01*
X81654800Y-60378480D01*
X81873085Y-60331827D01*
X82005877Y-60307973D01*
X82110512Y-60287280D01*
X82171112Y-60272973D01*
X82179709Y-60269556D01*
X82181658Y-60226428D01*
X82155826Y-60149223D01*
X82112306Y-60060024D01*
X82061189Y-59980909D01*
X82033526Y-59949725D01*
X81915002Y-59881648D01*
X81757223Y-59853150D01*
X81575021Y-59863034D01*
X81383227Y-59910103D01*
X81196670Y-59993161D01*
X81150054Y-60021009D01*
X81060600Y-60073290D01*
X80996039Y-60102756D01*
X80975077Y-60104900D01*
X80978633Y-60068013D01*
X81001705Y-59982339D01*
X81040072Y-59862527D01*
X81068317Y-59781353D01*
X81178126Y-59474375D01*
X81397164Y-59406721D01*
X81667538Y-59350847D01*
X81915732Y-59354957D01*
G37*
X81915732Y-59354957D02*
X82137113Y-59417268D01*
X82327051Y-59536001D01*
X82480914Y-59709375D01*
X82561081Y-59854258D01*
X82585002Y-59909683D01*
X82603809Y-59963632D01*
X82618235Y-60025022D01*
X82629011Y-60102768D01*
X82636867Y-60205786D01*
X82642535Y-60342993D01*
X82646747Y-60523304D01*
X82650234Y-60755635D01*
X82652856Y-60973134D01*
X82663713Y-61912934D01*
X82424256Y-61912934D01*
X82296043Y-61910278D01*
X82222301Y-61900352D01*
X82189907Y-61880216D01*
X82184800Y-61859312D01*
X82172267Y-61819579D01*
X82159400Y-61818764D01*
X81902399Y-61922442D01*
X81649834Y-61969324D01*
X81412378Y-61957993D01*
X81308178Y-61931877D01*
X81122579Y-61838022D01*
X80977561Y-61696360D01*
X80880043Y-61517862D01*
X80836945Y-61313497D01*
X80839002Y-61211741D01*
X81338134Y-61211741D01*
X81366070Y-61332790D01*
X81445041Y-61417244D01*
X81567791Y-61463003D01*
X81727062Y-61467967D01*
X81915598Y-61430035D01*
X81997263Y-61402501D01*
X82184800Y-61332334D01*
X82184800Y-60761467D01*
X82055480Y-60761467D01*
X81864374Y-60781486D01*
X81686465Y-60836589D01*
X81533584Y-60919352D01*
X81417564Y-61022345D01*
X81350237Y-61138143D01*
X81338134Y-61211741D01*
X80839002Y-61211741D01*
X80839465Y-61188840D01*
X80891687Y-60957925D01*
X80997891Y-60762627D01*
X81159517Y-60601750D01*
X81378006Y-60474099D01*
X81654800Y-60378480D01*
X81873085Y-60331827D01*
X82005877Y-60307973D01*
X82110512Y-60287280D01*
X82171112Y-60272973D01*
X82179709Y-60269556D01*
X82181658Y-60226428D01*
X82155826Y-60149223D01*
X82112306Y-60060024D01*
X82061189Y-59980909D01*
X82033526Y-59949725D01*
X81915002Y-59881648D01*
X81757223Y-59853150D01*
X81575021Y-59863034D01*
X81383227Y-59910103D01*
X81196670Y-59993161D01*
X81150054Y-60021009D01*
X81060600Y-60073290D01*
X80996039Y-60102756D01*
X80975077Y-60104900D01*
X80978633Y-60068013D01*
X81001705Y-59982339D01*
X81040072Y-59862527D01*
X81068317Y-59781353D01*
X81178126Y-59474375D01*
X81397164Y-59406721D01*
X81667538Y-59350847D01*
X81915732Y-59354957D01*
G36*
X115861725Y-64678175D02*
G01*
X115991798Y-64690152D01*
X116068473Y-64703112D01*
X116105862Y-64723542D01*
X116118074Y-64757931D01*
X116119200Y-64796570D01*
X116103973Y-64872455D01*
X116070529Y-64893201D01*
X116038641Y-64912095D01*
X116036087Y-64977464D01*
X116039981Y-65004879D01*
X116035761Y-65158353D01*
X115978727Y-65290811D01*
X115880258Y-65390601D01*
X115751734Y-65446069D01*
X115608770Y-65446435D01*
X115528775Y-65437715D01*
X115503953Y-65451489D01*
X115527992Y-65481848D01*
X115594576Y-65522878D01*
X115697390Y-65568670D01*
X115765601Y-65593246D01*
X115957982Y-65675245D01*
X116084657Y-65771188D01*
X116146330Y-65881702D01*
X116153067Y-65937420D01*
X116122757Y-66064250D01*
X116040011Y-66166099D01*
X115917107Y-66237990D01*
X115766323Y-66274942D01*
X115599937Y-66271976D01*
X115438027Y-66227412D01*
X115316721Y-66148091D01*
X115253128Y-66041846D01*
X115251814Y-65986877D01*
X115449477Y-65986877D01*
X115482507Y-66037894D01*
X115545721Y-66065463D01*
X115647011Y-66077742D01*
X115760014Y-66075249D01*
X115858365Y-66058505D01*
X115914650Y-66029361D01*
X115946971Y-65951810D01*
X115912093Y-65878823D01*
X115810439Y-65811100D01*
X115772069Y-65794002D01*
X115611738Y-65727555D01*
X115526802Y-65807348D01*
X115455488Y-65901486D01*
X115449477Y-65986877D01*
X115251814Y-65986877D01*
X115250224Y-65920371D01*
X115310985Y-65795358D01*
X115323920Y-65779213D01*
X115377694Y-65705722D01*
X115389121Y-65649525D01*
X115369284Y-65590348D01*
X115346775Y-65493990D01*
X115366898Y-65420489D01*
X115385815Y-65345598D01*
X115370515Y-65256736D01*
X115350536Y-65201048D01*
X115319202Y-65108639D01*
X115315660Y-65037239D01*
X115317246Y-65031633D01*
X115512934Y-65031633D01*
X115524982Y-65130556D01*
X115570305Y-65209551D01*
X115638408Y-65256559D01*
X115718796Y-65259522D01*
X115795048Y-65212515D01*
X115834179Y-65136820D01*
X115846941Y-65035395D01*
X115832011Y-64941096D01*
X115807627Y-64899974D01*
X115732581Y-64863414D01*
X115641122Y-64864299D01*
X115564930Y-64899632D01*
X115544658Y-64924841D01*
X115512934Y-65031633D01*
X115317246Y-65031633D01*
X115340140Y-64950750D01*
X115352351Y-64918118D01*
X115413699Y-64796804D01*
X115495187Y-64719344D01*
X115609345Y-64679837D01*
X115768706Y-64672378D01*
X115861725Y-64678175D01*
G37*
X115861725Y-64678175D02*
X115991798Y-64690152D01*
X116068473Y-64703112D01*
X116105862Y-64723542D01*
X116118074Y-64757931D01*
X116119200Y-64796570D01*
X116103973Y-64872455D01*
X116070529Y-64893201D01*
X116038641Y-64912095D01*
X116036087Y-64977464D01*
X116039981Y-65004879D01*
X116035761Y-65158353D01*
X115978727Y-65290811D01*
X115880258Y-65390601D01*
X115751734Y-65446069D01*
X115608770Y-65446435D01*
X115528775Y-65437715D01*
X115503953Y-65451489D01*
X115527992Y-65481848D01*
X115594576Y-65522878D01*
X115697390Y-65568670D01*
X115765601Y-65593246D01*
X115957982Y-65675245D01*
X116084657Y-65771188D01*
X116146330Y-65881702D01*
X116153067Y-65937420D01*
X116122757Y-66064250D01*
X116040011Y-66166099D01*
X115917107Y-66237990D01*
X115766323Y-66274942D01*
X115599937Y-66271976D01*
X115438027Y-66227412D01*
X115316721Y-66148091D01*
X115253128Y-66041846D01*
X115251814Y-65986877D01*
X115449477Y-65986877D01*
X115482507Y-66037894D01*
X115545721Y-66065463D01*
X115647011Y-66077742D01*
X115760014Y-66075249D01*
X115858365Y-66058505D01*
X115914650Y-66029361D01*
X115946971Y-65951810D01*
X115912093Y-65878823D01*
X115810439Y-65811100D01*
X115772069Y-65794002D01*
X115611738Y-65727555D01*
X115526802Y-65807348D01*
X115455488Y-65901486D01*
X115449477Y-65986877D01*
X115251814Y-65986877D01*
X115250224Y-65920371D01*
X115310985Y-65795358D01*
X115323920Y-65779213D01*
X115377694Y-65705722D01*
X115389121Y-65649525D01*
X115369284Y-65590348D01*
X115346775Y-65493990D01*
X115366898Y-65420489D01*
X115385815Y-65345598D01*
X115370515Y-65256736D01*
X115350536Y-65201048D01*
X115319202Y-65108639D01*
X115315660Y-65037239D01*
X115317246Y-65031633D01*
X115512934Y-65031633D01*
X115524982Y-65130556D01*
X115570305Y-65209551D01*
X115638408Y-65256559D01*
X115718796Y-65259522D01*
X115795048Y-65212515D01*
X115834179Y-65136820D01*
X115846941Y-65035395D01*
X115832011Y-64941096D01*
X115807627Y-64899974D01*
X115732581Y-64863414D01*
X115641122Y-64864299D01*
X115564930Y-64899632D01*
X115544658Y-64924841D01*
X115512934Y-65031633D01*
X115317246Y-65031633D01*
X115340140Y-64950750D01*
X115352351Y-64918118D01*
X115413699Y-64796804D01*
X115495187Y-64719344D01*
X115609345Y-64679837D01*
X115768706Y-64672378D01*
X115861725Y-64678175D01*
G36*
X81947734Y-65706001D02*
G01*
X81744534Y-65706001D01*
X81744534Y-64690001D01*
X81947734Y-64690001D01*
X81947734Y-65706001D01*
G37*
X81947734Y-65706001D02*
X81744534Y-65706001D01*
X81744534Y-64690001D01*
X81947734Y-64690001D01*
X81947734Y-65706001D01*
G36*
X113033252Y-64700283D02*
G01*
X113150596Y-64791759D01*
X113180279Y-64828162D01*
X113225924Y-64911168D01*
X113264918Y-65018100D01*
X113290778Y-65124976D01*
X113297021Y-65207810D01*
X113289993Y-65234036D01*
X113249683Y-65247780D01*
X113157636Y-65258519D01*
X113029833Y-65264759D01*
X112950668Y-65265734D01*
X112784608Y-65269503D01*
X112677039Y-65280498D01*
X112632065Y-65298250D01*
X112630934Y-65302206D01*
X112653086Y-65347286D01*
X112708366Y-65415232D01*
X112729928Y-65437672D01*
X112852170Y-65518283D01*
X112989903Y-65533824D01*
X113138762Y-65483982D01*
X113165152Y-65468807D01*
X113250094Y-65419302D01*
X113292289Y-65408991D01*
X113306697Y-65441601D01*
X113308267Y-65504456D01*
X113299096Y-65573364D01*
X113260405Y-65621321D01*
X113175425Y-65667968D01*
X113164334Y-65673046D01*
X113008620Y-65726731D01*
X112873118Y-65730605D01*
X112747788Y-65692230D01*
X112613453Y-65600889D01*
X112506945Y-65466717D01*
X112447229Y-65314034D01*
X112445510Y-65304590D01*
X112439799Y-65126818D01*
X112447452Y-65096401D01*
X112629194Y-65096401D01*
X112867130Y-65096401D01*
X113010068Y-65091152D01*
X113088039Y-65075187D01*
X113105067Y-65056250D01*
X113083611Y-65005150D01*
X113031960Y-64938282D01*
X113031430Y-64937717D01*
X112930900Y-64869099D01*
X112827712Y-64864517D01*
X112733880Y-64921882D01*
X112679611Y-64998905D01*
X112629194Y-65096401D01*
X112447452Y-65096401D01*
X112479370Y-64969548D01*
X112554988Y-64838767D01*
X112657419Y-64740463D01*
X112777429Y-64680622D01*
X112905785Y-64665233D01*
X113033252Y-64700283D01*
G37*
X113033252Y-64700283D02*
X113150596Y-64791759D01*
X113180279Y-64828162D01*
X113225924Y-64911168D01*
X113264918Y-65018100D01*
X113290778Y-65124976D01*
X113297021Y-65207810D01*
X113289993Y-65234036D01*
X113249683Y-65247780D01*
X113157636Y-65258519D01*
X113029833Y-65264759D01*
X112950668Y-65265734D01*
X112784608Y-65269503D01*
X112677039Y-65280498D01*
X112632065Y-65298250D01*
X112630934Y-65302206D01*
X112653086Y-65347286D01*
X112708366Y-65415232D01*
X112729928Y-65437672D01*
X112852170Y-65518283D01*
X112989903Y-65533824D01*
X113138762Y-65483982D01*
X113165152Y-65468807D01*
X113250094Y-65419302D01*
X113292289Y-65408991D01*
X113306697Y-65441601D01*
X113308267Y-65504456D01*
X113299096Y-65573364D01*
X113260405Y-65621321D01*
X113175425Y-65667968D01*
X113164334Y-65673046D01*
X113008620Y-65726731D01*
X112873118Y-65730605D01*
X112747788Y-65692230D01*
X112613453Y-65600889D01*
X112506945Y-65466717D01*
X112447229Y-65314034D01*
X112445510Y-65304590D01*
X112439799Y-65126818D01*
X112447452Y-65096401D01*
X112629194Y-65096401D01*
X112867130Y-65096401D01*
X113010068Y-65091152D01*
X113088039Y-65075187D01*
X113105067Y-65056250D01*
X113083611Y-65005150D01*
X113031960Y-64938282D01*
X113031430Y-64937717D01*
X112930900Y-64869099D01*
X112827712Y-64864517D01*
X112733880Y-64921882D01*
X112679611Y-64998905D01*
X112629194Y-65096401D01*
X112447452Y-65096401D01*
X112479370Y-64969548D01*
X112554988Y-64838767D01*
X112657419Y-64740463D01*
X112777429Y-64680622D01*
X112905785Y-64665233D01*
X113033252Y-64700283D01*
G36*
X81925187Y-64387492D02*
G01*
X81928195Y-64391758D01*
X81961650Y-64452078D01*
X81949622Y-64497393D01*
X81924866Y-64527224D01*
X81864627Y-64579936D01*
X81817224Y-64575711D01*
X81777442Y-64536446D01*
X81751709Y-64484080D01*
X81769492Y-64419537D01*
X81779018Y-64400979D01*
X81826644Y-64332300D01*
X81870642Y-64328097D01*
X81925187Y-64387492D01*
G37*
X81925187Y-64387492D02*
X81928195Y-64391758D01*
X81961650Y-64452078D01*
X81949622Y-64497393D01*
X81924866Y-64527224D01*
X81864627Y-64579936D01*
X81817224Y-64575711D01*
X81777442Y-64536446D01*
X81751709Y-64484080D01*
X81769492Y-64419537D01*
X81779018Y-64400979D01*
X81826644Y-64332300D01*
X81870642Y-64328097D01*
X81925187Y-64387492D01*
G36*
X87320981Y-59356628D02*
G01*
X87530654Y-59385711D01*
X87718541Y-59441146D01*
X87722000Y-59442550D01*
X87925200Y-59525506D01*
X87935036Y-59804820D01*
X87936277Y-59932682D01*
X87931007Y-60029771D01*
X87920319Y-60080337D01*
X87915651Y-60084134D01*
X87872742Y-60069045D01*
X87789452Y-60029647D01*
X87692667Y-59979188D01*
X87518721Y-59905584D01*
X87334102Y-59861754D01*
X87160588Y-59850997D01*
X87019959Y-59876618D01*
X87018851Y-59877046D01*
X86922412Y-59943991D01*
X86872193Y-60040905D01*
X86877519Y-60147808D01*
X86884407Y-60165074D01*
X86913597Y-60208275D01*
X86965138Y-60247603D01*
X87048525Y-60287088D01*
X87173250Y-60330761D01*
X87348806Y-60382654D01*
X87484934Y-60420073D01*
X87729437Y-60503419D01*
X87914047Y-60608038D01*
X88044850Y-60739883D01*
X88127930Y-60904907D01*
X88167004Y-61087361D01*
X88161939Y-61312964D01*
X88094816Y-61518536D01*
X87970244Y-61696029D01*
X87792829Y-61837396D01*
X87713463Y-61879524D01*
X87549158Y-61932663D01*
X87345117Y-61962901D01*
X87125916Y-61968600D01*
X86916130Y-61948119D01*
X86858400Y-61936554D01*
X86723183Y-61898713D01*
X86590286Y-61850923D01*
X86536667Y-61827167D01*
X86401200Y-61760534D01*
X86391364Y-61481134D01*
X86388813Y-61353221D01*
X86390594Y-61256099D01*
X86396275Y-61205525D01*
X86399012Y-61201734D01*
X86436437Y-61217855D01*
X86507272Y-61257818D01*
X86527382Y-61270031D01*
X86700533Y-61357258D01*
X86887966Y-61419085D01*
X87078054Y-61455322D01*
X87259166Y-61465777D01*
X87419677Y-61450258D01*
X87547956Y-61408573D01*
X87632376Y-61340532D01*
X87656733Y-61288632D01*
X87671084Y-61186941D01*
X87653233Y-61103269D01*
X87596494Y-61032364D01*
X87494181Y-60968977D01*
X87339606Y-60907855D01*
X87126085Y-60843747D01*
X87071425Y-60828959D01*
X86813514Y-60743224D01*
X86619248Y-60640113D01*
X86486466Y-60518293D01*
X86436132Y-60437195D01*
X86366715Y-60219237D01*
X86361458Y-60004150D01*
X86417132Y-59801654D01*
X86530510Y-59621466D01*
X86698365Y-59473307D01*
X86770527Y-59430205D01*
X86919989Y-59378603D01*
X87110450Y-59354168D01*
X87320981Y-59356628D01*
G37*
X87320981Y-59356628D02*
X87530654Y-59385711D01*
X87718541Y-59441146D01*
X87722000Y-59442550D01*
X87925200Y-59525506D01*
X87935036Y-59804820D01*
X87936277Y-59932682D01*
X87931007Y-60029771D01*
X87920319Y-60080337D01*
X87915651Y-60084134D01*
X87872742Y-60069045D01*
X87789452Y-60029647D01*
X87692667Y-59979188D01*
X87518721Y-59905584D01*
X87334102Y-59861754D01*
X87160588Y-59850997D01*
X87019959Y-59876618D01*
X87018851Y-59877046D01*
X86922412Y-59943991D01*
X86872193Y-60040905D01*
X86877519Y-60147808D01*
X86884407Y-60165074D01*
X86913597Y-60208275D01*
X86965138Y-60247603D01*
X87048525Y-60287088D01*
X87173250Y-60330761D01*
X87348806Y-60382654D01*
X87484934Y-60420073D01*
X87729437Y-60503419D01*
X87914047Y-60608038D01*
X88044850Y-60739883D01*
X88127930Y-60904907D01*
X88167004Y-61087361D01*
X88161939Y-61312964D01*
X88094816Y-61518536D01*
X87970244Y-61696029D01*
X87792829Y-61837396D01*
X87713463Y-61879524D01*
X87549158Y-61932663D01*
X87345117Y-61962901D01*
X87125916Y-61968600D01*
X86916130Y-61948119D01*
X86858400Y-61936554D01*
X86723183Y-61898713D01*
X86590286Y-61850923D01*
X86536667Y-61827167D01*
X86401200Y-61760534D01*
X86391364Y-61481134D01*
X86388813Y-61353221D01*
X86390594Y-61256099D01*
X86396275Y-61205525D01*
X86399012Y-61201734D01*
X86436437Y-61217855D01*
X86507272Y-61257818D01*
X86527382Y-61270031D01*
X86700533Y-61357258D01*
X86887966Y-61419085D01*
X87078054Y-61455322D01*
X87259166Y-61465777D01*
X87419677Y-61450258D01*
X87547956Y-61408573D01*
X87632376Y-61340532D01*
X87656733Y-61288632D01*
X87671084Y-61186941D01*
X87653233Y-61103269D01*
X87596494Y-61032364D01*
X87494181Y-60968977D01*
X87339606Y-60907855D01*
X87126085Y-60843747D01*
X87071425Y-60828959D01*
X86813514Y-60743224D01*
X86619248Y-60640113D01*
X86486466Y-60518293D01*
X86436132Y-60437195D01*
X86366715Y-60219237D01*
X86361458Y-60004150D01*
X86417132Y-59801654D01*
X86530510Y-59621466D01*
X86698365Y-59473307D01*
X86770527Y-59430205D01*
X86919989Y-59378603D01*
X87110450Y-59354168D01*
X87320981Y-59356628D01*
G36*
X90309457Y-59359057D02*
G01*
X90419621Y-59372682D01*
X90519620Y-59403555D01*
X90638182Y-59458359D01*
X90670086Y-59474534D01*
X90908435Y-59633223D01*
X91101092Y-59841279D01*
X91245535Y-60095873D01*
X91263803Y-60140228D01*
X91321256Y-60353848D01*
X91345595Y-60600117D01*
X91336819Y-60852599D01*
X91294929Y-61084856D01*
X91263803Y-61179506D01*
X91131139Y-61434385D01*
X90953731Y-61646456D01*
X90739298Y-61809876D01*
X90495555Y-61918801D01*
X90230220Y-61967388D01*
X90222804Y-61967809D01*
X90049785Y-61966666D01*
X89897651Y-61946672D01*
X89848354Y-61933579D01*
X89582783Y-61812662D01*
X89357475Y-61638394D01*
X89176542Y-61414703D01*
X89055836Y-61176404D01*
X88999429Y-60966330D01*
X88975345Y-60723027D01*
X88977417Y-60659867D01*
X89483880Y-60659867D01*
X89487958Y-60822370D01*
X89502676Y-60939236D01*
X89531758Y-61032209D01*
X89556377Y-61083200D01*
X89684498Y-61261690D01*
X89844719Y-61387897D01*
X90027301Y-61457960D01*
X90222503Y-61468019D01*
X90406559Y-61420251D01*
X90574871Y-61322245D01*
X90706266Y-61179150D01*
X90764423Y-61083200D01*
X90803429Y-60994120D01*
X90825935Y-60893625D01*
X90835665Y-60759972D01*
X90836921Y-60659867D01*
X90832842Y-60497365D01*
X90818124Y-60380498D01*
X90789043Y-60287525D01*
X90764423Y-60236534D01*
X90646297Y-60064761D01*
X90498861Y-59945242D01*
X90406559Y-59899484D01*
X90208456Y-59850418D01*
X90013848Y-59864914D01*
X89832515Y-59939096D01*
X89674240Y-60069084D01*
X89556377Y-60236534D01*
X89517371Y-60325614D01*
X89494865Y-60426109D01*
X89485136Y-60559763D01*
X89483880Y-60659867D01*
X88977417Y-60659867D01*
X88983556Y-60472775D01*
X89024033Y-60241853D01*
X89056997Y-60140228D01*
X89193582Y-59878530D01*
X89378779Y-59662924D01*
X89610067Y-59496236D01*
X89650715Y-59474534D01*
X89777342Y-59413477D01*
X89878994Y-59377841D01*
X89984398Y-59360946D01*
X90122284Y-59356110D01*
X90160400Y-59356001D01*
X90309457Y-59359057D01*
G37*
X90309457Y-59359057D02*
X90419621Y-59372682D01*
X90519620Y-59403555D01*
X90638182Y-59458359D01*
X90670086Y-59474534D01*
X90908435Y-59633223D01*
X91101092Y-59841279D01*
X91245535Y-60095873D01*
X91263803Y-60140228D01*
X91321256Y-60353848D01*
X91345595Y-60600117D01*
X91336819Y-60852599D01*
X91294929Y-61084856D01*
X91263803Y-61179506D01*
X91131139Y-61434385D01*
X90953731Y-61646456D01*
X90739298Y-61809876D01*
X90495555Y-61918801D01*
X90230220Y-61967388D01*
X90222804Y-61967809D01*
X90049785Y-61966666D01*
X89897651Y-61946672D01*
X89848354Y-61933579D01*
X89582783Y-61812662D01*
X89357475Y-61638394D01*
X89176542Y-61414703D01*
X89055836Y-61176404D01*
X88999429Y-60966330D01*
X88975345Y-60723027D01*
X88977417Y-60659867D01*
X89483880Y-60659867D01*
X89487958Y-60822370D01*
X89502676Y-60939236D01*
X89531758Y-61032209D01*
X89556377Y-61083200D01*
X89684498Y-61261690D01*
X89844719Y-61387897D01*
X90027301Y-61457960D01*
X90222503Y-61468019D01*
X90406559Y-61420251D01*
X90574871Y-61322245D01*
X90706266Y-61179150D01*
X90764423Y-61083200D01*
X90803429Y-60994120D01*
X90825935Y-60893625D01*
X90835665Y-60759972D01*
X90836921Y-60659867D01*
X90832842Y-60497365D01*
X90818124Y-60380498D01*
X90789043Y-60287525D01*
X90764423Y-60236534D01*
X90646297Y-60064761D01*
X90498861Y-59945242D01*
X90406559Y-59899484D01*
X90208456Y-59850418D01*
X90013848Y-59864914D01*
X89832515Y-59939096D01*
X89674240Y-60069084D01*
X89556377Y-60236534D01*
X89517371Y-60325614D01*
X89494865Y-60426109D01*
X89485136Y-60559763D01*
X89483880Y-60659867D01*
X88977417Y-60659867D01*
X88983556Y-60472775D01*
X89024033Y-60241853D01*
X89056997Y-60140228D01*
X89193582Y-59878530D01*
X89378779Y-59662924D01*
X89610067Y-59496236D01*
X89650715Y-59474534D01*
X89777342Y-59413477D01*
X89878994Y-59377841D01*
X89984398Y-59360946D01*
X90122284Y-59356110D01*
X90160400Y-59356001D01*
X90309457Y-59359057D01*
G36*
X102709865Y-59354957D02*
G01*
X102931246Y-59417268D01*
X103121184Y-59536001D01*
X103275047Y-59709375D01*
X103355214Y-59854258D01*
X103379135Y-59909683D01*
X103397943Y-59963632D01*
X103412369Y-60025022D01*
X103423144Y-60102768D01*
X103431000Y-60205786D01*
X103436669Y-60342993D01*
X103440881Y-60523304D01*
X103444367Y-60755635D01*
X103446990Y-60973134D01*
X103457846Y-61912934D01*
X103218390Y-61912934D01*
X103090176Y-61910278D01*
X103016434Y-61900352D01*
X102984040Y-61880216D01*
X102978933Y-61859312D01*
X102966400Y-61819579D01*
X102953533Y-61818764D01*
X102696532Y-61922442D01*
X102443967Y-61969324D01*
X102206511Y-61957993D01*
X102102311Y-61931877D01*
X101916713Y-61838022D01*
X101771694Y-61696360D01*
X101674176Y-61517862D01*
X101631079Y-61313497D01*
X101633135Y-61211741D01*
X102132267Y-61211741D01*
X102160203Y-61332790D01*
X102239175Y-61417244D01*
X102361924Y-61463003D01*
X102521196Y-61467967D01*
X102709732Y-61430035D01*
X102791396Y-61402501D01*
X102978933Y-61332334D01*
X102978933Y-60761467D01*
X102849614Y-60761467D01*
X102658508Y-60781486D01*
X102480598Y-60836589D01*
X102327717Y-60919352D01*
X102211697Y-61022345D01*
X102144371Y-61138143D01*
X102132267Y-61211741D01*
X101633135Y-61211741D01*
X101633598Y-61188840D01*
X101685820Y-60957925D01*
X101792024Y-60762627D01*
X101953650Y-60601750D01*
X102172139Y-60474099D01*
X102448933Y-60378480D01*
X102667219Y-60331827D01*
X102800010Y-60307973D01*
X102904646Y-60287280D01*
X102965245Y-60272973D01*
X102973842Y-60269556D01*
X102975791Y-60226428D01*
X102949959Y-60149223D01*
X102906439Y-60060024D01*
X102855323Y-59980909D01*
X102827659Y-59949725D01*
X102709135Y-59881648D01*
X102551357Y-59853150D01*
X102369155Y-59863034D01*
X102177360Y-59910103D01*
X101990803Y-59993161D01*
X101944187Y-60021009D01*
X101854733Y-60073290D01*
X101790172Y-60102756D01*
X101769211Y-60104900D01*
X101772767Y-60068013D01*
X101795839Y-59982339D01*
X101834205Y-59862527D01*
X101862451Y-59781353D01*
X101972259Y-59474375D01*
X102191297Y-59406721D01*
X102461671Y-59350847D01*
X102709865Y-59354957D01*
G37*
X102709865Y-59354957D02*
X102931246Y-59417268D01*
X103121184Y-59536001D01*
X103275047Y-59709375D01*
X103355214Y-59854258D01*
X103379135Y-59909683D01*
X103397943Y-59963632D01*
X103412369Y-60025022D01*
X103423144Y-60102768D01*
X103431000Y-60205786D01*
X103436669Y-60342993D01*
X103440881Y-60523304D01*
X103444367Y-60755635D01*
X103446990Y-60973134D01*
X103457846Y-61912934D01*
X103218390Y-61912934D01*
X103090176Y-61910278D01*
X103016434Y-61900352D01*
X102984040Y-61880216D01*
X102978933Y-61859312D01*
X102966400Y-61819579D01*
X102953533Y-61818764D01*
X102696532Y-61922442D01*
X102443967Y-61969324D01*
X102206511Y-61957993D01*
X102102311Y-61931877D01*
X101916713Y-61838022D01*
X101771694Y-61696360D01*
X101674176Y-61517862D01*
X101631079Y-61313497D01*
X101633135Y-61211741D01*
X102132267Y-61211741D01*
X102160203Y-61332790D01*
X102239175Y-61417244D01*
X102361924Y-61463003D01*
X102521196Y-61467967D01*
X102709732Y-61430035D01*
X102791396Y-61402501D01*
X102978933Y-61332334D01*
X102978933Y-60761467D01*
X102849614Y-60761467D01*
X102658508Y-60781486D01*
X102480598Y-60836589D01*
X102327717Y-60919352D01*
X102211697Y-61022345D01*
X102144371Y-61138143D01*
X102132267Y-61211741D01*
X101633135Y-61211741D01*
X101633598Y-61188840D01*
X101685820Y-60957925D01*
X101792024Y-60762627D01*
X101953650Y-60601750D01*
X102172139Y-60474099D01*
X102448933Y-60378480D01*
X102667219Y-60331827D01*
X102800010Y-60307973D01*
X102904646Y-60287280D01*
X102965245Y-60272973D01*
X102973842Y-60269556D01*
X102975791Y-60226428D01*
X102949959Y-60149223D01*
X102906439Y-60060024D01*
X102855323Y-59980909D01*
X102827659Y-59949725D01*
X102709135Y-59881648D01*
X102551357Y-59853150D01*
X102369155Y-59863034D01*
X102177360Y-59910103D01*
X101990803Y-59993161D01*
X101944187Y-60021009D01*
X101854733Y-60073290D01*
X101790172Y-60102756D01*
X101769211Y-60104900D01*
X101772767Y-60068013D01*
X101795839Y-59982339D01*
X101834205Y-59862527D01*
X101862451Y-59781353D01*
X101972259Y-59474375D01*
X102191297Y-59406721D01*
X102461671Y-59350847D01*
X102709865Y-59354957D01*
D12*
X143966726Y-101183274D03*
X142800000Y-100700000D03*
X141633274Y-101183274D03*
X141150000Y-102350000D03*
X141633274Y-103516726D03*
X142800000Y-104000000D03*
X143966726Y-103516726D03*
X144450000Y-102350000D03*
D13*
X142800000Y-102350000D03*
X147800000Y-102350000D03*
D12*
X149450000Y-102350000D03*
X148966726Y-103516726D03*
X147800000Y-104000000D03*
X146633274Y-103516726D03*
X146150000Y-102350000D03*
X146633274Y-101183274D03*
X147800000Y-100700000D03*
X148966726Y-101183274D03*
X153966726Y-101183274D03*
X152800000Y-100700000D03*
X151633274Y-101183274D03*
X151150000Y-102350000D03*
X151633274Y-103516726D03*
X152800000Y-104000000D03*
X153966726Y-103516726D03*
X154450000Y-102350000D03*
D13*
X152800000Y-102350000D03*
G36*
G01*
X120437500Y-103793750D02*
X120437500Y-104506250D01*
G75*
G02*
X120118750Y-104825000I-318750J0D01*
G01*
X119481250Y-104825000D01*
G75*
G02*
X119162500Y-104506250I0J318750D01*
G01*
X119162500Y-103793750D01*
G75*
G02*
X119481250Y-103475000I318750J0D01*
G01*
X120118750Y-103475000D01*
G75*
G02*
X120437500Y-103793750I0J-318750D01*
G01*
G37*
G36*
G01*
X122012500Y-103793750D02*
X122012500Y-104506250D01*
G75*
G02*
X121693750Y-104825000I-318750J0D01*
G01*
X121056250Y-104825000D01*
G75*
G02*
X120737500Y-104506250I0J318750D01*
G01*
X120737500Y-103793750D01*
G75*
G02*
X121056250Y-103475000I318750J0D01*
G01*
X121693750Y-103475000D01*
G75*
G02*
X122012500Y-103793750I0J-318750D01*
G01*
G37*
M02*
