G04 #@! TF.GenerationSoftware,KiCad,Pcbnew,(5.1.6)-1*
G04 #@! TF.CreationDate,2020-11-05T16:36:13+07:00*
G04 #@! TF.ProjectId,business card,62757369-6e65-4737-9320-636172642e6b,rev?*
G04 #@! TF.SameCoordinates,Original*
G04 #@! TF.FileFunction,Paste,Bot*
G04 #@! TF.FilePolarity,Positive*
%FSLAX46Y46*%
G04 Gerber Fmt 4.6, Leading zero omitted, Abs format (unit mm)*
G04 Created by KiCad (PCBNEW (5.1.6)-1) date 2020-11-05 16:36:13*
%MOMM*%
%LPD*%
G01*
G04 APERTURE LIST*
G04 APERTURE END LIST*
G36*
G01*
X113825000Y-102175000D02*
X114025000Y-102175000D01*
G75*
G02*
X114125000Y-102275000I0J-100000D01*
G01*
X114125000Y-103550000D01*
G75*
G02*
X114025000Y-103650000I-100000J0D01*
G01*
X113825000Y-103650000D01*
G75*
G02*
X113725000Y-103550000I0J100000D01*
G01*
X113725000Y-102275000D01*
G75*
G02*
X113825000Y-102175000I100000J0D01*
G01*
G37*
G36*
G01*
X114475000Y-102175000D02*
X114675000Y-102175000D01*
G75*
G02*
X114775000Y-102275000I0J-100000D01*
G01*
X114775000Y-103550000D01*
G75*
G02*
X114675000Y-103650000I-100000J0D01*
G01*
X114475000Y-103650000D01*
G75*
G02*
X114375000Y-103550000I0J100000D01*
G01*
X114375000Y-102275000D01*
G75*
G02*
X114475000Y-102175000I100000J0D01*
G01*
G37*
G36*
G01*
X115125000Y-102175000D02*
X115325000Y-102175000D01*
G75*
G02*
X115425000Y-102275000I0J-100000D01*
G01*
X115425000Y-103550000D01*
G75*
G02*
X115325000Y-103650000I-100000J0D01*
G01*
X115125000Y-103650000D01*
G75*
G02*
X115025000Y-103550000I0J100000D01*
G01*
X115025000Y-102275000D01*
G75*
G02*
X115125000Y-102175000I100000J0D01*
G01*
G37*
G36*
G01*
X115775000Y-102175000D02*
X115975000Y-102175000D01*
G75*
G02*
X116075000Y-102275000I0J-100000D01*
G01*
X116075000Y-103550000D01*
G75*
G02*
X115975000Y-103650000I-100000J0D01*
G01*
X115775000Y-103650000D01*
G75*
G02*
X115675000Y-103550000I0J100000D01*
G01*
X115675000Y-102275000D01*
G75*
G02*
X115775000Y-102175000I100000J0D01*
G01*
G37*
G36*
G01*
X115775000Y-96450000D02*
X115975000Y-96450000D01*
G75*
G02*
X116075000Y-96550000I0J-100000D01*
G01*
X116075000Y-97825000D01*
G75*
G02*
X115975000Y-97925000I-100000J0D01*
G01*
X115775000Y-97925000D01*
G75*
G02*
X115675000Y-97825000I0J100000D01*
G01*
X115675000Y-96550000D01*
G75*
G02*
X115775000Y-96450000I100000J0D01*
G01*
G37*
G36*
G01*
X115125000Y-96450000D02*
X115325000Y-96450000D01*
G75*
G02*
X115425000Y-96550000I0J-100000D01*
G01*
X115425000Y-97825000D01*
G75*
G02*
X115325000Y-97925000I-100000J0D01*
G01*
X115125000Y-97925000D01*
G75*
G02*
X115025000Y-97825000I0J100000D01*
G01*
X115025000Y-96550000D01*
G75*
G02*
X115125000Y-96450000I100000J0D01*
G01*
G37*
G36*
G01*
X114475000Y-96450000D02*
X114675000Y-96450000D01*
G75*
G02*
X114775000Y-96550000I0J-100000D01*
G01*
X114775000Y-97825000D01*
G75*
G02*
X114675000Y-97925000I-100000J0D01*
G01*
X114475000Y-97925000D01*
G75*
G02*
X114375000Y-97825000I0J100000D01*
G01*
X114375000Y-96550000D01*
G75*
G02*
X114475000Y-96450000I100000J0D01*
G01*
G37*
G36*
G01*
X113825000Y-96450000D02*
X114025000Y-96450000D01*
G75*
G02*
X114125000Y-96550000I0J-100000D01*
G01*
X114125000Y-97825000D01*
G75*
G02*
X114025000Y-97925000I-100000J0D01*
G01*
X113825000Y-97925000D01*
G75*
G02*
X113725000Y-97825000I0J100000D01*
G01*
X113725000Y-96550000D01*
G75*
G02*
X113825000Y-96450000I100000J0D01*
G01*
G37*
G36*
G01*
X117662500Y-102600000D02*
X118137500Y-102600000D01*
G75*
G02*
X118375000Y-102837500I0J-237500D01*
G01*
X118375000Y-103412500D01*
G75*
G02*
X118137500Y-103650000I-237500J0D01*
G01*
X117662500Y-103650000D01*
G75*
G02*
X117425000Y-103412500I0J237500D01*
G01*
X117425000Y-102837500D01*
G75*
G02*
X117662500Y-102600000I237500J0D01*
G01*
G37*
G36*
G01*
X117662500Y-100850000D02*
X118137500Y-100850000D01*
G75*
G02*
X118375000Y-101087500I0J-237500D01*
G01*
X118375000Y-101662500D01*
G75*
G02*
X118137500Y-101900000I-237500J0D01*
G01*
X117662500Y-101900000D01*
G75*
G02*
X117425000Y-101662500I0J237500D01*
G01*
X117425000Y-101087500D01*
G75*
G02*
X117662500Y-100850000I237500J0D01*
G01*
G37*
G36*
G01*
X118137500Y-97575000D02*
X117662500Y-97575000D01*
G75*
G02*
X117425000Y-97337500I0J237500D01*
G01*
X117425000Y-96762500D01*
G75*
G02*
X117662500Y-96525000I237500J0D01*
G01*
X118137500Y-96525000D01*
G75*
G02*
X118375000Y-96762500I0J-237500D01*
G01*
X118375000Y-97337500D01*
G75*
G02*
X118137500Y-97575000I-237500J0D01*
G01*
G37*
G36*
G01*
X118137500Y-99325000D02*
X117662500Y-99325000D01*
G75*
G02*
X117425000Y-99087500I0J237500D01*
G01*
X117425000Y-98512500D01*
G75*
G02*
X117662500Y-98275000I237500J0D01*
G01*
X118137500Y-98275000D01*
G75*
G02*
X118375000Y-98512500I0J-237500D01*
G01*
X118375000Y-99087500D01*
G75*
G02*
X118137500Y-99325000I-237500J0D01*
G01*
G37*
M02*
