M48
; DRILL file {KiCad (5.1.6)-1} date 11/05/20 16:36:17
; FORMAT={3:3/ absolute / metric / suppress leading zeros}
; #@! TF.CreationDate,2020-11-05T16:36:17+07:00
; #@! TF.GenerationSoftware,Kicad,Pcbnew,(5.1.6)-1
FMAT,2
METRIC,TZ
T1C0.400
T2C2.200
%
G90
G05
T1
X107195Y-99133
X112293Y-99133
X112293Y-101132
X118100Y-104450
X121300Y-103050
X141150Y-102350
X141633Y-101183
X141633Y-103517
X142800Y-100700
X142800Y-104000
X143967Y-101183
X143967Y-103517
X144450Y-102350
X151150Y-102350
X151633Y-101183
X151633Y-103517
X152800Y-100700
X152800Y-104000
X153967Y-101183
X153967Y-103517
X154450Y-102350
X146150Y-102350
X146633Y-101183
X146633Y-103517
X147800Y-100700
X147800Y-104000
X148967Y-101183
X148967Y-103517
X149450Y-102350
T2
X142800Y-102350
X152800Y-102350
X147800Y-102350
T0
M30
